<?xml version="1.0" encoding="UTF-8" standalone="no"?>
<!-- Created with Inkscape (http://www.inkscape.org/) -->

<svg
   xmlns:dc="http://purl.org/dc/elements/1.1/"
   xmlns:cc="http://creativecommons.org/ns#"
   xmlns:rdf="http://www.w3.org/1999/02/22-rdf-syntax-ns#"
   xmlns:svg="http://www.w3.org/2000/svg"
   xmlns="http://www.w3.org/2000/svg"
   xmlns:sodipodi="http://sodipodi.sourceforge.net/DTD/sodipodi-0.dtd"
   xmlns:inkscape="http://www.inkscape.org/namespaces/inkscape"
   width="400"
   height="400"
   id="svg2"
   version="1.1"
   inkscape:version="0.48.0 r9654"
   sodipodi:docname="arrow.svg">
  <defs
     id="defs4" />
  <sodipodi:namedview
     id="base"
     pagecolor="#ffffff"
     bordercolor="#666666"
     borderopacity="1.0"
     inkscape:pageopacity="0.0"
     inkscape:pageshadow="2"
     inkscape:zoom="1"
     inkscape:cx="295.79152"
     inkscape:cy="232.36458"
     inkscape:document-units="px"
     inkscape:current-layer="layer1"
     showgrid="false"
     inkscape:window-width="1680"
     inkscape:window-height="997"
     inkscape:window-x="0"
     inkscape:window-y="24"
     inkscape:window-maximized="1" />
  <metadata
     id="metadata7">
    <rdf:RDF>
      <cc:Work
         rdf:about="">
        <dc:format>image/svg+xml</dc:format>
        <dc:type
           rdf:resource="http://purl.org/dc/dcmitype/StillImage" />
        <dc:title></dc:title>
      </cc:Work>
    </rdf:RDF>
  </metadata>
  <g
     inkscape:label="Layer 1"
     inkscape:groupmode="layer"
     id="layer1"
     transform="translate(0,-652.36218)">
    <path
       style="fill:#000000"
       d="m 180.72901,1011.5041 c -10.06013,-8.4438 -14.84639,-20.57539 -19.76788,-32.22485 -9.44647,-21.97754 -14.7329,-45.45502 -22.16067,-68.10469 -4.09532,-6.51631 -4.28475,-24.05136 -15.47003,-15.89839 -8.83453,5.66141 -19.16229,9.05778 -26.11089,14.21916 -8.0457,3.5964 -28.85564,4.12544 -18.8303,-9.36904 10.26729,-10.24154 9.38882,-25.72184 12.69548,-38.98425 4.15286,-24.00229 7.40339,-48.13295 9.89198,-72.36279 2.54493,-12.79761 1.94117,-25.92367 3.57318,-38.80725 2.46876,-12.70122 -10.6405,-15.65492 -12.15807,-26.15625 7.288,-13.11579 25.25671,-5.24159 35.48774,0.12745 25.20812,12.30643 52.35392,19.8699 78.90853,28.69369 12.50596,3.44695 23.66552,8.23188 36.26528,10.42196 20.20094,5.39777 41.12015,7.22187 61.41681,12.03788 3.6013,-0.82356 24.2536,7.11956 12.53767,16.81866 -12.52462,4.32067 -14.93215,8.49729 -32.39015,17.99655 -9.73844,5.29889 -25.01096,10.1168 -27.79928,20.65003 19.47216,21.27805 39.79679,41.89149 57.51446,64.70322 4.44168,7.22321 11.23146,16.63193 13.48749,26.92932 4.07081,13.36521 -12.7086,16.81668 -21.21738,18.87985 -10.11657,5.9319 -20.64616,9.62855 -30.45076,16.28984 -10.99924,6.62862 -22.17388,12.01323 -32.07914,20.23106 -9.08786,7.53968 -17.7974,11.16385 -23.74493,16.12904 -8.67084,7.2387 -11.70754,12.6656 -27.29447,20.0471 -3.76685,1.7839 -6.70936,1.5426 -12.30467,-2.2673 z m 15.01865,-27.28155 c 8.79345,-3.84703 17.46308,-11.3537 26.21104,-16.6933 18.26831,-11.19437 36.37514,-24.1164 56.59568,-31.99756 9.89977,-7.47623 33.26666,-11.48348 17.41579,-26.63069 -9.0889,-10.08887 -17.95829,-20.56714 -27,-30.58837 -7.51353,-9.26711 -14.40051,-16.51378 -22.46693,-24.58293 -8.63582,-7.90292 -17.04021,-14.88584 -20.00827,-26.21828 -1.97886,-16.60511 19.76878,-17.9266 30.14396,-24.51441 5.65362,-3.12895 29.86041,-10.66547 12.73493,-12.12595 -7.93117,-2.11072 -17.36268,-3.26915 -26.66614,-5.77061 -19.56786,-4.75756 -38.86194,-10.26494 -57.69536,-17.28215 -7.45765,-2.65761 -15.40221,-4.02839 -24.65984,-7.89937 -10.29094,-3.09884 -21.95311,-7.64095 -31.72502,-9.87479 -8.73284,-3.56866 -5.96074,19.57617 -7.757,27.04761 -1.75633,31.62946 -7.96442,62.86587 -9.99033,94.45173 6.22072,11.98034 22.34887,-15.50972 32.15295,-2.51295 9.72058,9.36953 12.09718,23.21844 16.96244,35.28105 9.20797,27.13897 14.75274,56.25877 30.13282,80.7432 1.74162,1.35756 4.12036,0.27809 5.61928,-0.83223 z"
       id="path3056"
       inkscape:connector-curvature="0"
       sodipodi:nodetypes="cccccccccccccccscccccssscccccccccccccccccccc"
       inkscape:export-filename="/home/tim/Desktop/whiteboard_icons/16/arrow.png"
       inkscape:export-xdpi="4.8290501"
       inkscape:export-ydpi="4.8290501" />
  </g>
</svg>
