<?xml version="1.0" encoding="UTF-8" standalone="no"?>
<!-- Created with Inkscape (http://www.inkscape.org/) -->

<svg
   xmlns:dc="http://purl.org/dc/elements/1.1/"
   xmlns:cc="http://creativecommons.org/ns#"
   xmlns:rdf="http://www.w3.org/1999/02/22-rdf-syntax-ns#"
   xmlns:svg="http://www.w3.org/2000/svg"
   xmlns="http://www.w3.org/2000/svg"
   xmlns:sodipodi="http://sodipodi.sourceforge.net/DTD/sodipodi-0.dtd"
   xmlns:inkscape="http://www.inkscape.org/namespaces/inkscape"
   width="400"
   height="400"
   id="svg2"
   version="1.1"
   inkscape:version="0.48.0 r9654"
   sodipodi:docname="business_person.svg">
  <defs
     id="defs4" />
  <sodipodi:namedview
     id="base"
     pagecolor="#ffffff"
     bordercolor="#666666"
     borderopacity="1.0"
     inkscape:pageopacity="0.0"
     inkscape:pageshadow="2"
     inkscape:zoom="1.048835"
     inkscape:cx="122.86332"
     inkscape:cy="315.45229"
     inkscape:document-units="px"
     inkscape:current-layer="layer1"
     showgrid="false"
     inkscape:window-width="1680"
     inkscape:window-height="997"
     inkscape:window-x="0"
     inkscape:window-y="24"
     inkscape:window-maximized="1"
     showguides="false" />
  <metadata
     id="metadata7">
    <rdf:RDF>
      <cc:Work
         rdf:about="">
        <dc:format>image/svg+xml</dc:format>
        <dc:type
           rdf:resource="http://purl.org/dc/dcmitype/StillImage" />
        <dc:title></dc:title>
      </cc:Work>
    </rdf:RDF>
  </metadata>
  <g
     inkscape:label="Layer 1"
     inkscape:groupmode="layer"
     id="layer1"
     transform="translate(0,-652.36218)">
    <path
       style="fill:#000000"
       d="m 194.96875,39.15625 c -9.09799,0.09017 -20.91965,0.723834 -24.03125,1.5 -0.93775,0.23392 -2.57805,0.54759 -3.65625,0.6875 -4.97772,0.6459 -11.33473,3.752514 -12.6875,4.5 -0.74202,0.316464 -0.22782,0.07438 -0.96875,0.53125 -0.67326,0.415141 -0.83081,0.35817 -0.1875,2.0625 1.075,2.250624 0.19799,0.381663 1.08956,2.582461 0.58138,2.228105 1.18439,2.963059 -0.49581,3.886289 -3.14314,1.72707 -6.07227,3.65289 -10.09375,6.65625 -2.40255,1.7943 -4.375,3.15551 -4.375,3.03125 0,-0.40353 -9.78388,9.31266 -12.6875,12.59375 -1.57505,1.802639 -2.846,2.69867 -4,4.59375 -1.44467,1.986185 -1.67408,2.564439 -2.26934,4.178411 -0.71426,1.322253 -0.738,0.99633 -1.26191,2.352839 -0.56598,1.5004 -1.73792,4.5619 -2.625,6.8125 -3.86889,9.81575 -4.17887,16.13174 -1.15625,25.09375 2.66358,7.89749 5.63866,12.56228 12.53125,19.625 5.5708,5.70831 12.19558,10.77382 21.03125,16.09375 6.2899,3.78712 20.56516,10.12556 26.59375,11.8125 2.81325,0.78721 6.65575,1.85782 8.53125,2.375 3.93042,1.08383 16.27099,3.03479 20.78125,3.28125 9.86083,0.53883 27.17187,-0.43498 35.125,-1.96875 20.1346,-3.88296 34.37507,-11.00462 45.65625,-22.8125 9.12981,-9.55607 13.14326,-20.4479 12.5,-34 -0.41406,-8.7232 -2.5034,-15.34699 -7.375,-23.53125 -3.46556,-5.82212 -4.55784,-7.32073 -9.5,-12.9375 C 273.76362,69.43486 268.76703,65.10259 258.40625,58.125 245.9723,49.7512 224.40461,41.38188 212.875,40.46875 c -2.2506,-0.17825 -5.6245,-0.59523 -7.5,-0.9375 -1.19297,-0.217707 -3.63665,-0.347636 -6.71875,-0.375 -1.15579,-0.01026 -2.38779,-0.01288 -3.6875,0 z M 185.3125,53.1875 c 1.56047,-0.01568 3.6077,0.01188 6.34375,0.03125 16.56795,0.1173 26.74064,1.76908 39.53125,6.40625 5.71275,2.07113 8.74137,3.41308 15.46875,6.90625 5.25843,2.73041 15.99375,11.07653 20.96875,16.28125 6.66548,6.97327 14.3877,19.08177 14.95166,21.2938 0.27731,1.08769 0.39949,0.88848 0.58813,1.81865 0.25258,1.24544 0.42469,2.57425 0.89771,5.57505 2.65901,16.86848 -6.42185,30.73441 -26.125,39.9375 -6.09833,2.84845 -10.88257,4.22635 -21.53125,6.1875 -13.52147,2.49023 -32.25843,2.21845 -48.53125,-0.6875 -24.45843,-4.36772 -51.18585,-21.43418 -59.1875,-37.8125 -4.50207,-9.21512 -4.40823,-15.13889 0.46875,-24.875 4.83359,-9.64948 18.4363,-22.04004 32.90625,-29.96875 1.31285,-0.71936 4.4056,-2.41398 6.84375,-3.75 2.43815,-1.33602 5.58009,-2.79964 7,-3.25 1.41991,-0.45035 3.08561,-1.55014 3.6875,-2.46875 0.81758,-1.24779 1.03734,-1.577965 5.71875,-1.625 z m -31.21875,107.46875 c -0.31794,-0.0213 -0.6033,0.0788 -1.03125,0.15625 -0.49972,0.0904 -1.0807,0.57862 -1.9375,0.8125 -0.66335,0.18107 -1.98457,1.60229 -3.3125,4.09375 -0.84808,1.57124 -1.28643,2.09811 -3.625,5.9375 -0.76698,1.2592 -2.60855,4.62503 -3.6875,6.96875 -0.54361,1.18085 -0.20187,1.4359 -0.875,3.0625 -1.21024,2.68947 -4.19902,11.67864 -7.8125,23.59375 -0.96692,3.18835 -2.15592,7.87432 -2.625,10.40625 -0.46907,2.53192 -1.09456,4.59375 -1.40625,4.59375 -0.31166,0 -0.43109,0.23827 -0.25,0.53125 0.18109,0.293 -0.12666,2.66723 -0.6875,5.28125 -0.56084,2.61401 -1.10221,5.2186 -1.21875,5.78125 -0.55848,2.6963 -1.07871,6.97151 -1.4375,11.9375 -0.2168,3.0008 -0.66149,6.3747 -1,7.5 -0.33851,1.1253 -0.77217,4.4992 -0.96875,7.5 -0.19657,3.0008 -0.50235,6.9995 -0.6875,8.875 -0.81043,8.20943 -1.77385,18.69861 -2.03125,22.15625 -0.15358,2.06305 -0.63551,7.1239 -1.0625,11.25 -0.427,4.1261 -1.07443,13.7792 -1.4375,21.46875 -0.80758,17.10394 -0.64778,17.48103 -0.96875,20.0625 0.006,0.97988 0.23915,2.72681 0.15625,4.28125 0.19326,4.3145 2.15013,6.2529 6.875,6.8125 1.32156,0.1638 2.74497,0.4625 4.375,0.875 2.44719,0.3867 1.99299,0.13375 3.625,0.21875 4.09704,0.3232 11.00912,1.7413 17.375,2.1875 7.4251,0.52049 11.59006,0.88815 13.875,1.25 l 0,-0.0625 24.625,2.375 c 0.29596,0.003 0.56668,-0.008 0.875,0 10.38081,0.2737 27.8837,0.25365 31.90625,-0.0312 0.56849,-0.0403 1.08616,-0.0578 1.5625,-0.0625 2.15503,-0.1051 4.47552,-0.1149 6.6875,-0.15625 l 0.0625,0 c 0.69627,-0.0369 1.50249,-0.0545 2.40625,-0.0625 3.09458,-0.0271 9.6237,-0.27575 14.5,-0.53125 4.8763,-0.2556 10.40575,-0.51475 12.28125,-0.59375 1.8755,-0.0793 5.2494,-0.38255 7.5,-0.65625 12.69882,-1.5446 18.35213,-1.8637 21.5,-1.25 1.70392,0.3327 3.64079,0.34335 4.28125,0.0312 0.64046,-0.3121 1.68733,-0.83975 2.34375,-1.15625 2.87315,-1.3853 5.81106,-13.72337 3.59375,-15.09375 -0.7074,-0.4372 -0.76557,-2.60087 -0.28125,-10.6875 0.88402,-14.76009 0.63707,-59.17241 -0.375,-67.75 -1.73828,-14.73239 -6.13195,-31.81559 -13.03125,-50.46875 -4.27555,-11.55951 -12.21875,-35.77491 -12.21875,-37.25 0,-0.8312 -0.811,-2.47193 -1.78125,-3.625 -1.43225,-1.70218 -2.119,-2.00798 -3.59375,-1.65625 -0.99903,0.23826 -2.14117,0.7014 -2.5625,1.03125 -0.42134,0.32984 -1.25235,0.41444 -1.84375,0.1875 -0.77702,-0.29818 -1.38096,0.30071 -2.15625,2.15625 -0.97876,2.34234 -0.97806,3.00615 0.0312,7.40625 1.95979,8.54372 4.25452,16.27142 7.8125,26.34375 10.03432,28.40639 14.28366,42.50988 14.6875,48.84375 0.12461,1.95448 0.55602,4.19755 0.96875,4.96875 0.63048,1.17806 1.74549,17.08779 1.5,21.5 -0.0421,0.7502 -0.0682,2.90575 -0.0312,4.78125 0.37314,18.91863 0.18263,31.5112 -0.5625,36.46875 -0.47921,3.18835 -0.868,7.71813 -0.875,10.0625 -0.009,3.2165 -0.23994,4.28125 -0.96875,4.28125 -0.53121,0 -1.37689,0.90595 -1.875,2.03125 -0.56776,1.28264 -1.42364,2.0545 -2.28125,2.0625 -0.75241,0.007 -4.1241,0.32244 -7.5,0.6875 -3.3759,0.36505 -9.9675,0.84416 -14.65625,1.0625 -4.68875,0.21832 -8.925,0.50315 -9.40625,0.65625 -0.48126,0.1531 -10.00941,0.4604 -21.15625,0.6875 -24.32596,0.4959 -39.39622,-0.30097 -59.46875,-3.1875 -5.43895,-0.78216 -13.11392,-1.79103 -17.03125,-2.25 -4.5627,-0.53459 -6.92914,-0.91028 -7.5,-1.0625 -2.07457,-0.55319 -3.29711,-0.3666 -5.09375,-0.8125 -4.94038,-0.77781 -5.2496,-0.9401 -4.84375,-2.8125 0.17796,-0.82098 0.4654,-10.09095 0.65625,-20.59375 0.19085,-10.5028 0.50353,-21.5617 0.6875,-24.5625 0.18397,-3.0008 0.53333,-8.37405 0.75,-11.9375 0.59577,-9.79846 1.01044,-14.81003 1.78125,-20.8125 0.38535,-3.0008 0.78766,-6.3747 0.90625,-7.5 1.52227,-14.44416 3.79423,-29.165 5.125,-33.375 0.3587,-1.13479 1.2236,-4.21805 1.9375,-6.84375 3.54041,-13.02167 5.13847,-17.9379 7.03125,-21.6875 3.52308,-6.97918 6.6715,-15.99473 7.125,-20.4375 0.38621,-3.78343 0.26405,-4.39311 -1.03125,-5.5625 -0.55781,-0.50359 -0.90081,-0.66616 -1.21875,-0.6875 z m 44.3125,16.875 c -2.03497,-0.0336 -4.06136,1.48411 -6.15625,4.5625 -3.20092,4.70364 -4.93167,16.71603 -3.15625,21.9375 0.72328,2.12712 0.70668,2.54387 -0.15625,2.875 -2.40455,0.92272 -9.1406,20.51062 -11.40625,33.15625 -0.23522,1.31285 -0.754,3.74955 -1.125,5.4375 -0.37101,1.68795 -0.84034,4.4546 -1.0625,6.125 -0.22217,1.67041 -0.68375,3.56944 -1.03125,4.21875 -0.3475,0.64931 -0.625,1.93473 -0.625,2.875 0,0.94028 -0.27224,1.86379 -0.59375,2.0625 -0.32151,0.1987 -0.95637,2.30089 -1.40625,4.65625 -0.96536,5.05416 -2.42547,10.89359 -4.15625,16.5625 -0.68713,2.2506 -1.60146,5.84317 -2.03125,8 -0.42981,2.15682 -0.99527,3.9365 -1.25,3.9375 -0.97964,0.004 -0.74498,5.93271 0.34375,8.53125 1.3933,3.32551 4.96268,6.93384 8.1875,8.28125 4.34723,1.81639 10.37881,6.18786 10.9375,7.9375 0.37766,1.18269 4.79244,4.46686 6.34375,4.71875 3.23694,0.52559 5.79282,-1.49069 6.46875,-5.09375 0.54322,-2.89557 9.04123,-12.53902 11.625,-13.1875 0.90558,-0.22729 1.65625,-0.6352 1.65625,-0.90625 0,-0.27106 0.76818,-0.92877 1.71875,-1.4375 0.95057,-0.50873 2.35726,-1.94529 3.125,-3.1875 1.7778,-2.87655 1.87936,-10.65969 0.28125,-22.375 -1.05016,-7.69848 -2.40611,-32.07932 -2,-35.8125 0.10202,-0.93775 0.18755,-5.48989 0.21875,-10.125 0.0472,-6.99359 0.22568,-8.37163 1.03125,-8.0625 2.0868,0.80079 3.25684,-6.38934 1.375,-8.46875 -1.1937,-1.31902 -2.17298,-6.749 -1.21875,-6.75 1.91998,-0.003 7.65977,-7.20606 8.59375,-10.78125 0.48331,-1.85005 -1.97513,-6.94518 -4.78125,-9.875 -3.13107,-3.26909 -8.02889,-6.00017 -11.4375,-6.375 -1.82613,-0.2008 -3.83754,-0.92475 -4.65625,-1.6875 -1.21833,-1.13505 -2.43527,-1.72983 -3.65625,-1.75 z m 2.53125,14.875 c 0.0618,-0.0123 0.12046,-0.0105 0.1875,0 0.32181,0.0506 0.71003,0.36218 1.1875,0.9375 0.46696,0.56265 1.25541,1.03125 1.75,1.03125 1.22816,0 1.94949,1.33176 1.15625,2.125 -0.94267,0.94267 -3.77029,1.32452 -4.84375,0.65625 -0.63994,-0.3984 -0.79245,-1.24497 -0.46875,-2.71875 0.2834,-1.29031 0.59889,-1.94488 1.03125,-2.03125 z m -1.15625,19 c 1.10749,0 1.20751,0.30365 0.71875,2.21875 -0.31113,1.21907 -0.5318,5.12405 -0.5,8.6875 0.16232,18.1577 0.49824,30.90449 0.96875,35.8125 0.28767,3.0008 0.71281,9.31125 0.9375,14 0.22469,4.68875 0.71041,10.63073 1.09375,13.21875 0.38335,2.58803 0.63144,4.73775 0.53125,4.78125 -0.10019,0.0435 -1.71825,1.10653 -3.59375,2.375 -1.8755,1.26847 -5.57214,4.4175 -8.21875,7 -4.81203,4.69545 -4.81003,4.69876 -7.5,2.71875 -1.47949,-1.08902 -3.58372,-2.91935 -4.65625,-4.0625 -1.95006,-2.07846 -1.94243,-2.07614 2.59375,-20.375 5.07241,-20.46201 5.59394,-22.72297 6.1875,-26.125 1.19091,-6.82589 5.96255,-24.92864 7.90625,-30 1.222,-3.18835 2.247,-6.81218 2.25,-8.03125 0.004,-1.71253 0.29091,-2.21875 1.28125,-2.21875 z"
       transform="translate(0,652.36218)"
       id="path3164"
       inkscape:connector-curvature="0"
       sodipodi:nodetypes="ssscsccsssccccsssssssssssssssssssssssssssssssssssssscsscssscssssssssscccccscccccccccccccssssssscscccsssscsscsscssscsssccsssssssssssssssssssscssscssssssssssscsscsssssscssscsssscssscssssssscs" />
  </g>
</svg>
