<?xml version="1.0" encoding="UTF-8" standalone="no"?>
<!-- Created with Inkscape (http://www.inkscape.org/) -->

<svg
   xmlns:dc="http://purl.org/dc/elements/1.1/"
   xmlns:cc="http://creativecommons.org/ns#"
   xmlns:rdf="http://www.w3.org/1999/02/22-rdf-syntax-ns#"
   xmlns:svg="http://www.w3.org/2000/svg"
   xmlns="http://www.w3.org/2000/svg"
   xmlns:sodipodi="http://sodipodi.sourceforge.net/DTD/sodipodi-0.dtd"
   xmlns:inkscape="http://www.inkscape.org/namespaces/inkscape"
   width="400"
   height="400"
   id="svg3941"
   version="1.1"
   inkscape:version="0.48.0 r9654"
   sodipodi:docname="computer.svg">
  <defs
     id="defs3943" />
  <sodipodi:namedview
     id="base"
     pagecolor="#ffffff"
     bordercolor="#666666"
     borderopacity="1.0"
     inkscape:pageopacity="0.0"
     inkscape:pageshadow="2"
     inkscape:zoom="1.3074157"
     inkscape:cx="290.99276"
     inkscape:cy="175.10479"
     inkscape:document-units="px"
     inkscape:current-layer="layer1"
     showgrid="false"
     inkscape:window-width="1680"
     inkscape:window-height="997"
     inkscape:window-x="0"
     inkscape:window-y="24"
     inkscape:window-maximized="1" />
  <metadata
     id="metadata3946">
    <rdf:RDF>
      <cc:Work
         rdf:about="">
        <dc:format>image/svg+xml</dc:format>
        <dc:type
           rdf:resource="http://purl.org/dc/dcmitype/StillImage" />
        <dc:title></dc:title>
      </cc:Work>
    </rdf:RDF>
  </metadata>
  <g
     inkscape:label="Layer 1"
     inkscape:groupmode="layer"
     id="layer1"
     transform="translate(0,-652.36218)">
    <path
       style="fill:#000000"
       d="M 262.0625 35.40625 C 250.69515 35.65924 239.32887 35.94964 227.96875 36.4375 C 216.01301 36.92694 204.06463 37.55324 192.125 38.34375 C 165.74657 40.05247 139.37469 41.95399 113 43.71875 C 108.30041 44.06029 103.61536 44.35931 98.90625 44.53125 C 91.135576 44.89928 83.339191 44.90507 75.5625 45.03125 C 74.428105 45.02868 73.233944 45.03567 72.25 45.6875 C 71.061765 46.37514 70.291089 47.58757 69.8125 48.84375 C 69.21652 50.83821 69.632051 52.95235 70.1875 54.90625 C 70.512431 56.42736 69.495828 57.7728 69.125 59.1875 C 68.715138 60.23996 68.964791 61.3741 68.875 62.46875 C 68.628507 74.11753 69.141006 85.76303 69.4375 97.40625 C 69.729017 107.32395 70.043727 117.23625 70.25 127.15625 C 70.500918 138.21284 70.731369 149.2836 70.71875 160.34375 C 70.771237 168.16147 70.651177 175.96466 70.53125 183.78125 C 70.324526 190.79047 70.21443 197.80198 70.0625 204.8125 C 69.85434 206.12436 69.275687 207.52638 69.90625 208.8125 C 70.840548 210.16625 72.685799 210.4558 74.21875 210.3125 C 76.230948 210.10874 78.123323 209.09655 79.5 207.625 C 80.703964 206.08309 81.413685 204.20415 81.5 202.25 C 82.007493 198.60932 82.301107 194.92116 82.46875 191.25 C 82.852385 182.97001 82.868857 174.69338 82.875 166.40625 C 82.740302 159.2151 82.661666 152.02744 82.28125 144.84375 C 82.047501 140.17059 81.881202 135.47867 81.53125 130.8125 C 81.324454 128.75271 80.942298 126.70542 81.09375 124.625 C 81.300042 121.7486 81.093865 118.84618 81.28125 115.96875 C 81.200212 112.15827 80.675521 108.38283 80.3125 104.59375 C 79.613783 95.7284 79.295147 86.85301 78.9375 77.96875 C 78.776962 72.3487 78.558159 66.66582 79.46875 61.09375 C 80.202394 59.70546 81.8767 59.39583 83.25 58.96875 C 88.162652 57.52206 93.25311 56.8445 98.34375 56.40625 C 105.20999 55.74463 112.09093 55.15206 118.96875 54.625 C 137.37824 53.29391 155.78615 51.84509 174.1875 50.40625 C 187.33314 49.50547 200.47077 48.73205 213.625 47.96875 C 219.09539 47.66274 224.58957 47.31065 230.0625 47.0625 C 231.70017 47.03601 233.34715 47.12085 234.96875 46.84375 C 237.24241 46.58013 239.50124 46.257 241.78125 46.0625 C 243.30986 46.19795 244.83814 46.37496 246.375 46.40625 C 251.67664 46.59724 256.97951 46.20819 262.28125 46.1875 C 269.81793 46.0576 277.33752 46.00251 284.875 46 C 289.15293 46.0653 293.44225 46.15422 297.71875 46.28125 C 298.73297 46.50082 299.38451 47.59376 299.21875 48.59375 C 299.11277 57.12938 298.86007 65.68335 298.75 74.21875 C 298.70068 78.68129 298.654 83.13727 298.9375 87.59375 C 299.08353 91.47593 299.43466 95.33849 299.625 99.21875 C 300.14117 105.67238 300.81487 112.11601 301.6875 118.53125 C 302.53895 124.994 303.38555 131.45393 304.3125 137.90625 C 305.22463 144.00731 306.27217 150.11276 307.34375 156.1875 C 308.78278 164.16526 310.42546 172.08803 312.1875 180 C 313.34343 184.81515 314.64143 189.60383 315.71875 194.4375 C 316.21286 196.43701 316.91574 198.36704 317.375 200.375 C 318.35482 203.85241 319.1056 207.39918 320.09375 210.875 C 320.32695 211.73884 320.08118 212.95297 319.09375 213.21875 C 318.02322 213.66854 316.89871 213.17998 315.8125 213.0625 C 308.81485 211.93463 301.81768 210.71248 294.78125 209.84375 C 285.32754 208.89713 275.86536 207.96194 266.375 207.46875 C 258.52971 207.10351 250.6958 207.00792 242.84375 206.90625 C 234.98907 206.8593 227.13585 206.76634 219.28125 206.75 C 205.99499 206.90742 192.68563 207.08458 179.40625 207.5625 C 174.26661 207.71972 169.13469 207.88056 164 208.15625 C 156.4621 208.47967 148.96014 209.12483 141.4375 209.6875 C 127.78432 210.80123 114.15749 212.22572 100.5625 213.90625 C 92.829305 214.91788 85.077447 215.96255 77.375 217.1875 C 74.759498 217.72387 71.953513 218.06293 69.78125 219.75 C 68.543542 220.75996 67.947319 222.28776 67.4375 223.75 C 67.056024 224.72405 66.474601 225.77892 66.875 226.84375 C 67.423521 227.95742 68.849639 228.09319 69.9375 227.875 C 76.755494 226.67679 83.596983 225.57377 90.4375 224.5 C 100.83874 223.0381 111.2283 221.49398 121.6875 220.5 C 127.90833 219.88853 134.14612 219.48863 140.375 218.96875 C 149.60825 218.24949 158.8423 217.50395 168.09375 217.0625 C 170.8312 216.94052 173.57452 216.87941 176.3125 216.8125 C 177.3187 216.71628 178.47532 216.63912 179.3125 217.3125 C 180.12791 218.23763 179.84188 219.59607 179.625 220.6875 C 179.4211 221.84947 179.22733 223.0116 179.15625 224.1875 C 179.2064 225.92535 179.52241 227.66407 179.53125 229.40625 C 179.6497 231.28825 179.23706 233.12408 179.15625 235 C 178.88137 239.01072 178.45574 243.02546 177.5 246.9375 C 177.13854 248.01469 176.06747 248.76113 174.9375 248.78125 C 173.59505 248.93923 172.25076 248.94776 170.90625 249.09375 C 161.40216 249.74985 151.86398 250.26512 142.375 251.125 C 138.89156 251.41997 135.41638 251.75255 131.96875 252.34375 C 129.73788 252.61305 127.46932 253.21731 125.71875 254.6875 C 124.30267 255.86486 123.79688 258.10151 124.8125 259.6875 C 125.66288 260.81704 127.20684 261.04199 128.53125 261.09375 C 132.57492 261.20554 136.59293 260.76688 140.625 260.53125 C 156.84333 259.50098 173.05866 258.33945 189.28125 257.375 C 198.61066 256.81341 207.94503 256.27936 217.28125 255.84375 C 220.28761 255.88902 223.27853 256.18922 226.28125 256.3125 C 234.06479 256.73264 241.84273 257.14971 249.625 257.59375 C 251.75996 257.67603 253.93055 257.96568 256.03125 257.4375 C 257.31078 257.11731 258.66761 256.66153 259.625 255.71875 C 260.73397 254.44559 260.64649 252.34925 259.40625 251.1875 C 258.147 249.93219 256.29041 249.63328 254.625 249.25 C 250.68921 248.46196 246.6812 248.3016 242.6875 248 C 235.29123 247.50397 227.89214 246.92866 220.5 246.375 C 219.33918 246.03581 218.58416 244.77825 218.6875 243.59375 C 218.33588 239.64692 218.74548 235.70038 218.8125 231.75 C 218.95977 227.15093 219.13427 222.5395 219.03125 217.9375 C 219.16849 216.81013 220.30794 216.02188 221.40625 216.09375 C 228.80925 215.90491 236.22228 215.87786 243.625 216.09375 C 249.75033 216.24849 255.85007 216.56137 261.96875 216.875 C 267.15309 217.25611 272.37012 217.54712 277.53125 218.1875 C 281.63089 218.60694 285.71275 219.05656 289.78125 219.71875 C 295.82461 220.61946 301.86373 221.62482 307.8125 223.03125 C 313.7174 224.28526 319.29176 226.80984 325.25 227.84375 C 327.24407 228.1359 329.28469 227.91832 331.15625 227.15625 C 332.97662 226.51712 334.64235 225.11723 335.25 223.25 C 335.84848 221.49241 335.04344 219.72588 334.4375 218.09375 C 333.41976 214.97549 332.02878 211.90502 331.78125 208.59375 C 331.41363 206.72231 330.74082 204.93514 330.25 203.09375 C 328.92701 198.65625 327.6725 194.19824 326.5 189.71875 C 325.24691 185.10657 324.06861 180.48725 322.9375 175.84375 C 322.16671 172.67812 321.59062 169.44742 320.96875 166.25 C 319.93787 160.71379 318.92617 155.19443 317.90625 149.65625 C 316.51364 141.98915 315.32914 134.26547 314.15625 126.5625 C 313.17717 119.72954 312.39178 112.89748 311.6875 106.03125 C 311.00325 99.16702 310.4369 92.2862 309.9375 85.40625 C 309.6071 80.73891 309.43782 76.0521 309.34375 71.375 C 309.324 65.08895 309.93496 58.82758 310.375 52.5625 C 310.64461 48.7037 311.03434 44.8361 311.15625 40.96875 C 311.03422 39.52972 310.11959 38.25859 308.9375 37.46875 C 307.38231 36.43433 305.46271 36.28234 303.65625 36.0625 C 297.54128 35.62933 291.40628 35.69609 285.28125 35.53125 C 277.6131 35.43312 269.94993 35.33936 262.28125 35.40625 L 262.09375 35.40625 L 262.0625 35.40625 z M 193.84375 215.5 L 194.5 215.5625 C 198.93192 216.14589 203.41537 216.15808 207.875 216.28125 C 209.04025 216.34522 209.35578 217.6305 209.3125 218.59375 C 209.36405 220.91619 209.44786 223.23943 209.53125 225.5625 C 209.65143 229.48091 209.53545 233.40704 209.1875 237.3125 C 208.98747 239.93801 208.71275 242.53459 208.46875 245.15625 C 208.12745 246.22205 207.05342 247.06912 205.90625 246.9375 C 199.95129 247.25939 193.99777 247.6815 188.03125 247.6875 C 186.97592 247.53382 186.24743 246.27785 186.625 245.28125 C 187.12039 242.52506 187.55211 239.75801 187.8125 236.96875 C 188.11017 233.7826 188.23061 230.60536 188.28125 227.40625 C 188.29796 224.52952 188.39164 221.62483 188.3125 218.75 C 188.35567 217.88142 188.79936 217.01149 189.625 216.65625 C 190.86097 215.80045 192.40464 215.71488 193.84375 215.5 z "
       transform="translate(0,652.36218)"
       id="path4014" />
    <path
       style="fill:#000000"
       d="m 214.3466,940.61972 c -15.29939,0.89143 -30.59703,1.81464 -45.89651,2.70363 -21.89942,0.96354 -43.79854,1.93436 -65.69607,2.93995 -5.997001,0.27347 -11.992541,0.5807 -17.985796,0.9254 -4.31707,0.29812 -8.62803,0.68256 -12.94768,0.94469 -1.0231,0.12272 -2.10417,0.04 -3.0677,0.45508 -0.77048,0.42433 -1.35582,1.14931 -1.62812,1.98312 -0.4357,0.99404 -0.5255,2.08933 -0.74688,3.14188 -0.17837,1.55334 -0.32011,3.11835 -0.29695,4.68214 0.24146,2.74326 0.46536,5.4879 0.67165,8.23394 0.63044,7.22957 1.26478,14.45891 1.91505,21.68669 0.502,5.15155 0.98958,10.30535 1.6422,15.44046 0.09604,0.9364 0.20619,1.8868 0.60711,2.7505 0.37544,0.8486 0.99769,1.5623 1.74219,2.1125 1.55451,1.0736 3.33672,1.7733 5.15625,2.25 2.08525,0.4458 4.22602,0.4593 6.34375,0.625 1.909135,0.074 3.818165,-0.065 5.725375,-0.1399 3.49411,-0.1776 6.98509,-0.4149 10.470171,-0.7232 5.08687,-0.423 10.16583,-0.9354 15.24094,-1.4802 9.56571,-1.0456 19.12815,-2.1213 28.68997,-3.2016 21.59153,-2.5523 43.18206,-5.114 64.77422,-7.66061 4.03335,-0.4095 8.06878,-0.7967 12.10792,-1.145 6.21169,-0.5615 12.41923,-1.1714 18.6152,-1.8871 2.9535,-0.3407 5.91213,-0.6418 8.86273,-1.0044 1.03155,-0.1705 2.09754,-0.2687 3.08324,-0.621 0.92387,-0.4259 1.43507,-1.3775 1.83649,-2.262 0.47405,-1.2587 0.83732,-2.5633 0.96072,-3.90649 0.23253,-2.23933 0.30833,-4.49449 0.27967,-6.74478 -0.23693,-4.72315 -0.46658,-9.4472 -0.83202,-14.16258 -0.44573,-6.50627 -1.03313,-13.00169 -1.59587,-19.49862 -0.29381,-1.32834 -0.54139,-2.70679 -1.28125,-3.875 -0.62053,-0.72619 -1.46258,-1.2226 -2.35812,-1.53437 -1.21602,-0.44248 -2.52278,-0.55016 -3.80258,-0.66869 -1.6615,-0.0928 -3.3232,-0.21337 -4.98616,-0.26569 -3.20264,-0.0241 -6.4046,-0.12097 -9.60766,-0.11394 -5.01766,-0.0206 -10.03563,-0.0118 -15.05322,-0.006 -0.31408,0.009 -0.62817,0.0174 -0.94226,0.0262 z m 23.71875,8.3125 c 1.30466,0.079 2.59847,0.37292 3.78125,0.9375 0.7136,0.8163 1.07916,1.89419 1.125,2.96875 0.75072,4.83587 1.20269,9.71047 1.76378,14.57036 0.56832,5.10154 1.13665,10.20309 1.70497,15.30464 0.0317,0.91396 -0.13465,1.94409 -0.875,2.5625 -0.66902,0.52035 -1.52611,0.74962 -2.35346,0.87141 -2.70219,0.52676 -5.45286,0.73583 -8.18618,1.03965 -11.41083,1.16358 -22.82643,2.28046 -34.23615,3.45526 -5.30446,0.5397 -10.61052,1.0643 -15.90758,1.6736 -11.87657,1.3372 -23.76393,2.5752 -35.64665,3.8559 -8.36363,0.9087 -16.73334,1.7606 -25.10212,2.6198 -11.21507,0.971 -22.43714,1.85871 -33.656451,2.77871 -3.56395,0.2595 -7.129465,0.4996 -10.692665,0.7682 -1.0457,0.03 -2.06502,-0.6569 -2.25,-1.7188 -0.17078,-1.10411 -0.07274,-2.22761 -0.06329,-3.34181 -0.0056,-1.3453 -0.1258,-2.6874 -0.09296,-4.0332 -0.20458,-5.24561 -0.36877,-10.49278 -0.51602,-15.74023 -0.04024,-1.39756 -0.18084,-2.79443 -0.10898,-4.19255 0.0036,-1.83114 -0.34054,-3.64325 -0.375,-5.47344 -0.05998,-1.15037 -0.21226,-2.29091 -0.35893,-3.43218 -0.06381,-0.98432 0.15006,-1.96175 0.26398,-2.93564 0.15227,-0.83599 0.62607,-1.59559 1.2512,-2.16343 0.84491,-0.64474 1.8873,-0.98891 2.9375,-1.09375 2.3069,-0.39794 4.6109,-0.81879 6.938235,-1.08212 2.19239,-0.26445 4.38253,-0.56606 6.58315,-0.74927 2.36453,-0.14023 4.73165,-0.22111 7.098631,-0.30408 15.03985,-0.86201 30.08006,-1.7177 45.11748,-2.62143 12.6127,-0.74193 25.22764,-1.44564 37.83846,-2.21936 7.83534,-0.47745 15.67507,-0.88008 23.51297,-1.31202 3.79052,-0.15999 7.58242,-0.27759 11.37503,-0.37424 6.3141,-0.21666 12.6282,-0.43332 18.9423,-0.64998 l 0.18032,0.03 0.007,10e-4 z"
       id="path4062"
       inkscape:connector-curvature="0" />
    <path
       style="fill:#000000"
       d="m 327.12597,932.59328 c -10.59702,1.28814 -21.19569,2.58012 -31.75,4.1875 -1.07805,0.27626 -2.04229,1.10151 -2.28125,2.21875 -1.08668,3.81527 -1.03302,7.85251 -0.875,11.78125 0.23335,3.89675 0.31864,7.79475 0.9375,11.65625 0.61097,5.90177 1.7337,11.7444 2.25,17.65625 0.12382,2.28395 -0.50967,4.51262 -0.65625,6.78125 -0.16502,1.02492 -0.0805,2.23479 0.75,2.96875 1.51732,1.459 3.74909,1.64984 5.75,1.65625 2.79507,-0.0317 5.53392,-0.66365 8.3125,-0.90625 6.77894,-0.78562 13.60749,-1.03478 20.40625,-1.59375 2.94411,-0.21557 5.90136,-0.48122 8.84375,-0.71875 1.61844,-0.33717 2.86252,-1.90038 2.9375,-3.53125 0.0504,-1.67198 -1.22092,-2.93339 -2.40625,-3.9375 -1.44938,-1.1837 -2.90013,-2.60204 -3.3125,-4.5 -0.59784,-3.0842 -0.25995,-6.25646 -0.4375,-9.375 -0.11191,-5.98744 -0.0331,-11.98125 0.0312,-17.96875 0.009,-3.32353 0.24099,-6.65332 -0.0625,-9.96875 -0.15862,-1.09886 -0.27821,-2.24739 -0.78125,-3.25 -0.88769,-1.45256 -2.32064,-2.62707 -4.03125,-2.90625 -1.18157,-0.27342 -2.41739,-0.31004 -3.625,-0.25 z m -3.4375,8.46875 0.15625,0 0.0312,0 c 1.33643,0.25714 2.00837,1.74761 1.9375,3 -0.22523,11.26239 -0.56893,22.5218 -0.90625,33.78125 -0.25409,1.11263 -1.43364,1.81088 -2.53125,1.78125 -4.65456,0.45949 -9.32886,0.66571 -14,0.875 -0.97074,-0.13952 -2.16427,-0.40653 -2.59375,-1.40625 -0.32393,-1.08267 0.12258,-2.24921 -0.3125,-3.3125 -0.8493,-4.43439 -1.25598,-8.93703 -1.875,-13.40625 -0.32831,-5.07159 -0.93641,-10.17097 -0.40625,-15.25 0.11141,-1.03971 0.56145,-2.24124 1.625,-2.625 2.57872,-0.6238 5.1854,-1.14621 7.8125,-1.53125 3.67839,-0.68718 7.37495,-1.27111 11.0625,-1.90625 z"
       id="path4070"
       inkscape:connector-curvature="0" />
  </g>
</svg>
