<?xml version="1.0" encoding="UTF-8" standalone="no"?>
<!-- Created with Inkscape (http://www.inkscape.org/) -->

<svg
   xmlns:dc="http://purl.org/dc/elements/1.1/"
   xmlns:cc="http://creativecommons.org/ns#"
   xmlns:rdf="http://www.w3.org/1999/02/22-rdf-syntax-ns#"
   xmlns:svg="http://www.w3.org/2000/svg"
   xmlns="http://www.w3.org/2000/svg"
   xmlns:sodipodi="http://sodipodi.sourceforge.net/DTD/sodipodi-0.dtd"
   xmlns:inkscape="http://www.inkscape.org/namespaces/inkscape"
   width="400"
   height="400"
   id="svg4078"
   version="1.1"
   inkscape:version="0.48.0 r9654"
   sodipodi:docname="New document 19">
  <defs
     id="defs4080" />
  <sodipodi:namedview
     id="base"
     pagecolor="#ffffff"
     bordercolor="#666666"
     borderopacity="1.0"
     inkscape:pageopacity="0.0"
     inkscape:pageshadow="2"
     inkscape:zoom="1.4821325"
     inkscape:cx="244.62534"
     inkscape:cy="188.62122"
     inkscape:document-units="px"
     inkscape:current-layer="layer1"
     showgrid="false"
     inkscape:window-width="1680"
     inkscape:window-height="997"
     inkscape:window-x="0"
     inkscape:window-y="24"
     inkscape:window-maximized="1" />
  <metadata
     id="metadata4083">
    <rdf:RDF>
      <cc:Work
         rdf:about="">
        <dc:format>image/svg+xml</dc:format>
        <dc:type
           rdf:resource="http://purl.org/dc/dcmitype/StillImage" />
        <dc:title></dc:title>
      </cc:Work>
    </rdf:RDF>
  </metadata>
  <g
     inkscape:label="Layer 1"
     inkscape:groupmode="layer"
     id="layer1"
     transform="translate(0,-652.36218)">
    <path
       style="fill:#000000"
       d="M 122.09375 707.78125 C 120.55816 707.89485 119.04315 708.18582 117.53125 708.46875 C 115.79111 709.07936 113.92017 709.20689 112.1875 709.84375 C 109.09947 710.76578 106.07719 711.88832 103.03125 712.9375 C 98.754198 715.21167 94.45885 717.45704 90.280106 719.90892 C 88.463423 720.99331 86.695964 722.15837 84.924867 723.3149 C 82.064031 725.22174 79.43684 727.47002 77.058175 729.95016 C 75.361602 731.68709 73.708257 733.46564 72.03784 735.22717 C 70.110869 737.33649 68.188672 739.46073 66.529028 741.79128 C 64.693944 744.17144 63.275879 746.83177 61.6875 749.375 C 60.845089 750.80854 59.955846 752.21726 59.141699 753.66578 C 57.545069 757.12947 55.878646 760.56666 54.488851 764.1205 C 54.030801 765.3054 53.747173 766.54577 53.432899 767.77301 C 53.030018 769.84744 52.522138 771.89931 52.09375 773.96875 C 51.576545 776.30478 50.975076 778.62467 50.188683 780.88572 C 49.744453 782.24057 49.306697 783.60128 48.95286 784.98211 C 48.725891 786.11381 48.366611 787.21819 48.28125 788.375 C 48.137813 789.7016 48.142272 791.03562 48.231684 792.36539 C 48.362534 796.61953 48.638894 800.86734 48.823238 805.11931 C 49.559639 819.94994 50.270152 834.78181 50.977057 849.61386 C 51.16726 853.52095 51.357401 857.42867 51.594326 861.33298 C 52.398301 870.48222 53.184108 879.63307 54 888.78125 C 54.264367 890.94245 54.506573 893.11143 55.013587 895.23261 C 55.431066 897.14805 55.693628 899.0934 56.0247 901.02488 C 56.450119 904.41433 57.094308 907.77062 57.596005 911.14846 C 57.94721 913.12614 58.349539 915.09475 58.889141 917.03048 C 59.532416 919.37646 60.054219 921.7592 60.84375 924.0625 C 61.473157 925.25236 62.805056 925.73835 63.912134 926.36569 C 64.84444 926.85776 65.805593 927.30774 66.65625 927.9375 C 67.842759 929.35846 68.320922 931.18045 69.105241 932.82341 C 70.075594 935.083 71.139761 937.29946 72.259776 939.4883 C 73.019496 941.00723 73.932719 942.44386 74.714844 943.95179 C 75.528472 945.3634 76.350699 946.78296 77.40625 948.03125 C 78.931782 950.1767 80.656508 952.18377 82.5625 954 C 83.33923 954.63299 84.078613 955.30971 84.890436 955.89828 C 87.230423 957.86554 89.595873 959.8047 92.060643 961.61439 C 93.771178 962.96359 95.565357 964.24706 97.595176 965.07245 C 102.63719 967.36089 107.80967 969.34904 113.03208 971.18426 C 115.45867 972.04738 117.87831 972.9514 120.375 973.59375 C 121.50881 973.75952 122.67615 973.6931 123.78205 974.03926 C 125.02257 974.33147 126.24266 974.69807 127.49472 974.94142 C 130.17187 975.51524 132.88199 975.92369 135.57905 976.39277 C 140.6088 977.2618 145.66107 978.01051 150.73784 978.54492 C 154.98794 979.08405 159.24245 979.586 163.5 980.0625 C 165.50067 980.10469 167.49981 979.88834 169.5 980 C 172.59117 979.91171 175.68832 979.82489 178.77643 980.03802 C 180.57628 980.15001 182.38341 980.09516 184.16986 979.84382 C 190.11696 979.15935 196.06395 978.47183 202.01919 977.86208 C 209.41034 976.98782 216.78096 975.95185 224.16123 974.9919 C 226.74982 974.63641 229.38363 974.47392 231.89497 973.70139 C 233.31749 973.32279 234.74314 972.88018 236.21875 972.78125 C 237.21725 972.74825 238.24328 972.88943 239.21154 972.58148 C 245.66809 970.9037 252.13057 969.24669 258.59375 967.59375 C 259.59422 967.48041 260.5805 967.23504 261.54306 966.94257 C 263.37041 966.32695 265.14071 965.55032 266.94321 964.86518 C 271.46939 963.09441 275.98174 961.28569 280.4375 959.34375 C 283.51554 957.93853 286.56686 956.47574 289.57802 954.93226 C 293.12378 953.22435 296.5031 951.19877 299.98413 949.36644 C 301.70442 948.43365 303.42177 947.4931 305.12282 946.5266 C 307.605 944.95369 310.08559 943.37565 312.46185 941.64458 C 314.17192 940.42051 315.94417 939.26643 317.5 937.84375 C 318.86944 936.34225 320.29049 934.87031 321.43534 933.18554 C 321.9994 932.26174 322.4042 931.10578 322.0625 930.03125 C 321.75053 929.20358 320.95447 928.50216 320.03125 928.5625 C 319.06409 928.61604 318.28398 929.23945 317.45717 929.67231 C 312.27359 932.46162 307.13013 935.32574 301.96875 938.15625 C 298.98417 939.53206 295.95062 940.80191 292.89312 942.00605 C 286.44162 944.46413 279.9228 946.73964 273.42052 949.05839 C 270.03872 950.18791 266.6794 951.39292 263.23539 952.3246 C 253.95663 954.9473 244.59514 957.26243 235.26408 959.68904 C 232.09468 960.48396 228.85939 960.96989 225.61763 961.35596 C 219.23183 962.15537 212.85384 963.01497 206.47465 963.8647 C 203.31346 964.22739 200.154 964.64498 196.97038 964.74671 C 189.9704 965.07345 182.96587 965.29403 175.96112 965.48547 C 172.7273 965.53241 169.49319 965.62784 166.25955 965.64518 C 164.77133 965.60735 163.28365 965.56746 161.8023 965.41109 C 157.92834 965.1221 154.0583 964.78515 150.19536 964.37363 C 147.37896 964.07404 144.54759 963.89109 141.75 963.4375 C 139.86207 963.06044 138.02179 962.48001 136.16259 961.98529 C 132.60706 960.96621 129.03109 960.02149 125.46112 959.05523 C 122.23571 958.14108 119.0209 957.19082 115.8125 956.21875 C 113.31702 955.20158 110.96191 953.88002 108.55285 952.67925 C 106.96155 951.85997 105.36855 951.0394 103.81373 950.15311 C 102.54552 949.36922 101.38559 948.42817 100.19501 947.53459 C 98.034366 945.83037 95.973856 943.99956 93.967526 942.11777 C 92.433871 940.51297 91.070256 938.7557 89.706485 937.00732 C 87.966168 934.63104 86.414198 932.12606 84.8125 929.65625 C 83.880786 927.93894 83.119028 926.13673 82.306196 924.36189 C 80.866296 920.97063 79.832875 917.42934 78.653782 913.94361 C 78.212816 912.65089 77.838385 911.33085 77.355746 910.05524 C 76.931956 909.08032 75.954474 908.46026 74.96875 908.15625 C 73.59669 907.60851 72.121623 907.29459 70.84375 906.53125 C 69.926081 905.97997 69.332003 905.0412 69.047196 904.02603 C 68.65411 902.53999 68.541014 900.99604 68.1875 899.5 C 67.345869 894.93686 66.577234 890.3579 66.04276 885.74756 C 65.791821 883.63041 65.522984 881.51512 65.388493 879.38645 C 64.923254 872.61863 64.450204 865.85098 63.892377 859.09008 C 63.811884 857.59955 63.518656 856.12306 63.511403 854.63005 C 63.64749 852.56482 63.788768 850.49513 63.658274 848.42561 C 63.444614 841.52502 63.33205 834.62167 63.21875 827.71875 C 63.316993 822.27829 63.587583 816.84259 63.772681 811.40465 C 63.726002 810.44214 63.861684 809.24879 64.857232 808.80711 C 65.647034 808.47194 66.492458 808.98606 67.202015 809.31976 C 69.546391 810.75046 71.787734 812.3438 74.113616 813.80521 C 76.99144 815.66302 79.972711 817.35505 82.954383 819.03922 C 84.17389 819.71192 85.480427 820.21273 86.740796 820.80374 C 91.343163 822.85341 96.008186 824.75933 100.68192 826.63897 C 102.92135 827.50661 105.15203 828.39812 107.43437 829.14879 C 111.17892 830.45962 114.99696 831.54471 118.76508 832.7825 C 120.17161 833.30615 121.5701 833.86659 123.04402 834.17478 C 128.32191 835.37621 133.59545 836.60543 138.92068 837.58304 C 141.54678 838.10231 144.18638 838.56845 146.85115 838.83604 C 154.19678 839.71194 161.54647 840.55738 168.90437 841.32312 C 171.62608 841.57501 174.34628 841.86264 177.07415 842.03478 C 178.71253 842.14781 180.35267 842.04964 181.99061 842 C 184.69814 841.99652 187.40168 842.19037 190.10848 842.24287 C 197.1756 842.48011 204.24634 842.58127 211.31551 842.73246 C 213.00379 842.81258 214.6816 842.57021 216.36395 842.46735 C 223.07185 841.9408 229.78198 841.43953 236.48876 840.90072 C 239.93696 840.58495 243.35786 840.0367 246.79144 839.59729 C 250.09331 839.16427 253.39261 838.70679 256.68285 838.19348 C 260.05968 837.63186 263.44328 837.10467 266.79257 836.39149 C 271.54445 835.45107 276.29491 834.48891 280.98614 833.27619 C 283.11686 832.77771 285.23599 832.22611 287.30701 831.51562 C 289.8352 830.70359 292.35778 829.87275 294.84488 828.94156 C 298.40642 827.64902 301.90846 826.19753 305.41093 824.75412 C 308.38299 823.49627 311.33986 822.19775 314.24778 820.79798 C 315.73774 820.06057 317.18755 819.24094 318.53445 818.26342 C 320.3634 817.01715 322.18777 815.75507 323.84375 814.28125 C 324.66398 813.6684 325.49437 812.81769 326.59375 812.84375 C 327.5397 812.99811 328.3455 813.63759 328.74672 814.50331 C 329.25325 815.75009 329.53571 817.08065 329.6632 818.41901 C 329.94006 820.633 330.04622 822.86483 330.20566 825.0896 C 330.5775 831.27589 330.82521 837.46898 331.14109 843.6583 C 331.55175 851.94434 331.94995 860.23182 332.49358 868.51032 C 332.87662 873.33457 333.29471 878.15674 333.78698 882.97111 C 334.24585 887.33267 334.77962 891.68571 335.38424 896.02943 C 336.19773 901.96699 336.92957 907.91802 337.88388 913.8346 C 338.83196 918.11127 339.90296 922.38537 341.59375 926.4375 C 342.10027 927.36757 342.46254 928.41536 343.29383 929.12038 C 344.23179 929.9466 345.63267 929.93479 346.737 929.47686 C 347.79402 929.11641 348.88606 928.58241 349.46593 927.57863 C 350.29079 926.29954 350.60184 924.77211 350.78125 923.28125 C 351.15782 920.72369 350.87943 918.13411 350.68266 915.57367 C 349.01054 898.82371 347.39113 882.06854 345.78125 865.3125 C 345.66333 863.7797 345.52831 862.24842 345.375 860.71875 C 345.05961 859.45273 344.62192 858.16586 344.78125 856.84375 C 344.9556 855.17463 344.62681 853.50248 344.79561 851.8327 C 344.89193 850.27601 344.82319 848.71383 344.8685 847.15489 C 344.84164 843.82502 344.74134 840.49535 344.67634 837.16581 C 344.51548 831.69628 344.34308 826.2266 344.10013 820.76023 C 344.01854 819.20993 343.85409 817.65074 343.99345 816.10012 C 344.18753 815.04615 344.50585 814.00817 344.50004 812.92122 C 344.6361 811.09367 344.31314 809.27716 344.19472 807.45708 C 344.07773 806.12764 343.96074 804.79819 343.84375 803.46875 C 343.94559 801.75081 344.10919 800.03199 343.99531 798.31 C 343.93774 797.29185 344.01046 796.27286 344.0625 795.25939 C 344.10234 793.8731 343.96693 792.49282 343.75 791.125 C 343.375 788.03125 343 784.9375 342.625 781.84375 C 341.76074 778.50221 340.94913 775.14279 339.83943 771.87144 C 339.09181 769.59545 338.32485 767.27735 336.94733 765.2918 C 335.84714 763.55409 334.50733 761.98638 333.23576 760.37449 C 332.00031 758.85328 330.71608 757.3693 329.29685 756.0156 C 327.97724 754.6976 326.65375 753.38052 325.29618 752.10279 C 322.43084 749.69296 319.42994 747.44516 316.31745 745.36479 C 312.87742 743.11731 309.29453 741.09516 305.61774 739.262 C 301.49123 737.17961 297.31488 735.1957 293.09375 733.3125 C 289.72209 732.03453 286.37498 730.68539 282.96095 729.52362 C 280.2308 728.59439 277.49338 727.6856 274.7252 726.87477 C 270.85743 725.76106 266.95961 724.75332 263.10211 723.60318 C 262.08951 723.28927 261.0622 723.01146 260 722.9375 C 256.61293 722.37616 253.2261 721.80652 249.82798 721.31201 C 245.9224 720.74353 242.01304 720.20007 238.10606 719.64134 C 233.51555 719.04413 228.90908 718.55591 224.29108 718.23192 C 218.66629 717.90525 213.02993 717.95735 207.39949 717.81456 C 202.62274 717.71024 197.84462 717.64564 193.06732 717.60057 C 187.53271 717.79509 182.00159 718.07477 176.46875 718.3125 C 171.20777 718.80544 165.94153 719.24729 160.68559 719.79096 C 155.96281 720.32691 151.23129 720.82947 146.55279 721.68391 C 144.15908 722.07388 141.76162 722.45013 139.35001 722.71135 C 135.92948 723.15997 132.59514 724.07639 129.2352 724.8341 C 124.25091 726.0062 119.26525 727.17555 114.30335 728.43933 C 112.01527 729.06524 109.70785 729.63092 107.47612 730.44363 C 106.43146 730.78852 105.40576 731.1816 104.43827 731.70913 C 103.35258 732.24754 102.26226 732.79201 101.22875 733.42218 C 100.33971 734.00942 99.950016 735.20298 100.33867 736.19845 C 100.63464 737.04297 101.28902 737.69192 102.09375 738.0625 C 102.87237 738.42879 103.78061 738.5233 104.625 738.375 C 109.3554 737.61016 114.061 736.70366 118.78407 735.89595 C 121.99234 735.35457 125.1931 734.76255 128.42177 734.35266 C 137.46025 733.09174 146.4996 731.83537 155.54454 730.62239 C 159.55809 730.15127 163.5654 729.62263 167.59169 729.26886 C 172.22396 728.78844 176.8737 728.5093 181.51517 728.13512 C 187.10844 727.70624 192.70347 727.28161 198.30776 727.027 C 199.64148 726.99652 200.97553 726.93321 202.30763 727.03919 C 205.29701 727.14518 208.28224 727.32699 211.26599 727.53595 C 214.97279 727.77522 218.68162 728.01861 222.36996 728.46819 C 225.53011 728.79087 228.67655 729.22686 231.81817 729.69333 C 237.09822 730.41336 242.37955 731.12761 247.6388 731.98947 C 249.79613 732.3113 251.94245 732.69706 254.07484 733.15611 C 256.89536 733.71787 259.62729 734.63383 262.39833 735.39059 C 266.69891 736.60838 270.95084 737.98805 275.22227 739.30185 C 278.2203 740.26825 281.17586 741.36299 284.11643 742.49032 C 286.54204 743.42378 288.92081 744.47102 291.27379 745.57387 C 293.4357 746.56277 295.57811 747.5975 297.66184 748.74275 C 299.01302 749.50416 300.38112 750.23657 301.66368 751.11207 C 303.51604 752.32949 305.35907 753.56491 307.15558 754.86282 C 310.53594 757.42722 313.90647 760.03098 316.93822 763.00771 C 318.06017 764.20424 319.06642 765.50377 320.09375 766.78125 C 321.679 768.90451 323.18223 771.10264 324.40568 773.45581 C 324.94542 774.60694 325.45216 775.77932 325.79836 777.00465 C 326.14284 778.30242 326.44228 779.61588 326.6875 780.9375 C 327.03314 783.70241 327.36252 786.53973 326.76444 789.29441 C 326.31671 791.23834 325.68769 793.14006 324.95313 794.99374 C 324.17933 796.80415 323.11324 798.48892 321.81213 799.96716 C 320.61262 801.33514 319.60801 802.90526 318.11651 803.98804 C 315.80736 805.82888 313.42284 807.57933 310.9112 809.13521 C 308.92023 810.43283 306.73576 811.39106 304.59375 812.40625 C 301.52116 813.79432 298.40101 815.08336 295.20099 816.14955 C 290.63423 817.77562 285.90957 818.89158 281.23362 820.1496 C 276.29815 821.44548 271.32297 822.58616 266.33723 823.67005 C 263.13829 824.32489 259.92393 824.90692 256.70003 825.42287 C 250.16849 826.29495 243.61442 827.00369 237.04708 827.54373 C 231.77686 827.96447 226.48702 828.00417 221.20655 828.22025 C 214.5054 828.4539 207.80329 828.69296 201.09851 828.77631 C 197.56479 828.71937 194.0385 828.47545 190.51011 828.28949 C 187.25025 828.08172 183.98835 827.90481 180.73444 827.61419 C 175.68758 827.25021 170.64846 826.79007 165.61074 826.31857 C 161.60237 825.89817 157.58984 825.50143 153.59537 824.96296 C 149.29837 824.33524 144.98809 823.78101 140.72663 822.93477 C 137.43504 822.32036 134.14534 821.69648 130.87225 820.98901 C 128.55933 820.50982 126.25139 819.99715 123.98273 819.33631 C 120.04167 818.23364 116.20601 816.79562 112.36326 815.39688 C 108.44954 813.94116 104.59977 812.32088 100.71875 810.78125 C 97.694858 809.43856 94.766902 807.88302 91.974786 806.10717 C 89.844606 804.82082 87.766249 803.44754 85.80268 801.9168 C 82.354793 799.22741 79.000308 796.41356 75.79743 793.43568 C 74.548054 792.29051 73.440607 790.99114 72.52865 789.56269 C 71.224877 787.41905 70.26533 785.09241 69.336015 782.76876 C 68.473772 780.56337 67.764122 778.29131 67.372097 775.95278 C 67.078428 774.47944 66.855478 772.98871 66.855426 771.48318 C 66.830892 770.06394 67.204321 768.67802 67.40625 767.28125 C 67.897511 765.38614 68.362372 763.48315 68.993995 761.62839 C 69.716782 759.41762 70.574574 757.24074 71.752987 755.22956 C 72.519371 753.81786 73.392708 752.46946 74.329325 751.16556 C 75.582584 749.29985 76.922097 747.48791 78.372291 745.77037 C 80.24833 743.61796 82.305398 741.63481 84.36404 739.66005 C 87.030972 737.25042 89.625576 734.73002 92.625336 732.72803 C 93.897291 731.80606 95.224368 730.96006 96.634999 730.26526 C 100.23736 728.34935 103.83321 726.41098 107.54473 724.71336 C 109.1511 724.05078 110.77213 723.42173 112.44689 722.95164 C 115.82643 722.08984 119.21223 721.24222 122.62328 720.51284 C 124.21367 720.18989 125.80854 719.84568 127.4375 719.8125 C 128.44183 719.7677 129.44847 719.85034 130.44477 719.66288 C 131.32521 719.53324 132.1462 719.13761 132.9375 718.75 C 134.24512 718.12306 135.37002 716.96209 135.6731 715.51113 C 135.89481 714.58084 135.73012 713.5995 135.33836 712.73652 C 134.85307 711.82078 134.31967 710.9065 133.66335 710.10174 C 132.97414 709.34436 132.08333 708.72461 131.0625 708.53125 C 130.00643 708.27617 128.9122 708.21397 127.8349 708.08349 C 125.98926 707.8975 124.13688 707.76221 122.28125 707.75 L 122.10093 707.78005 L 122.09375 707.78125 z M 217.5625 869.21875 C 215.18899 869.68196 213.24171 871.20957 211.0625 872.15625 C 210.12663 872.57691 209.1007 872.74071 208.09945 872.92539 C 205.91459 873.20139 203.71116 872.9598 201.51898 872.92857 C 197.34519 872.81984 193.17525 872.58082 189 872.53125 C 187.3884 872.67671 185.87087 873.29666 184.375 873.875 C 183.1684 874.4728 182.40173 875.66844 181.95796 876.90196 C 181.21861 878.62292 180.96502 880.50882 180.86095 882.36534 C 180.80082 884.30141 180.90137 886.2393 181.01191 888.17172 C 181.15307 889.8135 181.44075 891.44088 181.73332 893.06153 C 182.29321 895.79449 183.05289 898.48486 183.97087 901.11899 C 184.40563 902.40954 184.76608 903.78835 185.71875 904.8125 C 186.3477 905.51348 187.16885 906.01708 187.9731 906.49493 C 190.24588 907.83246 192.75956 908.68436 195.23799 909.55119 C 197.83312 910.25491 200.43936 911.10554 203.15146 911.15016 C 206.29101 911.0062 209.42353 910.73027 212.56004 910.53039 C 216.36427 910.25642 220.17364 910.01822 223.96394 909.58733 C 224.9385 909.45108 225.94413 909.40372 226.875 909.0625 C 227.7987 908.68253 228.48411 907.93233 228.95811 907.0744 C 229.58946 906.10315 229.93187 904.94073 229.90625 903.78125 C 229.50773 901.60108 228.90319 899.46232 228.56199 897.27052 C 227.83266 893.07436 227.00254 888.89592 226.34375 884.6875 C 225.79697 881.64215 224.91448 878.6704 224 875.71875 C 223.57698 874.60769 223.09368 873.51497 222.52686 872.47077 C 221.7841 871.16561 220.63432 870.06814 219.23983 869.48685 C 218.72338 869.23597 218.13118 869.14221 217.5625 869.21875 z M 200.28125 883.90625 C 203.10641 884.14038 205.92676 884.43087 208.75 884.6875 C 209.71872 884.79575 210.51696 885.45891 211.16904 886.13779 C 212.08919 886.95005 212.77975 888.02938 213.03946 889.2358 C 213.42545 890.57477 213.7444 891.93614 213.98393 893.30718 C 214.13271 894.5783 213.30736 895.81149 212.20902 896.38911 C 211.23911 896.85614 210.17549 897.10658 209.12606 897.32754 C 207.20882 897.72433 205.26267 897.94142 203.3125 898.09375 C 201.89212 898.22178 200.46342 898.37698 199.03735 898.32108 C 198.0689 898.2132 197.04601 898.04275 196.23742 897.47337 C 195.40366 896.80157 195.15176 895.6978 195.05961 894.68144 C 194.72405 892.18411 194.43565 889.6748 194.34375 887.15625 C 194.29655 886.27506 194.6715 885.41248 195.3125 884.8125 C 196.20386 884.00906 197.46951 883.96098 198.60407 883.88142 C 199.16497 883.83349 199.7219 883.84311 200.28125 883.90625 z M 276.75 887.5 C 273.16355 887.55649 269.58322 887.78829 266 887.9375 C 261.26651 888.39244 256.51918 888.74316 251.8125 889.4375 C 249.89702 889.97263 247.93384 890.34778 246.0625 891.03125 C 244.61054 891.64921 243.14223 892.33532 242.01333 893.46753 C 241.19129 894.23322 240.35274 894.99281 239.61172 895.8357 C 238.91376 896.75251 238.43511 897.86524 238.4375 899.03125 C 238.32665 900.64347 238.26719 902.25966 238.21875 903.875 C 238.25577 904.92484 238.32637 905.96977 238.50232 907.00614 C 238.90075 910.39431 239.62426 913.73886 240.59209 917.00883 C 241.03923 918.4189 241.39515 919.85668 241.84544 921.26492 C 242.22737 922.50299 243.00311 923.55493 243.66801 924.6503 C 244.16549 925.51632 244.92141 926.17823 245.66444 926.82793 C 246.71883 927.76771 247.98153 928.4163 249.26401 928.98405 C 251.17876 929.90108 253.16146 930.66394 255.17963 931.32029 C 256.344 931.68427 257.55787 931.92626 258.78125 931.9375 C 261.55846 931.74028 264.24603 930.95131 266.94453 930.31599 C 270.47614 929.37415 274.08718 928.78579 277.67222 928.09085 C 281.68636 927.34484 285.71256 926.66271 289.71875 925.875 C 291.32556 925.5231 292.93978 925.19829 294.53125 924.78125 C 295.3606 924.49515 296.11263 923.96009 296.59375 923.21875 C 297.1345 922.50295 297.89488 921.87625 298.03125 920.9375 C 298.35696 919.90865 298.0134 918.83423 297.62505 917.87515 C 297.24959 916.7565 296.69161 915.697 295.89644 914.81856 C 294.94074 913.62362 293.9592 912.43972 293.13121 911.15201 C 292.44628 909.98093 291.95162 908.71189 291.61638 907.39901 C 291.13948 905.58312 290.7677 903.73793 290.44543 901.88848 C 290.16657 900.40134 290.167 898.87749 289.83329 897.39907 C 289.52089 895.65783 288.97312 893.95628 288.12248 892.40121 C 287.65117 891.45104 287.05653 890.56664 286.44547 889.70331 C 285.7009 888.64934 284.42489 888.20436 283.21934 887.92407 C 281.66535 887.63416 280.07299 887.63054 278.5 887.5 C 277.9161 887.46673 277.33395 887.46716 276.75 887.5 z M 165.25 893.46875 C 162.64751 893.56408 160.04478 893.70467 157.44244 893.77181 C 155.15586 893.69665 152.87204 893.3563 150.58313 893.5521 C 147.87094 893.74614 145.16393 894.01386 142.46875 894.375 C 141.41736 894.69019 140.36177 895.04947 139.41374 895.60625 C 138.39482 896.23276 137.71913 897.29412 137.36961 898.41973 C 136.40484 900.80357 136.33282 903.41226 136.0625 905.9375 C 135.99443 907.28904 135.90636 908.64707 136.07278 909.99502 C 136.24153 913.56025 136.55384 917.12149 137.15151 920.64227 C 137.40489 922.16317 137.6925 923.71348 138.40655 925.09426 C 138.96849 926.02225 139.92627 926.60562 140.80357 927.20513 C 142.11722 927.96863 143.61897 928.32689 145.09139 928.64654 C 146.3547 928.92781 147.63501 929.10906 148.92668 929.18862 C 150.68497 929.35004 152.45619 929.49216 154.21875 929.3125 C 156.93685 929.21924 159.65431 929.06055 162.375 929.09375 C 165.72472 928.89202 169.0743 928.65644 172.40625 928.25 C 173.34719 928.04795 174.32874 927.64561 174.84375 926.78125 C 175.38519 925.90516 175.56949 924.86961 175.58172 923.85364 C 175.70242 921.61632 175.43034 919.38072 175.21875 917.15625 C 174.63676 912.44354 174.05345 907.72981 173.27659 903.04437 C 173.03667 901.46086 172.96752 899.82678 172.40625 898.3125 C 172.02708 897.3271 171.37694 896.49989 170.6613 895.73705 C 170.03894 894.95268 169.26536 894.27857 168.32429 893.90929 C 167.3706 893.48367 166.28262 893.38086 165.25 893.46875 z M 272 898.9375 C 273.56486 899.23878 274.78489 900.43482 275.59375 901.75 C 276.1062 902.69813 276.37661 903.74457 276.5327 904.80486 C 276.78072 906.15296 276.96457 907.51371 277.24157 908.85552 C 277.43163 909.75795 277.69368 910.74365 277.28125 911.625 C 276.94455 912.6524 275.9935 913.18718 275.01496 913.46664 C 273.53514 914.04822 271.94291 914.21899 270.41594 914.63621 C 267.12513 915.42167 263.82012 916.17804 260.46875 916.65625 C 259.42987 916.77585 258.33177 916.95871 257.3439 916.50005 C 256.36461 916.08609 255.83501 915.08435 255.4375 914.15625 C 254.72664 911.83659 254.05311 909.50252 253.5625 907.125 C 253.43462 906.0878 253.45546 904.99443 253.91704 904.03554 C 254.30786 903.07455 254.92366 902.13282 255.87855 901.66122 C 256.95708 901.08402 258.21448 901.02024 259.39291 900.7699 C 262.16386 900.23153 264.9621 899.85725 267.74322 899.37868 C 269.15199 899.16755 270.57159 898.92031 272 898.9375 z M 153.8125 904.71875 C 154.95667 904.75189 156.07573 905.00838 157.15625 905.375 C 158.24657 906.15439 158.99473 907.30883 159.47748 908.54336 C 160.07602 909.91853 160.51691 911.36805 160.78125 912.84375 C 160.88721 913.82722 160.60158 914.89883 159.875 915.59375 C 159.05671 916.56233 157.72556 917.0679 156.46875 916.875 C 155.10804 916.65813 153.76356 916.31324 152.46875 915.84375 C 151.54726 915.40523 150.83343 914.5829 150.57188 913.59065 C 150.19359 912.30669 150.26347 910.94621 150.125 909.625 C 150.06212 908.65297 150.07829 907.63775 150.54687 906.75626 C 151.05302 905.76101 152.01772 904.9978 153.12411 904.79793 C 153.34967 904.73298 153.5781 904.70319 153.8125 904.71875 z "
       id="path4205"
       inkscape:connector-curvature="0" />
  </g>
</svg>
