<?xml version="1.0" encoding="UTF-8" standalone="no"?>
<!-- Created with Inkscape (http://www.inkscape.org/) -->

<svg
   xmlns:dc="http://purl.org/dc/elements/1.1/"
   xmlns:cc="http://creativecommons.org/ns#"
   xmlns:rdf="http://www.w3.org/1999/02/22-rdf-syntax-ns#"
   xmlns:svg="http://www.w3.org/2000/svg"
   xmlns="http://www.w3.org/2000/svg"
   xmlns:sodipodi="http://sodipodi.sourceforge.net/DTD/sodipodi-0.dtd"
   xmlns:inkscape="http://www.inkscape.org/namespaces/inkscape"
   width="400"
   height="400"
   id="svg4078"
   version="1.1"
   inkscape:version="0.48.0 r9654"
   sodipodi:docname="database2.svg">
  <defs
     id="defs4080" />
  <sodipodi:namedview
     id="base"
     pagecolor="#ffffff"
     bordercolor="#666666"
     borderopacity="1.0"
     inkscape:pageopacity="0.0"
     inkscape:pageshadow="2"
     inkscape:zoom="1.4821325"
     inkscape:cx="244.62534"
     inkscape:cy="188.62122"
     inkscape:document-units="px"
     inkscape:current-layer="layer1"
     showgrid="false"
     inkscape:window-width="1680"
     inkscape:window-height="997"
     inkscape:window-x="0"
     inkscape:window-y="24"
     inkscape:window-maximized="1" />
  <metadata
     id="metadata4083">
    <rdf:RDF>
      <cc:Work
         rdf:about="">
        <dc:format>image/svg+xml</dc:format>
        <dc:type
           rdf:resource="http://purl.org/dc/dcmitype/StillImage" />
        <dc:title></dc:title>
      </cc:Work>
    </rdf:RDF>
  </metadata>
  <g
     inkscape:label="Layer 1"
     inkscape:groupmode="layer"
     id="layer1"
     transform="translate(0,-652.36218)">
    <path
       style="fill:#000000"
       d="M 122.28125 55.375 L 122.09375 55.40625 C 120.55816 55.51985 119.04315 55.81082 117.53125 56.09375 C 115.79111 56.70436 113.92017 56.83189 112.1875 57.46875 C 109.09947 58.39078 106.07719 59.51332 103.03125 60.5625 C 98.754198 62.83667 94.459994 65.07937 90.28125 67.53125 C 88.464567 68.61564 86.708597 69.78097 84.9375 70.9375 C 82.076664 72.84434 79.441165 75.11361 77.0625 77.59375 C 75.365927 79.33068 73.701667 81.11347 72.03125 82.875 C 70.104279 84.98432 68.190894 87.10695 66.53125 89.4375 C 64.696166 91.81766 63.275879 94.45677 61.6875 97 C 60.845089 98.43354 59.970397 99.86398 59.15625 101.3125 C 57.55962 104.77619 55.889795 108.19616 54.5 111.75 C 54.04195 112.9349 53.751774 114.17901 53.4375 115.40625 C 53.034619 117.48068 52.522138 119.52431 52.09375 121.59375 C 51.576545 123.92978 50.973893 126.2702 50.1875 128.53125 C 49.74327 129.8861 49.291337 131.24417 48.9375 132.625 C 48.710531 133.7567 48.366611 134.84319 48.28125 136 C 48.137813 137.3266 48.129338 138.67023 48.21875 140 C 48.3496 144.25414 48.628156 148.49803 48.8125 152.75 C 49.548901 167.58063 50.261845 182.41795 50.96875 197.25 C 51.158953 201.15709 51.356825 205.06444 51.59375 208.96875 C 52.397725 218.11799 53.184108 227.25807 54 236.40625 C 54.264367 238.56745 54.492986 240.75382 55 242.875 C 55.417479 244.79044 55.700178 246.72477 56.03125 248.65625 C 56.456669 252.0457 57.092053 255.40341 57.59375 258.78125 C 57.944955 260.75893 58.335398 262.72052 58.875 264.65625 C 59.518275 267.00223 60.054219 269.3842 60.84375 271.6875 C 61.473157 272.87736 62.799172 273.37266 63.90625 274 C 64.838556 274.49207 65.805593 274.93274 66.65625 275.5625 C 67.842759 276.98346 68.309431 278.82579 69.09375 280.46875 C 70.064103 282.72834 71.129985 284.93616 72.25 287.125 C 73.00972 288.64393 73.936625 290.08582 74.71875 291.59375 C 75.532378 293.00536 76.350699 294.40796 77.40625 295.65625 C 78.931782 297.8017 80.656508 299.80877 82.5625 301.625 C 83.33923 302.25799 84.063177 302.94268 84.875 303.53125 C 87.214987 305.49851 89.59773 307.44031 92.0625 309.25 C 93.773035 310.5992 95.563931 311.89336 97.59375 312.71875 C 102.63576 315.00719 107.80884 316.97728 113.03125 318.8125 C 115.45784 319.67562 117.87831 320.5764 120.375 321.21875 C 121.50881 321.38452 122.67535 321.34134 123.78125 321.6875 C 125.02177 321.97971 126.24794 322.3504 127.5 322.59375 C 130.17715 323.16757 132.89669 323.56217 135.59375 324.03125 C 140.6235 324.90028 145.67323 325.65309 150.75 326.1875 C 155.0001 326.72663 159.24245 327.211 163.5 327.6875 C 165.50067 327.72969 167.49981 327.51334 169.5 327.625 C 172.59117 327.53671 175.69314 327.47437 178.78125 327.6875 C 180.5811 327.79949 182.3698 327.72009 184.15625 327.46875 C 190.10335 326.78428 196.07601 326.10975 202.03125 325.5 C 209.4224 324.62574 216.77598 323.58495 224.15625 322.625 C 226.74484 322.26951 229.39491 322.11628 231.90625 321.34375 C 233.32877 320.96515 234.74314 320.50518 236.21875 320.40625 C 237.21725 320.37325 238.25049 320.5267 239.21875 320.21875 C 245.6753 318.54097 252.13057 316.87169 258.59375 315.21875 C 259.59422 315.10541 260.56869 314.88622 261.53125 314.59375 C 263.3586 313.97813 265.135 313.18514 266.9375 312.5 C 271.46368 310.72923 275.98174 308.91069 280.4375 306.96875 C 283.51554 305.56353 286.55134 304.10598 289.5625 302.5625 C 293.10826 300.85459 296.48772 298.83233 299.96875 297 C 301.68904 296.06721 303.42395 295.12275 305.125 294.15625 C 307.60718 292.58334 310.09249 291.01232 312.46875 289.28125 C 314.17882 288.05718 315.94417 286.89143 317.5 285.46875 C 318.86944 283.96725 320.29265 282.49727 321.4375 280.8125 C 322.00156 279.8887 322.4042 278.73078 322.0625 277.65625 C 321.75053 276.82858 320.95447 276.12716 320.03125 276.1875 C 319.06409 276.24104 318.29556 276.87964 317.46875 277.3125 C 312.28517 280.10181 307.13013 282.95074 301.96875 285.78125 C 298.98417 287.15706 295.96375 288.45211 292.90625 289.65625 C 286.45475 292.11433 279.90853 294.36875 273.40625 296.6875 C 270.02445 297.81702 266.69401 299.03707 263.25 299.96875 C 253.97124 302.59145 244.58106 304.88589 235.25 307.3125 C 232.0806 308.10742 228.86676 308.61393 225.625 309 C 219.2392 309.79941 212.84794 310.65027 206.46875 311.5 C 203.30756 311.86269 200.15237 312.27327 196.96875 312.375 C 189.96877 312.70174 182.9735 312.93356 175.96875 313.125 C 172.73493 313.17194 169.48364 313.26391 166.25 313.28125 C 164.76178 313.24342 163.29385 313.21887 161.8125 313.0625 C 157.93854 312.77351 154.05044 312.41152 150.1875 312 C 147.3711 311.70041 144.54759 311.51609 141.75 311.0625 C 139.86207 310.68544 138.01545 310.11972 136.15625 309.625 C 132.60072 308.60592 129.03872 307.65376 125.46875 306.6875 C 122.24334 305.77335 119.0209 304.81582 115.8125 303.84375 C 113.31702 302.82658 110.97156 301.51327 108.5625 300.3125 C 106.9712 299.49322 105.36732 298.66754 103.8125 297.78125 C 102.54429 296.99736 101.37808 296.08108 100.1875 295.1875 C 98.026856 293.48328 95.97508 291.63179 93.96875 289.75 C 92.435095 288.1452 91.082521 286.40463 89.71875 284.65625 C 87.978433 282.27997 86.414198 279.75106 84.8125 277.28125 C 83.880786 275.56394 83.125332 273.77484 82.3125 272 C 80.8726 268.60874 79.835343 265.07948 78.65625 261.59375 C 78.215284 260.30103 77.826389 258.96311 77.34375 257.6875 C 76.91996 256.71258 75.954474 256.08526 74.96875 255.78125 C 73.59669 255.23351 72.121623 254.91959 70.84375 254.15625 C 69.926081 253.60497 69.347307 252.67142 69.0625 251.65625 C 68.669414 250.17021 68.541014 248.62104 68.1875 247.125 C 67.345869 242.56186 66.565724 237.98534 66.03125 233.375 C 65.780311 231.25785 65.509491 229.15992 65.375 227.03125 C 64.909761 220.26343 64.464077 213.47965 63.90625 206.71875 C 63.825757 205.22822 63.507253 203.77426 63.5 202.28125 C 63.636087 200.21602 63.786744 198.13202 63.65625 196.0625 C 63.44259 189.16191 63.33205 182.24667 63.21875 175.34375 C 63.316993 169.90329 63.596152 164.46919 63.78125 159.03125 C 63.734571 158.06874 63.848202 156.87918 64.84375 156.4375 C 65.633552 156.10233 66.477943 156.63505 67.1875 156.96875 C 69.531876 158.39945 71.799118 159.97609 74.125 161.4375 C 77.002824 163.29531 79.987078 165.00333 82.96875 166.6875 C 84.188257 167.3602 85.489631 167.84649 86.75 168.4375 C 91.352367 170.48717 96.013766 172.40161 100.6875 174.28125 C 102.92693 175.14889 105.15516 176.03058 107.4375 176.78125 C 111.18205 178.09208 114.98188 179.16846 118.75 180.40625 C 120.15653 180.9299 121.55733 181.50431 123.03125 181.8125 C 128.30914 183.01393 133.58102 184.24114 138.90625 185.21875 C 141.53235 185.73802 144.17898 186.20116 146.84375 186.46875 C 154.18938 187.34465 161.54835 188.20301 168.90625 188.96875 C 171.62796 189.22064 174.33463 189.51536 177.0625 189.6875 C 178.70088 189.80053 180.36206 189.67464 182 189.625 C 184.70753 189.62152 187.38695 189.8225 190.09375 189.875 C 197.16087 190.11224 204.24333 190.22381 211.3125 190.375 C 213.00078 190.45512 214.69265 190.19661 216.375 190.09375 C 223.0829 189.5672 229.79322 189.07006 236.5 188.53125 C 239.9482 188.21548 243.34767 187.68941 246.78125 187.25 C 250.08312 186.81698 253.39726 186.35706 256.6875 185.84375 C 260.06433 185.28213 263.43196 184.74443 266.78125 184.03125 C 271.53313 183.09083 276.30877 182.11897 281 180.90625 C 283.13072 180.40777 285.24148 179.86674 287.3125 179.15625 C 289.84069 178.34422 292.35665 177.52494 294.84375 176.59375 C 298.40529 175.30121 301.90378 173.84966 305.40625 172.40625 C 308.37831 171.1484 311.34208 169.83727 314.25 168.4375 C 315.73996 167.70009 317.18435 166.88377 318.53125 165.90625 C 320.3602 164.65998 322.18777 163.38007 323.84375 161.90625 C 324.66398 161.2934 325.49437 160.44269 326.59375 160.46875 C 327.5397 160.62311 328.34878 161.29053 328.75 162.15625 C 329.25653 163.40303 329.52876 164.72414 329.65625 166.0625 C 329.93311 168.27649 330.05931 170.49398 330.21875 172.71875 C 330.59059 178.90504 330.84037 185.09193 331.15625 191.28125 C 331.56691 199.56729 331.95637 207.87775 332.5 216.15625 C 332.88304 220.9805 333.28898 225.77938 333.78125 230.59375 C 334.24012 234.95531 334.77038 239.31253 335.375 243.65625 C 336.18849 249.59381 336.92069 255.55217 337.875 261.46875 C 338.82308 265.74542 339.90296 270.01037 341.59375 274.0625 C 342.10027 274.99257 342.44996 276.04498 343.28125 276.75 C 344.21921 277.57622 345.64567 277.58293 346.75 277.125 C 347.80702 276.76455 348.88888 276.22253 349.46875 275.21875 C 350.29361 273.93966 350.60184 272.39711 350.78125 270.90625 C 351.15782 268.34869 350.88427 265.77919 350.6875 263.21875 C 349.01538 246.46879 347.39113 229.69354 345.78125 212.9375 C 345.66333 211.4047 345.52831 209.87342 345.375 208.34375 C 345.05961 207.07773 344.62192 205.79086 344.78125 204.46875 C 344.9556 202.79963 344.61245 201.13853 344.78125 199.46875 C 344.87757 197.91206 344.82969 196.34019 344.875 194.78125 C 344.84814 191.45138 344.7525 188.14204 344.6875 184.8125 C 344.52664 179.34297 344.3367 173.87262 344.09375 168.40625 C 344.01216 166.85595 343.86064 165.30062 344 163.75 C 344.19408 162.69603 344.50581 161.64945 344.5 160.5625 C 344.63606 158.73495 344.30592 156.91383 344.1875 155.09375 L 343.84375 151.09375 C 343.94559 149.37581 344.11388 147.65949 344 145.9375 C 343.94243 144.91935 344.01046 143.91972 344.0625 142.90625 C 344.10234 141.51996 343.96693 140.11782 343.75 138.75 L 342.625 129.46875 C 341.76074 126.12721 340.95345 122.77135 339.84375 119.5 C 339.09613 117.22401 338.31502 114.92305 336.9375 112.9375 C 335.83731 111.19979 334.52157 109.61189 333.25 108 C 332.01455 106.47879 330.70048 105.00995 329.28125 103.65625 C 327.96164 102.33825 326.63882 101.02773 325.28125 99.75 C 322.41591 97.34017 319.42499 95.08037 316.3125 93 C 312.87247 90.75252 309.30179 88.73941 305.625 86.90625 C 301.49849 84.82386 297.31488 82.8207 293.09375 80.9375 C 289.72209 79.65953 286.38278 78.31802 282.96875 77.15625 C 280.2386 76.22702 277.48693 75.31083 274.71875 74.5 C 270.85098 73.38629 266.95125 72.40014 263.09375 71.25 C 262.08115 70.93609 261.0622 70.63646 260 70.5625 C 256.61293 70.00116 253.21062 69.43201 249.8125 68.9375 C 245.90692 68.36902 242.00073 67.83998 238.09375 67.28125 C 233.50324 66.68404 228.89925 66.19899 224.28125 65.875 C 218.65646 65.54833 213.03669 65.58029 207.40625 65.4375 C 202.6295 65.33318 197.8398 65.29507 193.0625 65.25 C 187.52789 65.44452 182.00159 65.69977 176.46875 65.9375 C 171.20777 66.43044 165.94344 66.89383 160.6875 67.4375 C 155.96472 67.97345 151.241 68.45806 146.5625 69.3125 C 144.16879 69.70247 141.75536 70.08253 139.34375 70.34375 C 135.92322 70.79237 132.60994 71.71104 129.25 72.46875 C 124.26571 73.64085 119.2744 74.79872 114.3125 76.0625 C 112.02442 76.68841 109.70048 77.28104 107.46875 78.09375 C 106.42409 78.43864 105.40499 78.81622 104.4375 79.34375 C 103.35181 79.88216 102.25226 80.43233 101.21875 81.0625 C 100.32971 81.64974 99.955096 82.84828 100.34375 83.84375 C 100.63972 84.68827 101.28902 85.31692 102.09375 85.6875 C 102.87237 86.05379 103.78061 86.1483 104.625 86 C 109.3554 85.23516 114.05818 84.33896 118.78125 83.53125 C 121.98952 82.98987 125.17758 82.40989 128.40625 82 C 137.44473 80.73908 146.48631 79.46298 155.53125 78.25 C 159.5448 77.77888 163.56746 77.26002 167.59375 76.90625 C 172.22602 76.42583 176.85853 76.15543 181.5 75.78125 C 187.09327 75.35237 192.70821 74.91086 198.3125 74.65625 C 199.64622 74.62577 200.9804 74.58152 202.3125 74.6875 C 205.30188 74.79349 208.2975 74.97854 211.28125 75.1875 C 214.98805 75.42677 218.68666 75.64417 222.375 76.09375 C 225.53515 76.41643 228.67088 76.87728 231.8125 77.34375 C 237.09255 78.06378 242.36575 78.76314 247.625 79.625 C 249.78233 79.94683 251.93011 80.3222 254.0625 80.78125 C 256.88302 81.34301 259.63521 82.27449 262.40625 83.03125 C 266.70683 84.24904 270.94732 85.6237 275.21875 86.9375 C 278.21678 87.9039 281.18443 88.99767 284.125 90.125 C 286.55061 91.05846 288.92827 92.1159 291.28125 93.21875 C 293.44316 94.20765 295.57252 95.22975 297.65625 96.375 C 299.00743 97.13641 300.37369 97.8745 301.65625 98.75 C 303.50861 99.96742 305.35974 101.20209 307.15625 102.5 C 310.53661 105.0644 313.90575 107.67952 316.9375 110.65625 C 318.05945 111.85278 319.06642 113.12877 320.09375 114.40625 C 321.679 116.52951 323.1828 118.74058 324.40625 121.09375 C 324.94599 122.24488 325.4663 123.43092 325.8125 124.65625 C 326.15698 125.95402 326.44228 127.24088 326.6875 128.5625 C 327.03314 131.32741 327.34808 134.18282 326.75 136.9375 C 326.30227 138.88143 325.70331 140.77132 324.96875 142.625 C 324.19495 144.43541 323.11361 146.11551 321.8125 147.59375 C 320.61299 148.96173 319.6165 150.54222 318.125 151.625 C 315.81585 153.46584 313.41789 155.22537 310.90625 156.78125 C 308.91528 158.07887 306.73576 159.01606 304.59375 160.03125 C 301.52116 161.41932 298.38752 162.71506 295.1875 163.78125 C 290.62074 165.40732 285.8947 166.52323 281.21875 167.78125 C 276.28328 169.07713 271.32949 170.22861 266.34375 171.3125 C 263.14481 171.96734 259.9114 172.54655 256.6875 173.0625 C 250.15596 173.93458 243.62984 174.64746 237.0625 175.1875 C 231.79228 175.60824 226.49922 175.62767 221.21875 175.84375 C 214.5176 176.0774 207.79853 176.3229 201.09375 176.40625 C 197.56003 176.34931 194.02839 176.12346 190.5 175.9375 C 187.24014 175.72973 184.00391 175.54062 180.75 175.25 C 175.70314 174.88602 170.66272 174.44025 165.625 173.96875 C 161.61663 173.54835 157.58822 173.13222 153.59375 172.59375 C 149.29675 171.96603 144.98021 171.40874 140.71875 170.5625 C 137.42716 169.94809 134.14809 169.33247 130.875 168.625 C 128.56208 168.14581 126.23741 167.62959 123.96875 166.96875 C 120.02769 165.86608 116.21775 164.42999 112.375 163.03125 C 108.46128 161.57553 104.59977 159.94588 100.71875 158.40625 C 97.694858 157.06356 94.760866 155.52585 91.96875 153.75 C 89.83857 152.46365 87.776069 151.09324 85.8125 149.5625 C 82.364613 146.87311 79.015378 144.04038 75.8125 141.0625 C 74.563124 139.91733 73.443207 138.61595 72.53125 137.1875 C 71.227477 135.04386 70.273065 132.7299 69.34375 130.40625 C 68.481507 128.20086 67.767025 125.93228 67.375 123.59375 C 67.081331 122.12041 66.843802 120.63053 66.84375 119.125 C 66.819216 117.70576 67.204321 116.30302 67.40625 114.90625 C 67.897511 113.01114 68.368377 111.13601 69 109.28125 C 69.722787 107.07048 70.571587 104.88618 71.75 102.875 C 72.516384 101.4633 73.407133 100.1164 74.34375 98.8125 C 75.597009 96.94679 76.924806 95.12379 78.375 93.40625 C 80.251039 91.25384 82.316358 89.28726 84.375 87.3125 C 87.041932 84.90287 89.62524 82.37699 92.625 80.375 C 93.896955 79.45303 95.214369 78.60105 96.625 77.90625 C 100.22736 75.99034 103.81973 74.04137 107.53125 72.34375 C 109.13762 71.68117 110.76274 71.06384 112.4375 70.59375 C 115.81704 69.73195 119.21395 68.88563 122.625 68.15625 C 124.21539 67.8333 125.80854 67.47068 127.4375 67.4375 C 128.44183 67.3927 129.4412 67.49996 130.4375 67.3125 C 131.31794 67.18286 132.1462 66.76261 132.9375 66.375 C 134.24512 65.74806 135.38442 64.60721 135.6875 63.15625 C 135.90921 62.22596 135.73551 61.23798 135.34375 60.375 C 134.85846 59.45926 134.31257 58.55476 133.65625 57.75 C 132.96704 56.99262 132.08333 56.34961 131.0625 56.15625 C 130.00643 55.90117 128.92105 55.84923 127.84375 55.71875 C 125.99811 55.53276 124.13688 55.38721 122.28125 55.375 z "
       transform="translate(0,652.36218)"
       id="path4205" />
  </g>
</svg>
