<?xml version="1.0" encoding="UTF-8" standalone="no"?>
<!-- Created with Inkscape (http://www.inkscape.org/) -->

<svg
   xmlns:dc="http://purl.org/dc/elements/1.1/"
   xmlns:cc="http://creativecommons.org/ns#"
   xmlns:rdf="http://www.w3.org/1999/02/22-rdf-syntax-ns#"
   xmlns:svg="http://www.w3.org/2000/svg"
   xmlns="http://www.w3.org/2000/svg"
   xmlns:sodipodi="http://sodipodi.sourceforge.net/DTD/sodipodi-0.dtd"
   xmlns:inkscape="http://www.inkscape.org/namespaces/inkscape"
   width="400"
   height="400"
   id="svg4267"
   version="1.1"
   inkscape:version="0.48.0 r9654"
   sodipodi:docname="New document 30">
  <defs
     id="defs4269" />
  <sodipodi:namedview
     id="base"
     pagecolor="#ffffff"
     bordercolor="#666666"
     borderopacity="1.0"
     inkscape:pageopacity="0.0"
     inkscape:pageshadow="2"
     inkscape:zoom="2.0224351"
     inkscape:cx="335.60554"
     inkscape:cy="277.83054"
     inkscape:document-units="px"
     inkscape:current-layer="layer1"
     showgrid="false"
     inkscape:window-width="1680"
     inkscape:window-height="997"
     inkscape:window-x="0"
     inkscape:window-y="24"
     inkscape:window-maximized="1" />
  <metadata
     id="metadata4272">
    <rdf:RDF>
      <cc:Work
         rdf:about="">
        <dc:format>image/svg+xml</dc:format>
        <dc:type
           rdf:resource="http://purl.org/dc/dcmitype/StillImage" />
        <dc:title></dc:title>
      </cc:Work>
    </rdf:RDF>
  </metadata>
  <g
     inkscape:label="Layer 1"
     inkscape:groupmode="layer"
     id="layer1"
     transform="translate(0,-652.36218)">
    <path
       style="fill:#000000"
       d="M 307.21875 764.84375 C 303.16645 764.87935 299.11437 764.93127 295.0625 765 C 279.16667 765.95833 263.27083 766.91667 247.375 767.875 C 244.98958 767.95833 242.60417 768.04167 240.21875 768.125 C 238.89688 768.06353 237.57121 767.96494 236.25 768.09375 C 230.23958 768.52083 224.22917 768.94792 218.21875 769.375 C 216.7404 769.28556 215.26123 769.21264 213.78125 769.15625 C 211.34375 769.30208 208.90625 769.44792 206.46875 769.59375 C 199.56302 769.46452 192.65655 769.3825 185.75 769.3125 C 180.91271 769.39565 176.07591 769.51481 171.23782 769.54062 C 167.00869 769.59268 162.7782 769.58249 158.5505 769.71391 C 151.87742 769.95511 145.20433 770.1963 138.53125 770.4375 C 136.4483 770.40068 134.36458 770.36203 132.28631 770.20711 C 130.07381 770.06269 127.85931 769.94578 125.65179 769.7346 C 119.25744 769.18765 112.8631 768.6407 106.46875 768.09375 C 105.44219 768.00092 104.33001 768.10158 103.4807 768.73723 C 102.6616 769.41195 102.13198 770.47848 102.2666 771.55274 C 102.32444 772.59651 102.43204 773.64011 102.6875 774.65625 C 102.90033 775.62567 103.22877 776.67454 104.15676 777.1878 C 105.08006 777.74757 106.12848 778.05208 107.16012 778.34485 C 108.56261 778.72935 109.96022 779.1448 111.39898 779.37435 C 113.5567 779.78943 115.75236 779.93082 117.9375 780.125 C 122.37043 780.41009 126.80195 780.71791 131.23511 780.99862 C 136.82409 781.29919 142.41176 781.62351 148 781.9375 C 161.86458 781.4375 175.72917 780.9375 189.59375 780.4375 C 212.12343 779.09206 234.6527 777.73883 257.18263 776.39826 C 276.64259 775.54676 296.10254 774.69525 315.5625 773.84375 C 318.33333 773.63542 321.10417 773.42708 323.875 773.21875 C 324.83455 773.07396 325.66098 772.5036 326.375 771.875 C 327.2225 771.1221 328.02418 770.30443 328.68464 769.38071 C 329.25364 768.49017 329.02453 767.14154 328.16424 766.5071 C 327.47402 765.95555 326.57553 765.81688 325.71875 765.78125 C 324.48357 765.5854 323.23443 765.52479 321.98657 765.47415 C 317.66985 765.27202 313.35468 765.02596 309.03594 764.875 C 308.42882 764.89244 307.82486 764.7661 307.21875 764.84375 z M 353.625 770.46875 C 352.54003 770.697 351.56126 771.26943 350.62573 771.84837 C 344.69146 775.47305 338.7526 779.09027 332.8391 782.74881 C 331.16142 783.77718 329.49311 784.82142 327.80972 785.84015 C 320.69606 789.8726 313.58241 793.90505 306.46875 797.9375 C 294.95833 804.03125 283.44792 810.125 271.9375 816.21875 C 268.62306 818.35607 265.32094 820.51227 262.03125 822.6875 C 257.82292 825.45833 253.61458 828.22917 249.40625 831 C 245.85518 833.55413 242.31058 836.11748 238.75551 838.66592 C 233.60198 842.18514 228.48395 845.75587 223.33537 849.28229 C 219.82149 851.69572 216.31728 854.12336 212.7735 856.49288 C 210.14005 858.2766 207.49921 860.04925 204.83755 861.79066 C 203.61045 862.60002 202.38335 863.40939 201.15625 864.21875 C 200.27448 864.6572 199.36901 865.0911 198.375 865.1875 C 197.34404 865.15323 196.40443 864.66339 195.61056 864.03496 C 193.87131 862.76509 192.12484 861.50521 190.375 860.25 C 187.93872 858.25641 185.43469 856.34754 182.96605 854.39446 C 181.23962 853.03548 179.48687 851.70953 177.80388 850.2963 C 174.42594 847.53107 171.03516 844.78151 167.68084 841.98755 C 157.96711 833.95923 148.26567 825.91607 138.5625 817.875 C 136.87591 816.55623 135.2218 815.19506 133.48782 813.93814 C 129.54798 811.00985 125.61156 808.07655 121.64715 805.1817 C 116.03833 801.18895 110.43828 797.18368 104.82397 793.19876 C 101.18395 790.69575 97.554686 788.17645 93.907973 785.68358 C 91.751149 784.3203 89.594324 782.95703 87.4375 781.59375 C 83.657474 779.90301 79.886161 778.19225 76.100654 776.51409 C 73.942102 775.60315 71.783551 774.6922 69.625 773.78125 C 68.309462 773.30928 66.963477 772.93115 65.625 772.53125 C 64.65543 772.31064 63.574307 772.3529 62.754145 772.9764 C 61.892112 773.58883 61.550558 774.62386 61.228024 775.58114 C 60.954716 776.4962 60.7459 777.44047 60.690709 778.39579 C 60.671816 779.19203 61.009232 779.96585 61.5625 780.53125 C 62.293049 781.27985 63.199696 781.82197 64.060587 782.40497 C 66.754642 784.1061 69.472008 785.77063 72.1875 787.4375 C 77.827435 790.60603 83.517138 793.68482 89.171904 796.82668 C 91.291686 797.99904 93.411468 799.17139 95.53125 800.34375 C 96.448662 800.8969 97.31124 801.53065 98.15625 802.1875 C 101.63389 804.73728 105.12458 807.26951 108.59397 809.83041 C 113.87156 813.82218 119.16506 817.79297 124.4316 821.7993 C 126.60708 823.44732 128.71669 825.17999 130.88039 826.84339 C 133.61339 828.98902 136.37116 831.10313 139.1097 833.24141 C 154.33284 845.81703 169.56232 858.38498 184.78148 870.9654 C 186.61474 872.48735 188.44799 874.0093 190.28125 875.53125 C 191.19792 876.20833 192.11458 876.88542 193.03125 877.5625 C 193.72617 877.99556 194.60915 878.12433 195.39512 877.8894 C 196.33742 877.55557 197.22503 877.08321 198.11552 876.62974 C 199.3739 876.00164 200.63847 875.38321 201.84375 874.65625 C 203.47175 873.7147 205.12049 872.80979 206.75552 871.88087 C 209.85562 870.0779 212.93758 868.24391 216.04562 866.45452 C 217.93387 865.35022 219.83573 864.268 221.71547 863.14991 C 224.2171 861.50934 226.73309 859.89035 229.19842 858.19525 C 233.95756 854.96886 238.71351 851.73767 243.46047 848.4934 C 249.67846 844.21861 255.88905 839.9328 262.11728 835.67306 C 272.40805 828.85829 282.69213 822.03335 292.98708 815.22493 C 296.09671 813.19812 299.18858 811.142 302.34656 809.19115 C 305.52446 807.38462 308.70739 805.58705 311.90958 803.82384 C 313.9704 802.68309 316.04504 801.56749 318.09806 800.4126 C 322.53632 798.00835 326.91669 795.49938 331.32436 793.03988 C 334.29884 791.37945 337.27491 789.72185 340.25 788.0625 C 343.5625 786.46875 346.875 784.875 350.1875 783.28125 C 350.4866 784.22942 350.51572 785.23346 350.5625 786.21875 C 350.52937 787.59375 350.52946 788.96875 350.5625 790.34375 C 350.58924 798.17706 350.59966 806.01039 350.59375 813.84375 C 350.58199 815.50041 350.60208 817.15667 350.65625 818.8125 C 350.80832 826.07261 350.94365 833.33302 351.0625 840.59375 C 351.36458 857.11458 351.66667 873.63542 351.96875 890.15625 C 352.02922 892.15853 352.22079 894.15397 352.28125 896.15625 C 352.4805 898.77655 352.48855 901.40563 352.5625 904.03125 C 352.6875 910.82292 352.8125 917.61458 352.9375 924.40625 C 353.01281 926.02073 353.12883 927.63366 353.15625 929.25 C 353.04607 931.22839 352.95232 933.20756 352.875 935.1875 C 352.21231 935.96418 351.61484 936.89314 350.625 937.28125 C 349.78083 937.60776 348.86284 937.64018 347.96875 937.625 C 346.09375 937.69792 344.21875 937.77083 342.34375 937.84375 C 334.61535 937.46289 326.88618 937.09831 319.15625 936.75 C 311.15625 936.375 303.15625 936 295.15625 935.625 C 291.97026 935.76484 288.78128 935.81335 285.59375 935.90625 C 281.1869 935.76685 276.78065 935.61075 272.375 935.4375 C 269.54225 935.53886 266.70986 935.66524 263.875 935.6875 C 262.69925 935.7605 261.52133 935.82297 260.34375 935.75 C 252.59375 935.69792 244.84375 935.64583 237.09375 935.59375 C 235.99016 935.55836 234.88253 935.46951 233.78125 935.59375 C 220.89583 936.01042 208.01042 936.42708 195.125 936.84375 C 193.46043 936.97173 191.79538 937.10852 190.125 937.125 C 187.92787 937.21793 185.73158 937.37805 183.53125 937.34375 C 178.61477 937.39905 173.69792 937.36616 168.78125 937.375 C 167.64634 937.40973 166.50765 937.49875 165.375 937.375 C 162.76042 937.27083 160.14583 937.16667 157.53125 937.0625 C 155.98825 937.09218 154.44659 937.15484 152.90625 937.25 C 150.26243 937.31362 147.61789 937.38592 144.97359 937.39903 C 135.64979 937.0341 126.32654 936.65441 117.00239 936.2988 C 93.126594 935.45962 69.250797 934.62043 45.375 933.78125 C 44.514619 933.43176 43.540998 933.06696 43.084961 932.19155 C 42.709141 931.39336 42.637994 930.48081 42.604702 929.6082 C 42.523146 928.302 42.609787 926.99447 42.625 925.6875 C 42.685358 924.27338 42.778907 922.85994 42.75 921.44379 C 42.745333 918.85866 42.929304 916.27692 42.930607 913.69232 C 42.822117 910.8791 42.770681 908.06404 42.6875 905.25 C 42.959294 897.63282 43.335354 890.01999 43.6875 882.40625 C 44.690697 873.58035 45.708297 864.75603 46.702444 855.92913 C 47.054963 852.58979 47.419923 849.25161 47.764774 845.91154 C 48.263675 839.93352 48.69202 833.94997 49.165576 827.96994 C 49.710177 820.9103 50.268321 813.85161 50.80449 806.79138 C 51.21341 800.37133 51.62233 793.95129 52.03125 787.53125 C 52.15603 786.46443 52.263225 785.3932 52.5 784.34375 C 52.574343 783.37892 52.760268 782.37942 52.4375 781.4375 C 52.04483 780.62092 51.685582 779.76567 51.0625 779.09375 C 50.237237 778.25867 49.24898 777.60743 48.25 777 C 47.477478 776.60166 46.591795 776.39049 45.733111 776.62261 C 44.744334 776.88335 44.190741 777.86467 43.869607 778.76348 C 43.502153 779.92143 43.21535 781.10581 42.90625 782.28125 C 42.716201 783.84568 42.488436 785.4059 42.37247 786.97833 C 42.113269 789.92618 41.9644 792.88252 41.797575 795.83672 C 41.442125 802.27471 41.098359 808.71348 40.735645 815.15099 C 40.357099 819.95432 39.968563 824.7569 39.637854 829.56383 C 39.112412 836.83704 38.563556 844.10857 38.01263 851.37989 C 36.869486 866.24178 35.753161 881.10572 34.625 895.96875 C 34.532954 897.72615 34.403192 899.48212 34.33672 901.24055 C 34.168978 908.53312 33.949217 915.82447 33.782449 923.1171 C 33.683302 926.7603 33.641364 930.40495 33.541422 934.04802 C 33.550241 935.07981 33.581329 936.11588 33.662303 937.14496 C 33.804796 938.64206 34.059537 940.12617 34.1875 941.625 C 34.293001 942.57823 34.490722 943.61046 35.211651 944.30451 C 35.686519 944.91312 36.479834 945.17518 37.21875 945.28125 C 38.839355 945.41233 40.46414 945.51311 42.089005 945.55815 C 43.779281 945.53053 45.468235 945.46593 47.15625 945.375 C 53.061921 945.14062 58.968167 944.92176 64.875 944.71875 C 73.479167 945.02083 82.083333 945.32292 90.6875 945.625 C 92.081341 945.60436 93.476484 945.57204 94.86988 945.60624 C 97.311376 945.79006 99.757108 945.90688 102.20447 945.97443 C 109.39884 946.23622 116.59192 946.5333 123.78578 946.80901 C 129.14885 947.01851 134.51193 947.228 139.875 947.4375 C 148.03192 947.34979 156.18897 947.27692 164.34617 947.22156 C 168.2286 947.23312 172.11107 947.26093 175.9936 947.25 C 180.87957 947.25731 185.76573 947.31739 190.65155 947.24881 C 193.93122 947.22792 197.21141 947.21209 200.49031 947.14134 C 201.52169 947.09342 202.55248 947.04157 203.58433 947.0984 C 208.43999 947.16336 213.29597 947.21538 218.15142 947.28841 C 219.21336 947.34549 220.27666 947.36275 221.33905 947.31137 C 228.03854 947.27008 234.73802 947.22879 241.4375 947.1875 C 251.71561 946.77871 261.99338 946.36059 272.2717 945.95764 C 275.69888 945.85808 279.12567 945.74015 282.55309 945.65195 C 289.23465 945.5747 295.91607 945.48255 302.59805 945.44979 C 310.92992 945.39008 319.26185 945.3373 327.59375 945.28125 C 330.45696 945.40759 333.32113 945.53047 336.17684 945.78049 C 340.90956 946.17658 345.64228 946.57266 350.375 946.96875 C 351.39665 946.86778 352.4591 946.86445 353.42024 946.46464 C 354.32351 946.11958 355.24581 945.81788 356.09375 945.34375 C 356.91182 944.74612 357.59856 943.98462 358.18874 943.16502 C 358.87977 942.03208 359.34073 940.77696 359.6875 939.5 C 359.90962 938.39056 360.18627 937.29059 360.30752 936.16364 C 360.49694 934.82349 360.69475 933.48323 360.76318 932.13017 C 360.91961 929.96596 361.09874 927.80246 361.14313 925.63213 C 361.27351 921.6857 361.42671 917.7399 361.49868 913.79181 C 361.53012 911.86497 361.62835 909.93836 361.56764 908.01119 C 361.53958 904.93122 361.64326 901.852 361.68076 898.77245 C 361.75085 894.95269 361.80754 891.13274 361.84375 887.3125 C 361.66211 884.43638 361.46417 881.56138 361.25 878.6875 C 361.18627 877.69786 361.18152 876.70835 361.25 875.71875 C 361.323 874.543 361.38547 873.36508 361.3125 872.1875 C 361.25 865.96875 361.1875 859.75 361.125 853.53125 C 360.91372 850.12625 360.91751 846.71334 360.86617 843.30347 C 360.76495 834.99398 360.66372 826.68449 360.5625 818.375 C 360.29167 811.9375 360.02083 805.5 359.75 799.0625 C 359.56798 798.09072 359.79028 797.10348 359.75 796.125 C 359.86458 792.27083 359.97917 788.41667 360.09375 784.5625 C 360.00303 782.99763 359.96825 781.42544 359.71875 779.875 C 359.54695 778.50975 359.40726 777.14 359.1875 775.78125 C 358.85182 774.88536 358.66444 773.93147 358.19371 773.08951 C 357.74868 772.33474 357.05642 771.7422 356.27278 771.35617 C 355.45808 770.97507 354.6385 770.34163 353.6936 770.46017 L 353.625 770.46875 z "
       id="path4452"
       inkscape:connector-curvature="0" />
  </g>
</svg>
