<?xml version="1.0" encoding="UTF-8" standalone="no"?>
<!-- Created with Inkscape (http://www.inkscape.org/) -->

<svg
   xmlns:dc="http://purl.org/dc/elements/1.1/"
   xmlns:cc="http://creativecommons.org/ns#"
   xmlns:rdf="http://www.w3.org/1999/02/22-rdf-syntax-ns#"
   xmlns:svg="http://www.w3.org/2000/svg"
   xmlns="http://www.w3.org/2000/svg"
   xmlns:sodipodi="http://sodipodi.sourceforge.net/DTD/sodipodi-0.dtd"
   xmlns:inkscape="http://www.inkscape.org/namespaces/inkscape"
   width="400"
   height="400"
   id="svg4267"
   version="1.1"
   inkscape:version="0.48.0 r9654"
   sodipodi:docname="envelope.svg">
  <defs
     id="defs4269" />
  <sodipodi:namedview
     id="base"
     pagecolor="#ffffff"
     bordercolor="#666666"
     borderopacity="1.0"
     inkscape:pageopacity="0.0"
     inkscape:pageshadow="2"
     inkscape:zoom="1.4068914"
     inkscape:cx="306.19828"
     inkscape:cy="279.22437"
     inkscape:document-units="px"
     inkscape:current-layer="layer1"
     showgrid="false"
     inkscape:window-width="1680"
     inkscape:window-height="997"
     inkscape:window-x="0"
     inkscape:window-y="24"
     inkscape:window-maximized="1" />
  <metadata
     id="metadata4272">
    <rdf:RDF>
      <cc:Work
         rdf:about="">
        <dc:format>image/svg+xml</dc:format>
        <dc:type
           rdf:resource="http://purl.org/dc/dcmitype/StillImage" />
        <dc:title></dc:title>
      </cc:Work>
    </rdf:RDF>
  </metadata>
  <g
     inkscape:label="Layer 1"
     inkscape:groupmode="layer"
     id="layer1"
     transform="translate(0,-652.36218)">
    <path
       style="fill:#000000"
       d="M 134.1875 730.3125 C 127.38542 730.91667 120.58333 731.52083 113.78125 732.125 C 101.05208 733.9375 88.322917 735.75 75.59375 737.5625 C 72.010417 738.20833 68.427083 738.85417 64.84375 739.5 C 61.854167 740.15625 58.864583 740.8125 55.875 741.46875 C 54.78597 741.74898 53.692075 742.00879 52.59375 742.25 C 50.083333 742.65625 47.572917 743.0625 45.0625 743.46875 C 43.784826 743.72745 42.503472 743.96648 41.21875 744.1875 C 37.875161 744.78215 34.530187 745.36908 31.1875 745.96875 C 30.126523 746.19537 29.079467 746.49738 28.067857 746.88843 C 27.206572 747.22838 26.411208 747.73508 25.74188 748.37529 C 24.934362 749.05708 24.306898 749.90577 23.680834 750.74884 C 23.022346 751.58408 22.426021 752.46462 21.815588 753.33487 C 21.203994 754.22659 20.577612 755.11206 20.081137 756.07521 C 19.612688 756.96255 19.451221 757.97082 19.331439 758.95676 C 19.215262 759.85193 19.168867 760.76308 19.364259 761.6504 C 19.867839 766.11069 20.37142 770.57097 20.875 775.03125 C 21.061816 776.047 21.118884 777.08092 21.303027 778.09704 C 21.454339 779.1581 21.600608 780.21991 21.75 781.28125 C 22.043411 782.7325 22.339694 784.18412 22.720304 785.61551 C 23.147857 787.33738 23.636741 789.04322 24.116475 790.75109 C 26.155336 797.95589 28.175767 805.16588 30.217603 812.36985 C 31.239418 815.97371 32.24937 819.58099 33.278645 823.18271 C 35.370614 830.34664 37.458135 837.51189 39.552879 844.67499 C 42.012755 852.80993 44.466461 860.94678 46.930188 869.08053 C 47.312777 870.26764 47.677121 871.46037 48.03125 872.65625 C 48.413572 873.78059 48.805888 874.90136 49.225026 876.01257 C 49.646409 877.18301 50.053015 878.35878 50.46875 879.53125 C 50.894772 880.52131 51.267838 881.53504 51.75 882.5 C 54.916667 888.96875 58.083333 895.4375 61.25 901.90625 C 62.468268 904.22942 63.690999 906.55025 64.90625 908.875 C 65.435638 909.77707 65.998213 910.66224 66.625 911.5 C 67.296673 912.2896 67.92651 913.1162 68.65667 913.85407 C 70.066359 915.35981 71.481208 916.86096 72.910514 918.34801 C 73.706891 919.14525 74.502466 919.94413 75.323553 920.71585 C 76.152984 921.44778 76.95905 922.20731 77.799732 922.92578 C 78.577724 923.58158 79.419105 924.15026 80.279227 924.69189 C 81.13377 925.21763 81.894923 925.87962 82.75 926.40625 C 84.093913 927.344 85.428371 928.29574 86.778192 929.22475 C 87.669267 929.80832 88.552959 930.41541 89.541421 930.82565 C 90.455011 931.26622 91.427255 931.56625 92.395637 931.85864 C 93.293949 932.12408 94.222591 932.2578 95.15625 932.3125 C 96.161598 932.34807 97.157862 932.18429 98.15625 932.09375 C 99.172088 931.96397 100.20051 931.88341 101.1875 931.59375 C 102.22672 931.33038 103.20566 930.89012 104.1875 930.46875 C 105.08623 930.01429 105.82981 929.32498 106.625 928.71875 C 107.43381 928.09483 108.09005 927.30782 108.78125 926.5625 C 111.625 922.75 114.46875 918.9375 117.3125 915.125 C 117.89411 914.29325 118.31136 913.36458 118.78125 912.46875 C 119.21916 911.44627 119.67363 910.42935 120.03125 909.375 C 120.30543 908.37074 120.58698 907.36735 120.78125 906.34375 C 121.2397 904.30991 121.62261 902.26028 122.03777 900.21739 C 122.42101 898.30118 122.80426 896.38496 123.1875 894.46875 C 123.57292 891.9375 123.95833 889.40625 124.34375 886.875 C 124.57292 884.94792 124.80208 883.02083 125.03125 881.09375 C 125.13238 880.04136 125.14704 878.97855 125.34375 877.9375 C 125.50332 876.84771 125.62733 875.75384 125.71875 874.65625 C 125.83453 873.55909 125.91831 872.45951 125.96798 871.35737 C 126.37704 864.80235 126.79081 858.24762 127.19729 851.69246 C 127.60483 844.11961 128.00722 836.54647 128.41797 828.97382 C 128.56016 826.69164 128.71365 824.4101 128.8917 822.13046 C 129.0963 819.96397 129.28465 817.79607 129.45827 815.62688 C 129.60659 814.66251 129.72721 813.4778 130.67452 812.94658 C 131.57252 812.50626 132.48841 812.10137 133.4372 811.78136 C 134.505 811.53116 135.57505 811.29165 136.65559 811.1025 C 138.04014 810.8521 139.43153 810.64018 140.8187 810.40455 C 141.90507 810.21833 143.00982 810.17182 144.10407 810.04544 C 156.94078 808.79043 169.77705 807.53072 182.61404 806.27865 C 192.3103 805.37897 202.0059 804.47212 211.70256 803.57692 C 228.56884 802.09153 245.43553 800.61074 262.30155 799.12248 C 270.94753 798.32198 279.59293 797.51514 288.23926 796.7186 C 306.97201 795.10407 325.70475 793.48953 344.4375 791.875 C 345.72917 791.8125 347.02083 791.75 348.3125 791.6875 C 349.24473 791.69299 350.29136 791.77554 350.96875 792.5 C 351.6378 793.18733 351.98102 794.14378 352 795.09375 C 352.14236 796.18923 352.23708 797.28876 352.28048 798.39263 C 352.66645 806.84507 353.05178 815.29755 353.4375 823.75 C 353.46268 824.84645 353.36948 825.93953 353.28125 827.03125 C 352.83333 832.41667 352.38542 837.80208 351.9375 843.1875 C 350.82292 850.80208 349.70833 858.41667 348.59375 866.03125 C 346.66667 874.85417 344.73958 883.67708 342.8125 892.5 C 341 900.04167 339.1875 907.58333 337.375 915.125 C 336.27083 919.35417 335.16667 923.58333 334.0625 927.8125 C 333.71269 928.74905 333.44478 929.72512 332.9375 930.59375 C 332.46798 931.43403 332.12848 932.4345 331.26298 932.95967 C 330.40483 933.42257 329.49942 933.79191 328.5625 934.0625 C 327.62758 934.39188 326.64239 934.53506 325.65625 934.59375 C 308.34538 935.6592 291.0347 936.72784 273.72372 937.79129 C 270.44398 937.96884 267.16482 938.15794 263.88472 938.32821 C 248.98565 938.9688 234.08657 939.6094 219.1875 940.25 C 217.9698 940.34044 216.75102 940.4128 215.53125 940.46875 C 208.3125 941.125 201.09375 941.78125 193.875 942.4375 C 191.85417 942.66667 189.83333 942.89583 187.8125 943.125 C 185.82292 943.47917 183.83333 943.83333 181.84375 944.1875 C 180.83489 944.37039 179.85462 944.67184 178.875 944.96875 C 177.59375 945.3125 176.3125 945.65625 175.03125 946 C 173.9847 946.32894 172.94309 946.67287 171.90625 947.03125 C 170.98505 947.39111 170.08474 947.81064 169.25 948.34375 C 168.67262 949.1046 168.58428 950.29801 169.25 951.03125 C 169.7426 951.63667 170.4594 951.95938 171.18095 952.20396 C 172.09195 952.51476 172.99145 952.87991 173.94314 953.04935 C 174.9259 953.25808 175.93038 953.32439 176.92588 953.44663 C 178.15371 953.58417 179.3901 953.62044 180.62222 953.70483 C 181.97665 953.78025 183.32849 953.89832 184.68268 953.97564 C 186.52786 954.04816 188.3732 954.11612 190.21948 954.15395 C 194.83218 954.27248 199.4451 954.38448 204.05767 954.50707 C 206.88994 954.61982 209.72243 954.72675 212.55568 954.81208 C 217.67254 954.97861 222.78939 955.14573 227.90625 955.3125 C 229.80199 955.28567 231.69783 955.27528 233.59375 955.28125 C 241.59217 955.23764 249.59066 955.20052 257.58903 955.15287 C 258.65359 955.1403 259.71756 955.10639 260.78125 955.0625 C 263.06711 955.04001 265.35299 955.02409 267.63897 955.03125 C 275.60149 955.02104 283.56405 955.01285 291.52654 954.99759 C 293.10966 954.97408 294.69331 954.95514 296.27642 954.97591 C 297.34921 955.00501 298.42241 955.1061 299.49504 955.02138 C 300.97506 954.93478 302.456 954.86774 303.9375 954.8125 C 305.1875 954.75 306.4375 954.6875 307.6875 954.625 C 312.65527 954.13872 317.62423 953.66443 322.59121 953.17028 C 324.13152 953.01069 325.67314 952.86268 327.21265 952.69608 C 328.28673 952.56865 329.36039 952.42318 330.41977 952.20358 C 331.43573 951.99512 332.44703 951.76548 333.43042 951.43247 C 334.45738 951.13386 335.46408 950.77214 336.46734 950.40287 C 337.5127 950.01295 338.56433 949.6187 339.54352 949.08034 C 340.42825 948.61463 341.2891 948.107 342.11607 947.54487 C 342.91898 946.957 343.6935 946.32444 344.43996 945.66557 C 345.23967 944.95815 346.05019 944.2487 346.68175 943.38062 C 347.35255 942.51778 347.97839 941.62045 348.59963 940.72173 C 349.17338 939.87454 349.59053 938.93475 350.04363 938.02073 C 350.48799 937.05437 350.90599 936.07655 351.3125 935.09375 C 351.76056 934.09351 352.0725 933.04178 352.40625 932 C 352.81865 930.99338 353.03555 929.92308 353.34178 928.88218 C 353.97573 926.60612 354.57217 924.31998 355.16266 922.03233 C 357.10556 914.52139 359.06066 907.01359 360.995 899.50044 C 362.27797 894.51698 363.54731 889.52993 364.86082 884.55441 C 365.2718 883.01544 365.68277 881.47647 366.09375 879.9375 C 366.35304 878.84807 366.59201 877.75418 366.8125 876.65625 C 367.84102 871.56881 368.88874 866.48523 369.88885 861.39209 C 370.34264 859.08127 370.8135 856.77372 371.25624 854.46077 C 371.80624 851.49468 372.35625 848.52859 372.90625 845.5625 C 372.99693 844.56629 373.27119 843.59528 373.3125 842.59375 C 373.45325 841.53323 373.62671 840.47549 373.6875 839.40625 C 373.88599 837.73335 374.03481 836.05515 374.15625 834.375 C 374.25722 833.24076 374.38955 832.10873 374.47578 830.97358 C 374.64561 826.59718 374.80236 822.22028 374.96875 817.84375 C 374.96875 816.01042 374.96875 814.17708 374.96875 812.34375 C 375.04863 811.31876 374.90658 810.29465 374.9375 809.26877 C 374.91242 808.15849 374.8994 807.04809 374.90625 805.9375 C 374.83216 804.10582 374.74995 802.27453 374.64531 800.44431 C 374.48854 796.90799 374.35155 793.37072 374.20234 789.83404 C 374.17847 788.73034 374.06308 787.63227 373.97736 786.53237 C 373.84949 784.9695 373.72162 783.40662 373.59375 781.84375 C 373.46397 780.82791 373.38341 779.79949 373.09375 778.8125 C 372.73938 777.89711 371.87669 777.26953 370.9689 776.9688 C 370.06011 776.59707 369.08722 776.43381 368.14015 776.19112 C 366.37837 775.83775 364.62141 775.45469 362.84375 775.1875 C 361.05313 775.05662 359.26146 774.94204 357.46875 774.84375 C 356.48288 774.7493 355.48587 774.74924 354.5 774.84375 C 349.20833 775.08333 343.91667 775.32292 338.625 775.5625 C 328.76042 776.30208 318.89583 777.04167 309.03125 777.78125 C 308.7196 777.83832 308.39516 777.83176 308.09375 777.9375 C 307.4332 777.74426 306.76097 778.03809 306.09375 778.03125 C 305.72996 777.95184 305.66967 777.41306 305.96875 777.21875 C 306.58824 776.35766 307.30761 775.56303 307.8125 774.625 C 308.29885 773.70148 308.7919 772.77973 309.1875 771.8125 C 309.59123 770.91648 309.83398 769.95976 310.03125 769 C 310.28984 767.70141 310.5289 766.39924 310.75 765.09375 C 310.84051 763.79265 310.91284 762.49054 310.96875 761.1875 C 310.95863 760.13778 310.81071 759.09867 310.65625 758.0625 C 310.40625 756.05208 310.15625 754.04167 309.90625 752.03125 C 309.65798 751.02228 309.41499 750.01022 309.0625 749.03125 C 308.69205 748.04783 308.3211 747.06288 307.84375 746.125 C 307.26714 745.25438 306.53021 744.49891 305.7241 743.83892 C 304.8906 743.2419 303.82704 743.15823 302.86168 742.89019 C 301.75759 742.66323 300.66576 742.37173 299.55222 742.1946 C 298.52635 742.0357 297.48829 741.96348 296.45198 741.91642 C 295.42712 741.86003 294.40607 741.9844 293.38598 742.06538 C 287.3301 742.63266 281.27419 743.20026 275.22119 743.79755 C 273.04545 744.01956 270.86857 744.23131 268.69353 744.45959 C 266.3703 744.74789 264.04524 745.02062 261.71875 745.28125 C 251.67211 746.12753 241.62612 746.98163 231.57907 747.8229 C 214.72301 749.21594 197.86659 750.60475 181.01076 752.00042 C 179.21551 752.15653 177.42025 752.31264 175.625 752.46875 C 174.68314 752.71268 173.63415 752.50437 172.90625 751.84375 C 172.14495 751.22816 171.8353 750.258 171.49662 749.37641 C 171.04642 748.2004 170.60397 747.02085 170.10832 745.86298 C 169.02784 743.28041 167.93109 740.70468 166.84375 738.125 C 166.37171 737.25829 165.98348 736.32147 165.28835 735.60174 C 164.64397 734.90734 163.75251 734.55955 162.90699 734.17931 C 162.0184 733.76632 161.10645 733.39797 160.1453 733.19258 C 159.11825 732.94597 158.09128 732.696 157.05628 732.4847 C 155.4495 732.16845 153.8511 731.81216 152.25 731.46875 C 151.23045 731.26502 150.19197 731.21088 149.15625 731.15625 C 146.05693 730.94003 142.95731 730.72814 139.85596 730.54284 C 138.72833 730.48063 137.60167 730.38688 136.47344 730.34375 C 135.71015 730.3665 134.94979 730.23283 134.1875 730.3125 z M 141.65625 745.25 C 142.74293 745.3303 143.83198 745.40278 144.90625 745.59375 C 145.89008 746.01626 147.02307 746.16703 147.84375 746.90625 C 148.50298 747.5364 148.8852 748.37036 149.375 749.125 C 150.07292 750.27083 150.77083 751.41667 151.46875 752.5625 C 152.90625 755.26042 154.34375 757.95833 155.78125 760.65625 C 156.40625 761.64583 157.03125 762.63542 157.65625 763.625 C 158.29051 764.45464 158.87816 765.3269 159.625 766.0625 C 160.34439 766.76174 161.2091 767.2783 162.03125 767.84375 C 162.98897 768.20764 164.0255 768.22556 165.03125 768.34375 C 167.3125 768.51042 169.59375 768.67708 171.875 768.84375 C 172.95827 768.85235 174.04502 768.93016 175.125 768.8125 C 184.49815 767.97321 193.87042 767.12414 203.24455 766.29587 C 213.67345 765.34308 224.10235 764.39029 234.53125 763.4375 C 236.00673 763.32557 237.48399 763.23478 238.95594 763.08082 C 241.88664 762.80171 244.82143 762.56777 247.75395 762.30872 C 259.32555 761.30998 270.89715 760.31124 282.46875 759.3125 C 283.49627 759.19677 284.52691 759.09349 285.5625 759.125 C 286.44677 759.23537 287.3927 759.3077 288.15625 759.8125 C 288.86416 760.36554 289.31971 761.18245 289.76252 761.94796 C 290.20186 762.96144 290.72902 763.93715 291.12838 764.96734 C 291.52687 766.01406 291.98554 767.03694 292.40847 768.07398 C 293.21405 769.98944 293.9936 771.91614 294.84375 773.8125 C 295.5625 775.44792 296.28125 777.08333 297 778.71875 C 296.68168 778.90244 296.36429 779.16603 295.96875 779.09375 C 294.97052 779.22284 293.99442 779.4822 292.99602 779.61119 C 291.92255 779.85655 290.81766 779.87202 289.72602 779.98509 C 287.97015 780.1274 286.21698 780.29874 284.46441 780.47663 C 279.43476 780.97198 274.40246 781.44006 269.3717 781.92407 C 264.93379 782.3441 260.49767 782.78339 256.05697 783.17336 C 253.13393 783.43082 250.21335 783.71717 247.28727 783.93876 C 233.70534 785.01961 220.12382 786.10575 206.54164 787.18331 C 192.64572 788.21335 178.75014 789.24822 164.85401 790.27525 C 156.85059 790.82933 148.84717 791.38342 140.84375 791.9375 C 137.67708 792.22917 134.51042 792.52083 131.34375 792.8125 C 130.30694 792.9302 129.26925 793.05153 128.25 793.28125 C 127.26381 793.49631 126.341 793.91266 125.40625 794.28125 C 124.39966 794.66848 123.45475 795.1906 122.5 795.6875 C 121.62857 796.20146 120.75359 796.71236 119.9375 797.3125 C 119.01042 798.08333 118.08333 798.85417 117.15625 799.625 C 116.42214 800.28805 115.74235 801.00829 115.125 801.78125 C 114.39038 802.59533 113.78151 803.50856 113.15625 804.40625 C 112.63318 805.26325 112.21899 806.17765 111.8125 807.09375 C 111.37875 808.02099 111.10211 809.00961 110.75 809.96875 C 110.50441 810.93924 110.21668 811.90759 110.18927 812.9162 C 109.86941 817.4304 109.54108 821.94405 109.22756 826.45867 C 108.56838 837.18078 107.90919 847.90289 107.25 858.625 C 106.91667 862.34375 106.58333 866.0625 106.25 869.78125 C 105.94871 872.17477 105.6556 874.56939 105.34934 876.96225 C 104.38914 883.73525 103.42895 890.50825 102.46875 897.28125 C 102.21328 898.5282 101.97366 899.7782 101.75 901.03125 C 101.35417 902.67708 100.95833 904.32292 100.5625 905.96875 C 100.26164 907.01078 100.00025 908.06465 99.65625 909.09375 C 99.167367 909.9972 98.744909 911.02419 97.8125 911.5625 C 96.945405 911.99437 95.827782 911.84758 95.115429 911.18467 C 94.276577 910.56314 93.465597 909.90484 92.677234 909.22078 C 91.576489 908.2201 90.475745 907.21943 89.375 906.21875 C 88.627991 905.52082 88.031456 904.68557 87.375 903.90625 C 86.695968 903.01373 86.032858 902.10958 85.390281 901.19043 C 84.385463 899.78301 83.380047 898.37601 82.375 896.96875 C 80.989743 894.81215 79.596987 892.66028 78.216334 890.50078 C 77.595171 889.48808 76.958772 888.48445 76.346802 887.46628 C 75.959977 886.7307 75.496122 886.0362 75.129958 885.29216 C 74.458197 883.84857 73.754285 882.42001 73.0702 880.98219 C 72.562519 879.99521 72.128403 878.97716 71.776862 877.92423 C 70.226241 873.69949 68.675621 869.47474 67.125 865.25 C 60.067622 842.15457 53.01398 819.05799 45.954268 795.96327 C 45.209096 793.55885 44.463923 791.15442 43.71875 788.75 C 43.359053 787.28938 42.911689 785.85262 42.5 784.40625 C 42.119604 782.40913 41.754985 780.40914 41.40625 778.40625 C 40.96875 775.97917 40.53125 773.55208 40.09375 771.125 C 39.918662 769.99218 39.763085 768.85667 39.625 767.71875 C 39.575924 766.72442 39.343703 765.74753 39.34375 764.75 C 39.264518 763.7747 39.77048 762.82209 40.492013 762.1946 C 40.862025 761.86736 41.349085 761.72656 41.78125 761.5 C 42.828379 761.19103 43.867374 760.84798 44.9375 760.625 C 48.791667 759.65625 52.645833 758.6875 56.5 757.71875 C 58.190744 757.39093 59.878226 757.04709 61.5625 756.6875 C 63.559317 756.26558 65.559308 755.85928 67.5625 755.46875 C 79.958333 753.02083 92.354167 750.57292 104.75 748.125 C 105.83745 747.9388 106.93135 747.80454 108.03125 747.71875 C 109.50914 747.58771 110.98831 747.47312 112.46875 747.375 C 121.39583 746.69792 130.32292 746.02083 139.25 745.34375 C 140.05194 745.31033 140.85308 745.23555 141.65625 745.25 z M 181.375 807.5 L 181.375 807.625 L 181.4375 807.65625 C 181.3752 807.5726 181.59058 807.4892 181.4375 807.46875 L 181.375 807.5 z "
       id="path4535"
       inkscape:connector-curvature="0" />
  </g>
</svg>
