<?xml version="1.0" encoding="UTF-8" standalone="no"?>
<!-- Created with Inkscape (http://www.inkscape.org/) -->

<svg
   xmlns:dc="http://purl.org/dc/elements/1.1/"
   xmlns:cc="http://creativecommons.org/ns#"
   xmlns:rdf="http://www.w3.org/1999/02/22-rdf-syntax-ns#"
   xmlns:svg="http://www.w3.org/2000/svg"
   xmlns="http://www.w3.org/2000/svg"
   xmlns:sodipodi="http://sodipodi.sourceforge.net/DTD/sodipodi-0.dtd"
   xmlns:inkscape="http://www.inkscape.org/namespaces/inkscape"
   width="400"
   height="400"
   id="svg2"
   version="1.1"
   inkscape:version="0.48.0 r9654"
   sodipodi:docname="New document 1">
  <defs
     id="defs4" />
  <sodipodi:namedview
     id="base"
     pagecolor="#ffffff"
     bordercolor="#666666"
     borderopacity="1.0"
     inkscape:pageopacity="0.0"
     inkscape:pageshadow="2"
     inkscape:zoom="1.4652043"
     inkscape:cx="91.753415"
     inkscape:cy="197.47588"
     inkscape:document-units="px"
     inkscape:current-layer="layer1"
     showgrid="false"
     inkscape:window-width="1680"
     inkscape:window-height="997"
     inkscape:window-x="0"
     inkscape:window-y="24"
     inkscape:window-maximized="1" />
  <metadata
     id="metadata7">
    <rdf:RDF>
      <cc:Work
         rdf:about="">
        <dc:format>image/svg+xml</dc:format>
        <dc:type
           rdf:resource="http://purl.org/dc/dcmitype/StillImage" />
        <dc:title></dc:title>
      </cc:Work>
    </rdf:RDF>
  </metadata>
  <g
     inkscape:label="Layer 1"
     inkscape:groupmode="layer"
     id="layer1"
     transform="translate(0,-652.36218)">
    <path
       style="fill:#000000"
       d="M 181.84375 699.03125 C 178.60615 699.56166 175.40723 700.2893 172.22512 701.08274 C 169.58854 701.76203 166.95923 702.47636 164.34393 703.2336 C 159.05686 704.80738 153.78918 706.45747 148.63027 708.41654 C 144.21533 710.01496 139.83172 711.70021 135.41722 713.29843 C 132.85781 714.16658 130.32713 715.1201 127.73987 715.90659 C 125.39726 716.64898 123.03406 717.35163 120.74431 718.24107 C 118.8667 719.13873 117.53189 720.85182 116.55524 722.63952 C 115.75613 724.21049 115.24339 726.06351 115.75603 727.80396 C 116.23223 729.96038 116.97312 732.0465 117.5264 734.18336 C 118.63637 738.04548 119.76058 741.9041 120.7933 745.78747 C 121.43259 747.62079 121.57375 749.67227 122.70343 751.3025 C 123.40024 752.29068 124.50819 753.09529 125.76655 753.02609 C 127.42631 753.00612 129.06086 752.66767 130.71128 752.53073 C 132.13164 752.33171 133.61825 751.60164 134.24836 750.24835 C 135.17713 748.69892 135.4509 746.84937 135.42448 745.06766 C 135.18588 741.35054 134.2168 737.73762 133.4667 734.10302 C 133.18613 732.8291 132.90557 731.55517 132.625 730.28125 C 132.54323 728.88203 133.50849 727.53857 134.8125 727.0625 C 138.63793 725.41194 142.5331 723.93119 146.41864 722.42988 C 152.73143 720.10638 158.99121 717.64287 165.26641 715.22119 C 169.00798 713.90064 172.85084 712.8514 176.75253 712.12979 C 178.43916 711.85077 180.13354 711.61406 181.83693 711.4722 C 182.99603 711.25726 184.34032 711.05941 185.33626 711.85625 C 186.6038 712.87156 187.08153 714.4958 187.8493 715.86664 C 189.01241 718.21793 190.18274 720.57763 191.70891 722.7206 C 192.82458 724.08131 194.61316 724.60508 196.30627 724.74239 C 197.97445 724.95411 199.66921 724.79367 201.33551 724.65165 C 202.79066 724.39072 204.38979 723.76454 205.04607 722.33312 C 205.58162 721.3646 205.69194 720.17461 205.44219 719.10782 C 204.96591 717.49602 204.47019 715.88992 203.83278 714.33262 C 202.77034 711.7664 201.75363 709.17894 200.5324 706.68212 C 199.61229 704.69517 198.52084 702.76304 197.09375 701.09375 C 195.8482 699.92262 194.16194 699.41767 192.51773 699.10983 C 190.41099 698.76151 188.26844 698.6202 186.13439 698.5625 C 185.01576 698.48917 183.91659 698.64822 182.82235 698.86632 C 182.49615 698.92129 182.16995 698.97627 181.84375 699.03125 z M 257.53125 703.09375 C 256.26943 703.47999 255.21103 704.31172 254.37992 705.31938 C 252.68463 707.12863 251.4044 709.27615 250.34123 711.50504 C 249.44784 713.4151 248.69258 715.39037 247.9402 717.36025 C 247.29381 719.19537 246.78802 721.09143 246.59375 723.03125 C 246.60047 724.64189 247.00909 726.35267 248.21884 727.49384 C 249.69119 729.07149 251.86473 729.73512 253.9375 730.0625 C 254.99612 730.24865 256.26951 730.16582 256.99973 729.27261 C 258.2469 727.92669 258.96082 726.1996 259.98758 724.69488 C 260.998 723.14517 261.89619 721.52339 262.86223 719.94945 C 263.49052 719.10227 264.62972 718.74842 265.64436 718.98022 C 266.97398 719.15577 268.20516 719.73632 269.52015 719.98548 C 275.43989 721.57243 281.30293 723.36133 287.184 725.08415 C 289.92072 725.88908 292.64663 726.72989 295.375 727.5625 C 296.36806 728.00659 296.98927 728.98557 297.28125 730 C 297.34014 731.44404 296.72192 732.79104 296.39881 734.17352 C 295.32139 738.27666 293.84594 742.27244 293.00096 746.43607 C 292.62767 748.2098 292.2991 750.02569 292.4375 751.84375 C 292.68094 753.13799 293.8554 754.18216 295.1815 754.20928 C 296.98343 754.44543 298.83932 754.08332 300.5 753.375 C 302.19025 752.66388 303.57256 751.3367 304.48193 749.75607 C 305.17509 748.63723 305.5953 747.37874 306.20884 746.21597 C 308.67781 741.01965 311.00825 735.75853 313.384 730.51926 C 314.23571 728.65424 314.82925 726.61052 314.63271 724.54139 C 314.50302 722.74249 314.01314 720.9839 313.4375 719.28125 C 313.04705 718.10885 312.48624 716.89398 311.39316 716.22062 C 310.69504 715.67804 309.89849 715.20797 309 715.125 C 301.06775 713.20979 293.055 711.63981 285.14691 709.62389 C 282.9231 709.05444 280.72536 708.39481 278.55368 707.65175 C 275.07443 706.54919 271.61986 705.3531 268.06251 704.52004 C 264.86566 703.7165 261.58871 703.12273 258.28604 703.06859 C 258.03445 703.07698 257.78285 703.08536 257.53125 703.09375 z M 210.28125 729.0625 C 203.90625 729.61458 197.53125 730.16667 191.15625 730.71875 C 183.51939 733.96193 175.89443 737.23287 168.28125 740.53125 C 165.70486 741.51876 163.14457 742.55558 160.65625 743.75 C 159.7731 744.35475 160.02497 746.02919 161.125 746.21875 C 165.78169 746.50409 170.39496 745.63731 175.03125 745.375 C 180.65822 744.69478 186.26944 743.88169 191.90419 743.26886 C 196.55897 742.79244 201.22339 742.36501 205.90396 742.27057 C 211.31909 742.18238 216.73893 742.44958 222.12435 743.01985 C 226.09596 743.41281 230.07475 743.92184 233.92754 744.99449 C 238.69464 746.20308 243.44751 747.48906 248.08738 749.12794 C 251.83486 750.41016 255.52211 751.86129 259.21105 753.30027 C 263.97216 755.26746 268.50574 757.7232 273.03623 760.1623 C 275.11946 761.20102 277.07571 762.46843 278.94055 763.85787 C 282.12005 766.14177 285.07795 768.71122 287.95844 771.35732 C 289.9739 773.17043 291.97361 775.00129 293.858 776.95175 C 297.41296 780.52417 300.97912 784.12403 303.92342 788.23123 C 306.01693 791.14823 308.00271 794.14717 309.71841 797.30432 C 310.70985 799.01121 311.53507 800.80265 312.30609 802.61767 C 313.62536 805.64434 314.73272 808.75849 315.90614 811.84345 C 316.58944 813.66596 317.23257 815.50165 317.79843 817.36403 C 318.47385 819.30069 318.79441 821.34004 318.86361 823.38569 C 319.10705 827.17229 319.44905 830.95534 319.53125 834.75 C 319.56648 837.22728 319.47214 839.7029 319.28208 842.17258 C 318.9719 847.69175 317.92756 853.13673 316.78127 858.53399 C 316.10684 861.51876 315.21875 864.46656 313.88149 867.22662 C 311.94234 871.4678 309.86704 875.64785 307.67729 879.76485 C 305.95076 882.90344 304.0285 885.93312 301.89475 888.81131 C 298.91747 892.64076 295.7899 896.35155 292.59375 900 C 289.73937 902.95702 286.5837 905.59683 283.37457 908.1566 C 280.81438 910.2492 278.17686 912.24457 275.55721 914.26108 C 272.14873 916.81076 268.58445 919.14799 264.89225 921.26562 C 259.80815 924.24427 254.48074 926.77528 249.15462 929.28415 C 246.29798 930.55885 243.43652 931.82382 240.51286 932.93861 C 238.46171 933.73767 236.38744 934.48206 234.30165 935.18593 C 231.25888 936.2113 228.09884 936.81373 224.99754 937.62615 C 218.93984 939.04001 212.91896 940.64281 206.77843 941.6694 C 204.02613 942.19909 201.23072 942.41837 198.4375 942.59375 C 193.41651 942.98768 188.37519 942.94499 183.34375 943.09375 C 178.59085 943.12449 173.83737 943.03629 169.09203 942.75773 C 165.4418 942.56992 161.77188 942.48743 158.16693 941.82671 C 154.51205 941.12326 150.91499 940.143 147.32453 939.16749 C 142.6653 937.80269 137.98593 936.46921 133.45659 934.71014 C 130.96814 933.6872 128.55322 932.50092 126.17208 931.25083 C 121.15475 928.63131 116.22311 925.85045 111.28197 923.09144 C 109.83167 922.26514 108.47353 921.25102 107.44255 919.92455 C 105.59909 917.76025 103.69333 915.65125 101.71817 913.60645 C 100.52899 912.34072 99.311735 911.10312 98.204806 909.76323 C 96.514189 907.82499 95.028966 905.71033 93.728692 903.4929 C 92.371713 901.12798 91.136254 898.69044 90.051552 896.18884 C 88.440249 892.44731 86.941322 888.64164 85.967249 884.67826 C 85.272599 882.04894 84.498958 879.4333 83.979544 876.76306 C 83.632312 874.97774 83.812722 873.15611 83.717485 871.35458 C 83.563206 869.48831 83.267231 867.63552 83.239091 865.75955 C 83.029073 860.27873 83.423879 854.7896 84.142422 849.35719 C 84.892974 843.76125 85.709301 838.14381 87.363236 832.73062 C 88.019491 830.24164 88.94973 827.83752 90.031474 825.50443 C 90.443711 824.64311 90.811994 823.75573 90.903857 822.79561 C 91.019565 821.76232 91.211575 820.71902 91.741783 819.80719 C 95.427594 813.09393 98.996602 806.31549 102.78125 799.65625 C 104.83435 796.89079 106.98817 794.19954 109.3125 791.65625 C 111.0085 789.56827 112.94451 787.67802 115.07882 786.04029 C 117.51717 784.0404 120.108 782.2334 122.71515 780.46193 C 124.78116 779.07776 126.89935 777.76262 128.875 776.25 C 130.42225 774.89187 131.73279 773.1491 132.25145 771.13264 C 132.5285 769.91455 132.18877 768.64451 131.49018 767.63061 C 130.78942 766.66102 130.0153 765.62545 128.875 765.15625 C 127.03562 764.51707 125.06673 764.944 123.19528 765.18969 C 119.76922 765.7544 116.52271 767.05555 113.36953 768.46953 C 111.88668 769.11002 110.40294 769.76909 108.9164 770.38809 C 107.94268 770.74855 106.78716 770.41762 106.125 769.625 C 105.25404 768.72232 104.57916 767.61948 103.527 766.8966 C 102.03613 765.71665 100.17924 765.12429 98.355054 764.67886 C 93.74491 763.42205 89.000165 762.65778 84.481825 761.07028 C 80.917747 759.98635 77.49796 758.48593 73.942268 757.37659 C 72.27779 756.87756 70.58222 756.36684 68.8272 756.38016 C 67.255922 756.42327 65.645337 756.83723 64.431786 757.8828 C 63.302482 758.72713 62.574673 759.96102 61.9726 761.20993 C 60.300171 764.24122 58.954454 767.43677 57.34375 770.5 C 56.028461 773.29365 54.597025 776.03699 53.513965 778.93384 C 52.072766 782.58686 50.804968 786.30672 49.580257 790.03703 C 47.884443 795.4457 46.460084 800.93775 44.65625 806.3125 C 44.239378 807.29895 43.806797 808.28587 43.5 809.3125 C 43.303605 810.33043 43.740764 811.33812 44.49645 812.01163 C 45.174449 812.67305 45.863176 813.34236 46.330964 814.17708 C 46.947786 815.08623 47.723845 815.88635 48.633544 816.50417 C 50.870323 818.24038 53.40922 819.52194 55.820418 820.98996 C 58.403642 822.46748 61.066767 823.85715 63.9375 824.6875 C 66.581779 825.53993 69.371332 825.85408 72.142171 825.78125 C 73.072462 825.75205 74.21626 826.04726 74.569758 827.01452 C 75.057862 828.14667 74.793267 829.41733 74.584266 830.58446 C 74.122011 832.69014 73.74394 834.81394 73.21875 836.90625 C 72.128569 842.16188 71.223204 847.45905 70.641625 852.79619 C 70.23123 855.85526 70.031293 858.94493 70.15625 862.03125 C 70.1659 864.40112 70.346864 866.78833 70.080663 869.1461 C 69.682036 870.43912 68.488189 871.4577 67.125 871.5625 C 62.370004 872.57661 57.547713 873.21628 52.757731 874.03319 C 47.50205 875.0051 42.247062 875.98552 37.03125 877.15625 C 35.81662 877.5991 34.618196 878.20252 33.78125 879.21875 C 32.840761 880.1548 31.958706 881.21676 31.625 882.53125 C 31.615503 884.28994 32.304595 885.93029 32.760353 887.60048 C 35.033466 895.4568 37.789715 903.16202 40.130143 910.9976 C 41.951341 916.98792 43.558714 923.04056 45.324335 929.04728 C 46.010958 931.34956 46.548988 933.70564 47.425504 935.94476 C 48.018373 937.17292 48.973283 938.29927 50.306825 938.73296 C 53.027688 939.63615 55.931017 939.82208 58.78125 939.8125 C 61.391442 939.70375 63.840622 938.69831 66.330842 938.00832 C 70.84156 936.62014 75.266913 934.9732 79.732121 933.44803 C 81.379369 932.81261 83.091491 932.32263 84.646773 931.47349 C 85.439223 931.01794 86.285436 930.48048 86.6875 929.625 C 87.309762 928.47424 87.172806 927.06423 86.694951 925.88818 C 86.130141 924.23177 85.33388 922.60231 84.09375 921.34375 C 83.256243 920.62555 82.16264 920.44219 81.09375 920.53125 C 79.330282 920.72592 77.63496 921.27056 75.895506 921.58948 C 71.614186 922.68348 67.325217 923.74794 63.021226 924.74854 C 62.018683 925.0724 60.785139 925.10383 59.96875 924.34375 C 59.086931 923.52248 58.793177 922.28485 58.338687 921.20525 C 57.118537 918.01302 56.27447 914.69601 55.16783 911.46492 C 53.383479 906.0957 51.742193 900.67943 50.215466 895.2316 C 49.654061 893.1544 49.092655 891.0772 48.53125 889 C 48.416805 887.89128 49.021636 886.7769 50 886.25 C 54.960656 885.30593 59.930479 884.35485 64.958477 883.84955 C 66.759625 883.7247 68.601035 883.57827 70.375 884 C 71.497523 884.373 72.126855 885.43984 72.625 886.4375 C 74.288779 889.58473 75.493073 892.94813 77.012968 896.16424 C 78.640661 899.84828 80.617444 903.36278 82.608974 906.85868 C 83.874484 909.01386 85.055849 911.2215 86.390934 913.33375 C 88.529802 916.22056 90.783949 919.01997 93.153507 921.72076 C 95.748386 924.70275 98.303132 927.74481 101.24809 930.39214 C 104.10475 932.90346 107.29488 934.98695 110.38808 937.18764 C 114.28027 939.92042 118.2478 942.57919 122.52635 944.67607 C 126.45696 946.71412 130.6039 948.28772 134.71836 949.90687 C 138.13418 951.19747 141.64472 952.21529 145.13438 953.28224 C 148.48499 954.17059 151.84395 955.06438 155.27352 955.59569 C 159.64265 956.41154 164.04351 957.0726 168.46747 957.50408 C 173.8189 957.96211 179.18956 958.17687 184.55778 958.30964 C 189.43453 958.25874 194.28817 957.71852 199.14695 957.34698 C 203.03261 957.03997 206.91086 956.64254 210.76842 956.08088 C 215.37338 955.4636 219.9481 954.61015 224.47247 953.55514 C 227.8805 952.7324 231.24205 951.72712 234.60777 950.74815 C 239.96894 949.1784 245.20155 947.1914 250.334 944.9928 C 255.56463 942.78789 260.60828 940.17366 265.59868 937.47625 C 269.45058 935.40144 273.34305 933.3767 276.98735 930.94705 C 281.09018 928.14275 284.92233 924.97095 288.73148 921.78605 C 293.02898 918.12045 297.05077 914.14738 300.97372 910.08773 C 304.91946 905.93108 308.51484 901.45419 311.94885 896.86991 C 314.40886 893.59756 316.42759 890.02811 318.59023 886.55977 C 320.3871 883.46626 321.62443 880.09538 323.11529 876.85254 C 324.91838 872.86491 326.36989 868.71846 327.42039 864.46952 C 328.27534 861.2832 328.93376 858.04661 329.52483 854.80233 C 330.05326 851.87277 330.302 848.9055 330.4844 845.9372 C 330.73443 841.83992 330.8336 837.73365 330.90381 833.62971 C 330.88954 830.03202 330.55616 826.44559 330.37748 822.85427 C 330.19278 820.72382 329.77373 818.61483 329.24672 816.5441 C 328.5724 813.91267 327.64359 811.35548 326.82427 808.76703 C 325.97473 806.2649 325.00463 803.80463 324.125 801.3125 C 323.53772 799.7682 322.88824 798.24271 322.14695 796.76675 C 319.56391 792.08045 316.83999 787.47292 314.15625 782.84375 C 311.73456 779.04851 308.99004 775.4658 305.99998 772.10154 C 303.9895 769.77101 301.98274 767.43402 299.89739 765.17081 C 297.68245 762.80847 295.18804 760.73934 292.68269 758.69639 C 289.98513 756.46395 287.29035 754.21274 284.34844 752.30403 C 281.30133 750.21904 278.15681 748.27282 274.86906 746.58877 C 270.54738 744.35072 266.13413 742.28625 261.62354 740.45678 C 258.04072 738.99711 254.49364 737.44517 250.84554 736.15228 C 247.57989 734.8918 244.22659 733.88146 240.84668 732.97787 C 238.42781 732.30965 236.00803 731.64293 233.60312 730.92764 C 232.60374 730.79962 231.57386 730.98991 230.56903 730.8179 C 226.26408 730.21014 221.97556 729.40717 217.62969 729.15625 C 215.3478 729.16084 213.04694 729.42596 210.78125 729.03125 C 210.61297 729.02037 210.4473 729.0376 210.28125 729.0625 z M 161.0625 744.375 C 161.37516 744.53805 160.77075 744.36406 161.0625 744.375 z M 346.40625 772 C 341.08065 773.84769 335.65651 775.54094 330.6875 778.25 C 328.87683 779.3289 327.09878 780.8376 326.5579 782.96051 C 326.20104 784.16082 326.47366 785.52923 327.3402 786.44913 C 328.601 787.87864 330.41965 788.63931 332.17556 789.26972 C 334.7273 790.10152 337.4053 790.43482 339.9843 791.15622 C 341.01541 791.51508 341.72601 792.39284 342.1914 793.34346 C 343.18038 795.04994 343.70284 796.97077 344.51618 798.7592 C 347.48091 805.87584 350.31462 813.04603 353.21875 820.1875 C 353.62816 821.7968 352.6082 823.44263 351.26381 824.27334 C 348.78645 825.9505 345.9437 826.95733 343.26673 828.25726 C 341.38161 829.24982 339.27319 829.99353 337.78835 831.58576 C 336.80136 832.55983 336.10417 833.83257 335.9375 835.21875 C 335.58969 836.54951 335.47005 838.07154 336.2503 839.28176 C 337.36364 841.01654 339.42276 841.81647 341.375 842.15625 C 342.84008 842.442 344.34801 842.52302 345.83847 842.51667 C 349.55253 842.29753 353.11079 841.12068 356.70881 840.26902 C 360.07555 839.44544 363.44473 838.63187 366.8125 837.8125 C 368.38122 837.16363 369.85543 836.19155 370.875 834.8125 C 371.50324 833.15 371.13748 831.32498 370.82074 829.63496 C 370.17233 826.2787 369.37827 822.92691 368.03971 819.77148 C 365.4238 813.22613 362.70534 806.722 360.12963 800.1604 C 357.12325 792.58602 354.12065 785.00968 351.03125 777.46875 C 350.43989 776.15635 350.01867 774.73373 349.03817 773.6417 C 348.41963 772.88343 347.62834 772.03366 346.59375 771.96875 L 346.41343 771.9988 L 346.40625 772 z M 74.53125 772.40625 C 81.227453 773.13033 87.881385 774.18408 94.553784 775.09252 C 95.951645 775.27062 97.344443 775.52108 98.745307 775.65625 C 99.723083 775.62531 100.78716 776.27755 100.80144 777.33794 C 100.82645 778.37926 99.894978 779.07934 99.427861 779.92712 C 97.435044 782.76991 95.373431 785.56417 93.428194 788.44052 C 91.335889 791.41779 89.237884 794.4074 87.558318 797.64315 C 85.056644 802.21102 82.90294 806.95656 80.762411 811.701 C 79.782776 813.90185 78.813469 816.10727 77.84375 818.3125 C 77.255876 819.1429 75.918702 819.28854 75.201002 818.54205 C 73.187198 816.49012 70.840842 814.80812 68.574843 813.05139 C 66.447827 811.3751 64.16366 809.77182 62.625 807.5 C 61.898407 806.23285 61.979852 804.71558 62.09375 803.3125 C 62.393202 800.92239 62.706165 798.53282 63.193762 796.17216 C 63.954485 792.28968 65.023346 788.47236 66.21962 784.70353 C 67.444157 781.41693 68.831958 778.19334 70.28125 775 C 71.1565 773.51788 72.754019 772.34774 74.53125 772.40625 z M 191.40625 822.75 C 188.80528 823.1336 186.1825 823.85151 183.97624 825.325 C 181.39869 827.11134 178.92699 829.17169 177.23827 831.85111 C 175.48965 834.38796 174.38205 837.31221 173.58066 840.2711 C 172.94407 842.86926 172.28674 845.48559 172.19528 848.17233 C 171.9289 851.97996 172.05988 855.80688 172.50537 859.59614 C 172.68085 862.23332 174.03707 864.59104 175.41065 866.78065 C 176.50783 868.65251 177.83034 870.38522 179.21165 872.05451 C 180.43069 873.6008 182.3048 874.43174 184.14452 874.98772 C 186.61507 875.71661 189.17526 876.35376 191.77152 876.14037 C 194.13856 875.8912 196.48855 875.41796 198.76684 874.72243 C 203.3317 873.19218 207.86962 871.51973 212.15625 869.3125 C 215.07297 867.73471 217.51499 865.46472 220.0625 863.375 C 221.88481 861.7509 223.69585 860.10728 225.42893 858.39031 C 226.81494 856.76168 227.70594 854.7858 228.4225 852.78781 C 229.34253 850.36794 229.99576 847.84989 230.52638 845.31911 C 230.85381 843.24745 230.97291 841.13621 230.87159 839.04228 C 230.627 836.73067 229.8638 834.43922 228.46875 832.5625 C 227.11404 830.66811 225.40571 829.05147 223.625 827.5625 C 221.99616 826.38414 219.90758 825.85078 217.91907 826.20621 C 215.80242 826.47168 213.78174 827.27732 211.99736 828.43537 C 210.69133 829.15645 209.43514 830.16962 208.875 831.59375 C 208.55556 833.06655 208.8772 834.61478 209.61678 835.91156 C 210.01883 836.83442 210.67933 837.63181 211.55421 838.14031 C 213.01694 839.07032 214.73998 839.61543 216.00836 840.84378 C 217.32487 841.97611 217.82699 843.83846 217.59333 845.52049 C 217.50248 846.74002 216.8615 847.81623 216.14375 848.77376 C 215.15511 850.13802 213.95573 851.34612 212.71703 852.48152 C 210.83614 854.01412 208.93 855.55629 206.79073 856.71401 C 204.6083 857.87641 202.17043 858.38965 199.789 858.97079 C 197.47211 859.42662 195.05873 859.88711 192.71875 859.3125 C 191.25727 858.99192 189.81028 858.34234 188.79971 857.20596 C 187.6711 855.95892 187.08659 854.31323 186.75 852.6875 C 186.35268 850.15006 186.83072 847.56665 187.64592 845.15829 C 188.30145 843.13084 189.19862 841.1723 190.35323 839.38038 C 191.50011 837.59959 193.18169 836.28108 194.82253 834.98404 C 196.6313 833.53488 198.43269 831.96475 199.54202 829.89502 C 200.2877 828.54892 200.03538 826.86108 199.1875 825.625 C 198.67337 824.80979 197.91467 824.14975 197.08649 823.66825 C 195.36963 822.71667 193.31909 822.67955 191.40625 822.75 z M 339.4375 881.75 C 337.60026 882.08918 336.31588 883.6208 335.35969 885.11671 C 334.49892 886.39405 333.67552 887.69665 332.90625 889.03125 C 332.43644 890.21625 332.96418 891.56063 333.84375 892.40625 C 336.78347 895.80794 339.63883 899.28307 342.34375 902.875 C 342.92723 903.8353 342.63319 905.16965 341.78125 905.875 C 336.26775 912.16846 330.74414 918.45312 325.28476 924.79367 C 323.77396 926.50011 322.33051 928.2661 320.96875 930.09375 C 320.26177 930.94969 318.9802 930.98531 318.0625 930.46875 C 315.01764 928.71537 312.06574 926.79847 309.12486 924.87409 C 306.70752 923.41233 304.24553 921.78759 301.38699 921.39394 C 300.24345 921.22599 299.07081 921.60766 298.1018 922.20078 C 296.08804 923.51111 294.99961 925.87564 294.71591 928.20076 C 294.56027 929.33774 294.55131 930.52671 295.03264 931.59307 C 295.64176 933.23608 296.95106 934.46722 298.27817 935.54976 C 301.02408 937.84985 303.8928 939.99908 306.67758 942.25188 C 309.30784 944.31875 311.99165 946.32931 314.80924 948.13489 C 316.34159 949.16957 318.19669 949.53088 319.96875 949.9375 C 321.78706 950.15904 323.62585 950.35382 325.45261 950.10874 C 326.53155 949.93386 327.40224 949.04308 327.72251 948.01712 C 328.32601 946.50985 328.66716 944.89433 329.52389 943.49514 C 330.85263 940.91982 332.33486 938.42052 334.09285 936.11263 C 336.9877 932.29686 340.2102 928.7412 343.50681 925.27102 C 346.70432 922.00288 349.97573 918.80587 353.38152 915.75452 C 355.07207 914.2183 356.72704 912.64414 358.375 911.0625 C 359.29105 909.65353 359.44947 907.87075 359.125 906.25 C 358.76688 903.36825 358.80316 900.33543 357.48214 897.6765 C 356.53137 895.70658 355.14769 893.97401 353.68854 892.35725 C 351.30523 889.83579 349.07678 887.16668 346.61412 884.72146 C 344.87191 883.10265 342.66194 881.79613 340.2287 881.72972 C 339.96521 881.70052 339.70111 881.74552 339.4375 881.75 z M 107.5 948.09375 C 105.60154 948.71389 103.95595 949.9096 102.5 951.25 C 101.05709 953.88983 100.44277 956.86468 99.556025 959.71417 C 98.652426 962.84188 97.67758 965.96668 97.145515 969.18249 C 97.014801 970.64191 97.018132 972.18295 97.649169 973.53596 C 98.258226 974.73067 99.456113 975.45239 100.68158 975.88979 C 102.89428 976.80376 105.27734 977.17241 107.56227 977.85579 C 111.9833 979.05881 116.3718 980.38263 120.73738 981.77203 C 126.43562 983.67424 132.06092 985.85862 137.35757 988.71063 C 141.7234 991.05635 145.82718 993.84992 150.125 996.3125 C 151.31479 996.96597 152.64289 997.39051 154.01201 997.3386 C 156.04859 997.44804 158.06627 997.03888 160.09375 996.90625 C 161.61396 996.72233 163.07342 995.9185 163.91338 994.61876 C 165.15572 992.9766 165.97482 991.07136 166.67877 989.14957 C 168.06264 985.35538 169.43939 981.53563 170.21875 977.5625 C 170.48486 975.34875 170.31507 973.07849 169.6875 970.9375 C 169.05192 969.01865 167.80665 967.28086 166.09375 966.1875 C 165.05328 965.50748 163.71191 965.72858 162.66958 966.28151 C 160.76033 967.21296 159.60326 969.07614 158.36591 970.71769 C 156.98683 972.75693 155.84747 974.94584 154.59375 977.0625 C 153.93486 977.91156 152.61036 978.1409 151.71875 977.53125 C 146.99324 975.11741 142.2347 972.71203 137.17993 971.0545 C 134.01267 969.9809 130.79754 969.05208 127.59375 968.09375 C 123.90139 967.04087 120.21218 965.97549 116.5625 964.78125 C 115.36314 964.06256 114.72947 962.71717 114.44258 961.3953 C 113.66611 958.11652 113.34993 954.6704 111.79648 951.62937 C 111.02314 950.12723 109.85198 948.65872 108.19655 948.11659 C 107.96768 948.06055 107.73172 948.05212 107.5 948.09375 z M 255.375 955.46875 C 254.09375 955.85635 252.93837 956.70705 252.19247 957.81605 C 251.50652 959.04646 250.92832 960.33309 250.20874 961.54537 C 249.70699 962.42209 249.38238 963.45935 249.625 964.46875 C 249.84767 966.178 250.71695 967.86458 250.3269 969.61387 C 249.83287 971.34978 248.17896 972.4398 246.52915 972.93108 C 241.9134 974.60401 237.24973 976.14521 232.60862 977.74722 C 227.32412 979.58886 222.11364 981.6325 216.92195 983.71872 C 216.00955 984.04367 215.0627 984.5677 214.07014 984.24855 C 212.87051 983.97452 212.33073 982.72085 211.80524 981.73548 C 210.96539 979.92346 210.3532 978.01533 209.60001 976.16627 C 208.3886 973.0765 207.3153 969.90172 205.61621 967.0353 C 204.76031 965.48558 202.83084 964.58019 201.10199 965.0671 C 199.73448 965.4243 198.77507 966.64256 198.37291 967.95211 C 197.64202 970.30177 197.76269 972.7941 197.97705 975.21307 C 198.24857 979.01891 198.96972 982.77097 199.68386 986.51304 C 200.1274 988.66413 200.47839 990.83546 201.09276 992.9474 C 201.70401 995.0914 202.07478 997.38485 203.375 999.25 C 204.36619 1000.6618 206.07053 1001.2995 207.70224 1001.6156 C 209.39864 1001.98 211.17544 1002.0978 212.88714 1001.7913 C 215.72181 1001.1897 218.29873 999.81642 220.97348 998.75424 C 227.68809 995.90185 234.40707 993.05192 241.21925 990.43982 C 246.73848 988.44183 252.26874 986.47402 257.79374 984.49264 C 260.04726 983.6339 262.32407 982.83489 264.5625 981.9375 C 265.60277 981.42239 266.59259 980.5986 266.90625 979.4375 C 267.5568 977.40331 267.58232 975.2242 267.38719 973.11425 C 267.08915 970.29997 266.37859 967.50343 265.03125 965 C 264.18805 963.2423 263.04701 961.64819 261.95201 960.04186 C 260.84102 958.56437 259.70027 957.02372 258.0625 956.09375 C 257.2147 955.72149 256.32683 955.30579 255.375 955.46875 z "
       id="path3127"
       inkscape:connector-curvature="0" />
  </g>
</svg>
