<?xml version="1.0" encoding="UTF-8" standalone="no"?>
<!-- Created with Inkscape (http://www.inkscape.org/) -->

<svg
   xmlns:dc="http://purl.org/dc/elements/1.1/"
   xmlns:cc="http://creativecommons.org/ns#"
   xmlns:rdf="http://www.w3.org/1999/02/22-rdf-syntax-ns#"
   xmlns:svg="http://www.w3.org/2000/svg"
   xmlns="http://www.w3.org/2000/svg"
   xmlns:sodipodi="http://sodipodi.sourceforge.net/DTD/sodipodi-0.dtd"
   xmlns:inkscape="http://www.inkscape.org/namespaces/inkscape"
   width="400"
   height="400"
   id="svg2"
   version="1.1"
   inkscape:version="0.48.0 r9654"
   sodipodi:docname="New document 1">
  <defs
     id="defs4" />
  <sodipodi:namedview
     id="base"
     pagecolor="#ffffff"
     bordercolor="#666666"
     borderopacity="1.0"
     inkscape:pageopacity="0.0"
     inkscape:pageshadow="2"
     inkscape:zoom="1.2519949"
     inkscape:cx="204.28571"
     inkscape:cy="244.30937"
     inkscape:document-units="px"
     inkscape:current-layer="layer1"
     showgrid="false"
     inkscape:window-width="1680"
     inkscape:window-height="997"
     inkscape:window-x="0"
     inkscape:window-y="24"
     inkscape:window-maximized="1" />
  <metadata
     id="metadata7">
    <rdf:RDF>
      <cc:Work
         rdf:about="">
        <dc:format>image/svg+xml</dc:format>
        <dc:type
           rdf:resource="http://purl.org/dc/dcmitype/StillImage" />
        <dc:title></dc:title>
      </cc:Work>
    </rdf:RDF>
  </metadata>
  <g
     inkscape:label="Layer 1"
     inkscape:groupmode="layer"
     id="layer1"
     transform="translate(0,-652.36218)">
    <path
       style="fill:#000000"
       d="M 89.25 662.625 C 88.144607 662.7778 87.003207 663.54911 86.902977 664.74202 C 86.510681 666.58411 86.557388 668.61553 87.435861 670.31415 C 89.095619 672.8546 90.87009 675.32123 92.585157 677.82554 C 97.701409 685.2135 102.4661 692.83899 107.60367 700.21273 C 108.43912 701.50029 109.35652 702.74192 110.52593 703.7492 C 112.32298 705.37395 114.48925 706.71004 116.90625 707.125 C 118.14348 707.27295 119.51981 707.29561 120.54669 706.47672 C 121.77204 705.53208 121.79687 703.76259 121.3557 702.4084 C 120.55741 700.07792 118.81631 698.25945 117.45625 696.25192 C 115.95529 694.22382 114.51606 692.15025 113.23702 689.97394 C 110.97287 686.35113 108.73945 682.7078 106.3094 679.19234 C 104.46808 676.50572 102.51632 673.89599 100.61439 671.25219 C 99.178863 669.34722 97.78262 667.39944 96.1875 665.625 C 95.371174 664.84541 94.350702 664.31426 93.4375 663.65625 C 92.160322 662.94106 90.737095 662.42499 89.25 662.625 z M 289.75 668.15625 C 287.67057 668.51222 286.07263 670.0296 284.57876 671.40815 C 276.56826 678.99585 268.66454 686.69553 260.77806 694.41158 C 257.94661 697.2843 255.12277 700.2252 252.96875 703.65625 C 252.31907 705.1735 252.0747 707.00356 252.90625 708.5 C 253.96698 709.76662 255.63875 710.19614 257.07968 710.87031 C 258.05014 711.25731 259.19471 711.06188 259.99585 710.3986 C 260.95125 709.71025 262.01927 709.19421 263.13441 708.82894 C 265.36291 707.85773 266.94402 705.93506 268.73381 704.36766 C 272.883 700.57707 276.84568 696.58532 280.87601 692.66865 C 285.27913 688.30303 289.75238 684.00905 294.17757 679.66618 C 295.01378 678.75342 296.09817 678.01594 296.55776 676.82198 C 297.52835 674.38572 296.66843 671.41029 294.61852 669.79511 C 293.32334 668.59594 291.51322 667.94692 289.75 668.15625 z M 174.8125 724.1875 C 170.24889 724.34676 165.65358 724.51069 161.1814 725.51591 C 157.25025 726.29522 153.50056 727.78054 149.57363 728.57935 C 146.84344 729.28472 144.45746 730.85784 141.875 731.9375 C 138.27624 733.66267 134.68174 735.42103 131.3114 737.56753 C 127.47916 739.95133 123.56158 742.23116 119.99528 745.00906 C 117.58352 746.93488 115.15099 748.85424 112.9448 751.01488 C 109.75976 754.75976 106.65884 758.57621 103.65625 762.46875 C 100.12633 767.30235 97.390418 772.67697 95.256479 778.25899 C 94.39272 780.41374 93.649887 782.61475 93.109366 784.87383 C 91.728789 790.10887 91.183185 795.51334 90.5653 800.87825 C 90.31518 803.10833 90.2595 805.35013 90.260941 807.59199 C 90.252016 812.36453 90.51278 817.13651 91.017068 821.88234 C 91.478559 826.61708 92.830906 831.19917 93.607554 835.88152 C 93.948871 837.64805 94.670956 839.30671 95.213674 841.01095 C 95.596066 842.60572 95.62757 844.40116 96.71875 845.71875 C 97.788439 847.33814 98.392026 849.19845 99.18851 850.9558 C 100.49732 854.06373 101.77351 857.18892 103.1875 860.25 C 103.72189 861.21381 104.87041 861.67142 105.34405 862.68801 C 105.8616 863.53745 106.01554 864.55335 106.56697 865.39206 C 107.50162 867.2824 108.86496 868.91617 109.8479 870.77938 C 110.82324 872.45857 112.07538 873.9432 113.35428 875.39481 C 115.87341 878.34887 118.51287 881.19944 121.16814 884.03062 C 124.79791 887.787 128.43861 891.53633 132.28624 895.07198 C 135.86162 898.49017 139.53583 901.80208 143.22505 905.09595 C 145.5971 907.37065 147.95202 909.66285 150.19247 912.06852 C 152.62486 914.58707 154.87399 917.28163 156.95627 920.09502 C 159.41192 923.4892 161.51834 927.14022 163.21875 930.96875 C 164.17288 933.27686 165.05577 935.61704 165.92237 937.95781 C 166.94078 941.43661 167.36522 945.05901 167.50095 948.67247 C 167.8504 954.58647 167.6625 960.51327 167.625 966.43281 C 167.66657 967.59917 167.46901 968.87684 168.0625 969.9375 C 168.75447 970.9556 170.10102 971.16283 171.24531 971.15625 C 172.43231 971.1541 173.706 971.2847 174.75 970.59375 C 175.76833 970.00383 176.46957 968.97833 176.73779 967.83972 C 177.77332 964.77997 177.96663 961.52874 178.62619 958.38259 C 179.08081 955.98423 179.50624 953.56405 179.4375 951.11252 C 179.54855 948.22647 179.36821 945.33912 178.96628 942.48023 C 178.61602 940.31622 178.2807 938.14028 177.747 936.01277 C 177.04125 933.26902 176.16204 930.57396 175.11303 927.94244 C 174.12242 925.4274 172.98427 922.96758 171.75 920.5625 C 170.34801 918.10857 168.91629 915.6664 167.3578 913.30887 C 164.79374 909.46667 161.91323 905.83897 158.76217 902.46125 C 154.41926 897.74432 149.43018 893.69174 144.60229 889.49184 C 139.93738 885.51265 135.31136 881.48167 130.88919 877.23294 C 128.84517 875.19015 126.77919 873.1592 125 870.875 C 122.43002 867.6483 119.96212 864.32724 117.8978 860.74959 C 116.10578 857.75863 114.44292 854.6883 112.89114 851.56644 C 111.12077 847.89542 109.41833 844.19171 107.87164 840.42018 C 105.2262 834.21891 103.23525 827.74387 101.8125 821.15625 C 101.04614 816.93879 100.21232 812.71746 99.994755 808.42658 C 99.780635 805.39679 99.988481 802.35945 100.36506 799.35074 C 100.83758 795.13441 101.40617 790.90541 102.6328 786.83209 C 104.02093 782.01193 106.11604 777.41121 108.66177 773.09574 C 109.90508 771.00397 111.49134 769.149 112.85236 767.13593 C 114.70375 764.51327 116.55304 761.86588 118.85013 759.6059 C 120.6529 757.76764 122.57223 756.0461 124.45388 754.29036 C 127.19655 752.08745 129.78085 749.59414 133.00921 748.09968 C 134.76061 747.30004 136.33355 746.18925 137.96875 745.1875 C 140.76343 743.58136 143.73923 742.32151 146.68416 741.02285 C 149.92334 739.69677 153.25345 738.58612 156.66677 737.80472 C 163.60391 735.96027 170.70709 734.54651 177.90363 734.38635 C 181.42275 734.27301 184.94672 734.26212 188.45999 734.52238 C 193.55337 734.83193 198.64899 735.26398 203.67295 736.18621 C 206.95906 736.74299 210.2006 737.54169 213.40009 738.47075 C 216.51627 739.37736 219.61403 740.35305 222.62555 741.5687 C 226.62087 743.14256 230.61473 744.74716 234.41057 746.76645 C 237.24876 748.20994 239.99925 749.82366 242.70633 751.49797 C 247.00191 754.18653 251.09142 757.20578 254.95609 760.48205 C 258.36292 763.4413 261.67831 766.52017 264.64392 769.92831 C 267.36253 773.15461 269.92455 776.53387 272.08705 780.16153 C 273.60613 782.81091 274.97016 785.54701 276.2317 788.32762 C 277.46288 791.36607 278.54107 794.46873 279.53125 797.59375 C 280.46089 800.73232 281.18908 803.93018 281.77267 807.15015 C 282.45674 812.13063 282.57356 817.18247 282.19052 822.19335 C 281.90123 825.35552 281.54403 828.52105 280.82372 831.61859 C 279.95275 835.74956 278.52671 839.7709 276.52493 843.49126 C 274.65264 846.95745 272.60073 850.34222 270.16568 853.44647 C 266.22039 858.7021 261.43554 863.23293 256.9375 868 C 251.32504 873.74991 245.68525 879.47359 240.17983 885.32669 C 238.36868 887.2816 236.43182 889.12609 234.81314 891.25006 C 231.92153 894.8042 229.15141 898.4927 226.97889 902.53757 C 225.15188 905.91607 223.89316 909.56976 222.8591 913.2584 C 221.6065 917.77044 220.95039 922.41487 220.13323 927.01781 C 218.54473 937.59485 216.95877 948.17226 215.375 958.75 C 215.09193 959.59232 214.9812 960.7104 215.78125 961.3125 C 216.65359 961.70892 217.25302 962.50105 217.54468 963.40089 C 217.9668 964.69894 219.38625 965.25324 220.61948 965.45483 C 222.52557 965.7061 224.63311 965.2868 226.0625 963.9375 C 227.09671 962.83927 227.33586 961.28369 227.72335 959.88324 C 229.00442 953.21366 229.92585 946.48173 230.95493 939.76994 C 231.68227 934.84814 232.38432 929.92015 233.27347 925.02473 C 233.92229 921.79894 234.584 918.56546 235.54843 915.41722 C 236.70277 911.81242 238.14511 908.23995 240.39093 905.16625 C 242.16494 902.829 244.28011 900.77849 246.24377 898.60384 C 251.96365 892.42539 257.75717 886.31573 263.59354 880.24749 C 268.18655 875.30384 272.87496 870.43485 277.125 865.1875 C 280.35265 861.10931 283.43759 856.88661 285.86122 852.27204 C 287.8556 848.64068 289.56465 844.85436 290.99385 840.96674 C 292.73994 835.88202 293.72632 830.56228 294.17895 825.21196 C 294.55897 821.10729 294.57477 816.97476 294.40242 812.85895 C 294.09434 807.41202 293.44057 801.96481 292.10711 796.66767 C 291.10648 792.82176 289.78696 789.05772 288.09685 785.45943 C 285.86944 780.65482 283.35577 775.97263 280.45978 771.53628 C 278.23751 768.1871 275.79381 764.97847 272.99985 762.08318 C 270.1616 759.1772 267.20422 756.38895 264.28323 753.56692 C 261.79368 751.2491 259.15843 749.08807 256.34869 747.16871 C 252.12917 744.21393 247.67215 741.62471 243.28125 738.9375 C 238.4036 736.16682 233.57763 733.12471 228.13767 731.57158 C 222.01946 729.81317 215.94985 727.85964 209.73603 726.45568 C 205.05191 725.4344 200.2902 724.74898 195.4986 724.53291 C 189.0144 724.24622 182.52222 724.10311 176.03144 724.17969 C 175.62512 724.18229 175.21881 724.1849 174.8125 724.1875 z M 373.46875 803.15625 C 361.20863 803.28379 348.94762 803.15371 336.6875 803.28125 C 330.39481 803.3252 324.09931 803.31168 317.8125 803.625 C 316.64258 803.94945 316.26401 805.26485 315.75 806.21875 C 314.6536 807.70348 313.80122 809.71664 314.59375 811.53125 C 315.27901 813.1624 316.88 814.29791 318.60552 814.58532 C 320.95182 815.20273 323.35321 815.56547 325.77032 815.75228 C 329.55552 816.15532 333.3617 816.2711 337.16384 816.39384 C 346.78455 816.60534 356.40983 816.66862 366.02602 817.04527 C 367.25244 817.07064 368.45913 817.30998 369.59522 817.77622 C 370.80362 818.24001 372.09747 818.61901 373.40107 818.39291 C 374.83064 818.28168 376.3712 818.19892 377.59375 817.375 C 378.84663 816.37065 379.32791 814.74198 379.74053 813.25284 C 380.3549 811.61747 380.06941 809.71118 379.02738 808.31419 C 378.09068 806.73644 376.75674 805.45668 375.65625 804 C 375.05521 803.47457 374.30236 803.01122 373.46875 803.15625 z M 10.3125 804.65625 C 8.5663423 804.99879 6.7207456 805.95665 6.125 807.75 C 5.3160727 809.86398 5.2362901 812.20629 5.71875 814.40625 C 6.3253283 815.96022 7.7493653 816.96628 9.1947576 817.6755 C 11.89041 819.06254 14.970676 819.28064 17.932325 819.60701 C 24.902663 820.19729 31.9106 819.94397 38.887558 820.41739 C 40.825104 820.50674 42.748736 820.74888 44.681787 820.89428 C 47.483798 821.19446 50.451513 821.53883 53.134157 820.45341 C 55.143561 819.64754 56.280471 817.41554 56.204051 815.31794 C 56.218683 813.72968 55.468888 812.16657 54.34375 811.0625 C 52.456632 809.50401 50.147789 808.54435 47.834457 807.8112 C 43.302596 806.4988 38.589201 806.01272 33.90121 805.64797 C 27.022187 805.09905 20.125433 804.78693 13.228136 804.59375 C 12.257482 804.6248 11.2762 804.52498 10.3125 804.65625 z M 211.5 817.5 C 206.49192 817.88881 201.4669 818.28421 196.54294 819.32266 C 185.94635 821.48891 175.32466 823.53754 164.76061 825.85864 C 163.32115 826.26805 161.62942 826.52356 160.69956 827.83124 C 159.71002 829.1727 159.02031 830.86295 159.27178 832.5565 C 159.39931 834.07815 159.99915 835.56077 160.94176 836.75426 C 162.04015 838.01961 163.78755 838.60113 165.43206 838.35845 C 168.33992 838.14214 171.15141 837.30972 174.00534 836.76168 C 180.83488 835.34165 187.64054 833.79113 194.52449 832.65009 C 200.29861 831.56652 206.12944 830.76011 211.99432 830.38731 C 214.19492 830.15036 216.42817 829.9891 218.5625 829.375 C 220.32462 828.73778 221.37861 826.88609 221.5625 825.09375 C 221.72232 823.90433 221.38098 822.72162 220.78599 821.69698 C 220.14444 820.27074 219.11214 818.97942 217.68024 818.29325 C 216.42314 817.56784 214.94482 817.3651 213.51455 817.49158 C 212.84338 817.50366 212.17096 817.42641 211.5 817.5 z M 214.90625 838.03125 C 212.82666 838.38347 211.13035 840.14392 210.76984 842.20901 C 210.19349 844.37218 209.81954 846.58254 209.67082 848.81685 C 209.41594 851.9809 209.57598 855.16255 209.82655 858.32096 C 209.95702 859.42718 210.04381 860.78594 211.125 861.40625 C 212.77465 862.43888 215.12221 862.14978 216.46875 860.75 C 217.18638 859.73077 217.60348 858.52999 218.09273 857.39034 C 219.22798 854.36816 219.95404 851.21766 220.58255 848.05727 C 221.02245 845.67188 221.13534 843.14686 220.375 840.8125 C 219.69923 838.97337 217.68335 837.95555 215.79585 838.00743 C 215.49948 837.98858 215.20268 838.0261 214.90625 838.03125 z M 167.9375 848.75 C 166.82667 848.91295 165.7532 849.41002 164.9375 850.1875 C 164.23666 851.44495 164.32961 852.98339 164.69591 854.3347 C 165.74134 858.89289 167.3336 863.29774 168.98001 867.66698 C 169.62075 869.49819 170.37191 871.28656 171.21875 873.03125 C 171.69728 873.8329 172.07664 874.85418 173.03851 875.1755 C 173.99808 875.63946 175.12189 875.63363 176.04142 876.20065 C 176.74238 876.66758 177.76348 876.44176 178.03125 875.59375 C 178.56881 874.46157 178.38772 873.16886 178.55718 871.95851 C 178.84932 867.86243 178.78285 863.72297 178.11514 859.66562 C 177.54062 857.13466 176.65239 854.61016 175.05246 852.53701 C 174.39718 851.6626 173.87783 850.66153 173.10375 849.89032 C 171.77797 848.81263 169.97354 848.75664 168.34375 848.71875 C 168.20833 848.72917 168.07292 848.73958 167.9375 848.75 z M 94.40625 901.3125 C 91.159396 902.10159 88.624764 904.41414 86.042701 906.39502 C 80.627103 910.64841 75.167999 914.84842 69.625386 918.93501 C 66.199061 921.48141 62.675465 923.89776 59.293113 926.50208 C 58.019157 927.60138 56.568671 928.53244 55.5 929.84375 C 54.520942 931.17124 54.137979 932.90468 54.34375 934.53125 C 54.699301 936.46322 56.228645 937.87386 57.726098 939.00572 C 58.539567 939.63374 59.440747 940.30066 60.526557 940.21875 C 62.29025 940.2255 63.81713 939.2163 65.362995 938.49975 C 68.261516 937.00059 70.95474 935.14442 73.661125 933.33007 C 77.76494 930.48809 81.773674 927.51151 85.724522 924.46102 C 90.04498 921.05573 94.37164 917.63637 98.349573 913.82983 C 99.244473 912.98448 100.03795 912.0294 100.76176 911.0372 C 101.44523 910.13554 101.83758 909.02775 101.75 907.88908 C 101.61259 905.60634 100.03671 903.6608 98.220439 902.40238 C 97.116015 901.62469 95.755227 901.21606 94.40625 901.3125 z M 296.5625 903.3125 C 295.07394 903.82908 294.01195 905.11705 293.1875 906.40625 C 292.46374 907.98722 292.49033 909.76755 292.5625 911.46875 C 292.82862 913.25703 294.29883 914.51619 295.71875 915.46875 C 298.38615 917.32029 301.43063 918.50511 304.40201 919.76848 C 308.04169 921.25754 311.71728 922.65731 315.35848 924.14339 C 320.25583 926.1074 325.15858 928.06761 329.96316 930.25071 C 331.0933 930.86527 332.38896 931.21452 333.6763 930.99487 C 334.84045 930.86449 335.93975 930.39703 337.01452 929.96149 C 338.25661 929.4319 339.02833 928.18546 339.22861 926.88437 C 339.66835 924.56818 338.8107 922.11008 337.19353 920.4237 C 335.66973 918.68729 333.61506 917.52628 331.56373 916.52199 C 327.6709 914.84492 323.66934 913.43301 319.71676 911.90416 C 313.81258 909.68426 307.9633 907.32294 302.13976 904.90041 C 300.53305 904.28262 298.96267 903.49363 297.25 903.21875 C 297.00954 903.19969 296.78575 903.21468 296.5625 903.3125 z M 216.84375 968.65625 C 211.67637 969.94733 206.33345 970.20609 201.05917 970.79904 C 194.42034 971.4569 187.79076 972.24039 181.13451 972.69687 C 178.02365 972.78141 174.90057 972.78981 171.8125 973.21875 C 170.19129 974.14508 169.64284 976.07685 169.27922 977.78351 C 168.96009 979.3179 169.04459 980.90262 169.3125 982.4375 C 170.2761 984.19036 172.25378 985.00741 174.09375 985.5 C 177.02353 986.22007 180.07651 986.30691 183.0673 985.98863 C 190.5009 985.31047 197.94651 984.76248 205.3771 984.05445 C 209.98936 983.52761 214.61583 983.05134 219.17645 982.17096 C 221.1506 981.67323 223.26453 981.08143 224.66051 979.49574 C 225.91182 978.1102 226.48265 975.88326 225.44315 974.21482 C 224.68985 972.72962 223.40583 971.61888 222.17957 970.53184 C 220.73423 969.24722 218.78961 968.48453 216.84375 968.65625 z M 215.40625 985.8125 C 211.18773 987.40342 206.82402 988.6077 202.38435 989.39493 C 197.1809 990.43805 191.86479 990.74697 186.56943 990.87789 C 181.54656 991.00894 176.52182 991.17218 171.50653 991.46335 C 170.09878 991.63542 168.57038 991.95059 167.5625 993.03125 C 166.5109 994.5711 166.53968 996.52624 166.64038 998.3146 C 166.70924 1000.0089 167.53435 1001.7578 169.05655 1002.6041 C 171.17928 1004.1192 173.88257 1004.3097 176.40123 1004.4797 C 180.67447 1004.7397 184.95803 1004.565 189.2358 1004.5822 C 193.13836 1004.5195 197.05272 1004.2691 200.89119 1003.5296 C 206.31529 1002.5345 211.80429 1001.7494 217.08032 1000.1006 C 219.14398 999.3479 221.34568 998.77913 223.125 997.4375 C 223.93597 996.77143 224.39954 995.83328 224.69683 994.84755 C 225.02196 993.83615 225.45463 992.7731 225.3269 991.69863 C 225.07554 990.66247 224.15833 989.99659 223.63729 989.10451 C 223.06308 988.2625 222.36983 987.4818 221.4341 987.0335 C 219.60919 986.02428 217.46522 985.73671 215.40625 985.8125 z M 211.78125 1013.6562 C 198.4457 1014.4535 185.10678 1015.2017 171.78125 1016.1562 C 170.32498 1016.3733 169.07965 1017.4284 168.59375 1018.8125 C 167.86628 1020.4123 167.552 1022.1621 167.4375 1023.9062 C 168.11805 1024.6181 168.86241 1025.5058 168.6875 1026.5625 C 168.95251 1027.7949 170.31969 1028.2399 171.40625 1028.4688 C 173.08556 1028.8704 174.80922 1028.9566 176.52898 1028.9788 C 182.12107 1029.2044 187.71622 1028.8975 193.30441 1028.6939 C 199.90622 1028.4494 206.50405 1028.0932 213.09375 1027.625 C 214.83705 1027.3691 216.64983 1027.0243 218.14784 1026.0487 C 219.61042 1025.1283 220.60957 1023.4962 220.63802 1021.7552 C 220.76404 1020.07 220.09419 1018.404 219.0625 1017.0938 C 218.29605 1016.0671 217.41059 1015.1031 216.375 1014.3438 C 215.45371 1013.7705 214.36463 1013.592 213.29558 1013.6396 C 212.79074 1013.6098 212.28609 1013.645 211.78125 1013.6562 z "
       id="path3095"
       inkscape:connector-curvature="0" />
  </g>
</svg>
