<?xml version="1.0" encoding="UTF-8" standalone="no"?>
<!-- Created with Inkscape (http://www.inkscape.org/) -->

<svg
   xmlns:dc="http://purl.org/dc/elements/1.1/"
   xmlns:cc="http://creativecommons.org/ns#"
   xmlns:rdf="http://www.w3.org/1999/02/22-rdf-syntax-ns#"
   xmlns:svg="http://www.w3.org/2000/svg"
   xmlns="http://www.w3.org/2000/svg"
   xmlns:sodipodi="http://sodipodi.sourceforge.net/DTD/sodipodi-0.dtd"
   xmlns:inkscape="http://www.inkscape.org/namespaces/inkscape"
   width="400"
   height="400"
   id="svg2"
   version="1.1"
   inkscape:version="0.48.0 r9654"
   sodipodi:docname="New document 1">
  <defs
     id="defs4" />
  <sodipodi:namedview
     id="base"
     pagecolor="#ffffff"
     bordercolor="#666666"
     borderopacity="1.0"
     inkscape:pageopacity="0.0"
     inkscape:pageshadow="2"
     inkscape:zoom="1.7037736"
     inkscape:cx="200"
     inkscape:cy="198.57143"
     inkscape:document-units="px"
     inkscape:current-layer="layer1"
     showgrid="false"
     inkscape:window-width="1680"
     inkscape:window-height="997"
     inkscape:window-x="0"
     inkscape:window-y="24"
     inkscape:window-maximized="1" />
  <metadata
     id="metadata7">
    <rdf:RDF>
      <cc:Work
         rdf:about="">
        <dc:format>image/svg+xml</dc:format>
        <dc:type
           rdf:resource="http://purl.org/dc/dcmitype/StillImage" />
        <dc:title></dc:title>
      </cc:Work>
    </rdf:RDF>
  </metadata>
  <g
     inkscape:label="Layer 1"
     inkscape:groupmode="layer"
     id="layer1"
     transform="translate(0,-652.36218)">
    <path
       style="fill:#000000"
       d="M 301.28125 675.4375 C 289.30767 675.51833 277.53457 677.95382 265.72884 679.66951 C 250.44778 681.98149 235.29361 685.06959 220.25835 688.63524 C 214.03656 690.01068 207.86745 691.61814 201.67061 693.09136 C 197.25257 693.85271 193.03559 695.4426 188.6966 696.53622 C 172.08922 701.15018 155.61252 706.26741 139.42387 712.19252 C 135.84178 713.67255 132.13297 715.00162 128.91625 717.20343 C 126.71314 718.59782 125.77738 721.49727 126.59305 723.94733 C 127.3838 726.76575 129.88963 728.93379 132.7625 729.42596 C 136.65683 730.31636 140.58101 728.90184 144.03948 727.19143 C 149.3338 724.56293 154.88871 722.50743 160.45437 720.53504 C 174.34423 715.81471 188.37037 711.49458 202.53672 707.68064 C 212.50116 704.92569 222.59127 702.65636 232.58544 700.01437 C 242.70636 697.52125 252.97447 695.69601 263.19448 693.66643 C 269.34179 692.50481 275.49455 691.31511 281.69771 690.50495 C 284.56385 690.28715 287.49 690.39838 290.28125 691.125 C 291.50157 690.73822 292.2555 692.91298 291.03125 693.3125 C 288.07349 695.38143 286.49987 699.047 286.66558 702.61048 C 286.46049 706.79802 286.91155 710.98424 286.76305 715.17327 C 287.1607 731.30008 286.3009 747.42183 285.48745 763.52303 C 284.58037 781.57512 283.5991 799.62379 282.49163 817.66453 C 281.97755 827.88864 281.64248 838.12127 281.27249 848.35143 C 280.74586 863.54806 280.49361 878.7581 279.5625 893.9375 C 279.35767 895.8311 278.69936 897.93777 276.84929 898.82362 C 273.84068 900.62634 270.28772 901.07569 267.03541 902.27766 C 261.47707 904.0467 255.82968 905.55453 250.1085 906.6848 C 245.4384 908.17909 241.03499 910.90357 238.04404 914.83333 C 235.4065 918.43234 234.36754 922.89286 233.93665 927.26278 C 233.05945 933.66507 232.56719 940.11584 231.68646 946.5163 C 231.2653 948.86254 230.57162 951.28822 228.9375 953.09375 C 227.66398 953.17794 226.26445 952.57488 225.10884 953.37328 C 211.80811 958.13492 198.23435 962.1174 185.04315 967.1862 C 172.50461 972.12182 160.17939 977.63533 148.28093 983.9674 C 138.16494 989.34244 128.23922 995.06532 118.35029 1000.8445 C 113.5614 1003.4842 108.65309 1006.036 103.38218 1007.5613 C 101.43872 1007.9987 99.003622 1007.0919 98.463357 1005.0178 C 97.469909 1002.3394 97.776637 999.41972 97.35171 996.63513 C 96.853561 988.59089 98.030122 980.57809 98.771449 972.58611 C 100.37112 958.94388 101.87957 945.29041 103.54039 931.6557 C 104.83363 921.21101 106.51975 910.81513 107.64455 900.35038 C 107.90094 898.6899 107.63944 897.02498 107.53125 895.375 C 107.61964 891.55828 108.84385 887.88673 109.18284 884.09392 C 109.89587 878.69042 110.50066 873.27321 111.29321 867.88049 C 113.23321 852.63798 114.8896 837.35878 116.29593 822.05798 C 117.32756 810.46876 118.16557 798.86433 118.99101 787.25903 C 120.17852 770.40856 121.46535 753.56266 122.33501 736.69198 C 122.49867 731.72461 122.69267 726.7294 122.21458 721.77536 C 121.768 718.72428 120.40367 715.38405 117.45596 713.9929 C 114.79097 712.75312 111.12919 713.68448 109.77514 716.40312 C 107.09736 720.54224 106.76564 725.64582 106.69168 730.44026 C 106.42719 744.54907 103.85051 758.46965 102.68312 772.50758 C 101.76801 784.04159 101.29203 795.60522 100.43011 807.14343 C 98.896581 829.94065 96.687456 852.68846 94.110375 875.38994 C 91.629517 896.70464 88.982489 917.99949 86.473244 939.31077 C 85.125608 950.58865 84.085301 961.90129 82.658785 973.17013 C 81.791402 980.25447 81.414241 987.38398 81.190958 994.51428 C 81.07537 1000.3508 80.834023 1006.2163 81.46875 1012.0312 C 81.679836 1013.6438 82.394415 1015.09 83.027934 1016.5635 C 83.467461 1017.5319 83.469578 1018.6734 84.305448 1019.4329 C 86.554168 1022.062 89.831346 1023.4697 92.922421 1024.8415 C 99.16064 1027.1363 106.17133 1026.3377 112.22811 1023.8594 C 118.80632 1021.1849 124.64597 1017.0574 130.50611 1013.1177 C 133.63798 1010.572 136.92816 1008.1515 140.64015 1006.5232 C 144.91439 1004.289 149.13535 1001.9307 153.13493 999.23633 C 157.13413 997.31203 161.42801 995.98952 165.20324 993.62022 C 169.88434 991.32212 174.80595 989.56368 179.52734 987.35132 C 186.12231 984.44479 192.86951 981.87848 199.78147 979.82936 C 206.42267 977.72756 212.97159 975.34675 219.63496 973.3127 C 226.41789 971.12681 233.2391 969.01325 239.85827 966.36774 C 243.75318 964.35821 247.13332 961.4363 251.1875 959.71875 C 253.58218 957.96864 255.2543 955.38595 257.77934 953.79536 C 265.26114 947.52347 271.47056 939.90539 278.85977 933.53043 C 281.79114 930.74249 284.2839 927.53162 286.78502 924.36446 C 289.55739 920.63627 290.93353 916.14444 293.17435 912.11717 C 295.04123 908.44682 296.73705 904.49877 296.65631 900.30069 C 296.93083 893.82001 297.17242 887.33241 297.12844 880.84565 C 297.09842 876.89652 296.49704 872.93893 297.03533 869.00128 C 297.37862 864.98409 297.31864 860.94654 297.5135 856.9205 C 297.71859 850.1623 297.82561 843.40066 297.62897 836.64088 C 297.60052 831.5587 297.28352 826.4644 297.52651 821.38898 C 297.99121 818.85098 298.32522 816.28873 298.24938 813.70344 C 298.26974 807.45308 298.71926 801.21795 298.86981 794.97082 C 299.07195 790.06652 299.15276 785.15136 299.53456 780.25805 C 300.72526 768.67841 300.98211 757.03107 301.66791 745.41622 C 302.44807 730.14438 303.25221 714.86393 303.29588 699.56889 C 303.33227 696.09536 302.96542 692.55377 303.74293 689.1383 C 304.70107 685.76668 306.60455 682.43039 305.90625 678.8125 C 305.39703 676.76419 303.43989 675.16141 301.28125 675.4375 z M 237.8125 740.125 C 221.77958 744.55254 206.43536 751.04589 190.99184 757.14374 C 180.99208 761.19316 170.98791 765.26471 161.25909 769.93416 C 157.68956 771.87986 153.98884 773.60404 150.52194 775.72603 C 147.60396 777.75856 144.77287 779.99399 142.46875 782.71875 C 141.16354 784.20343 141.51606 786.51532 142.8402 787.85538 C 144.18466 789.30753 146.26276 789.78985 148.15625 790.03125 C 151.49351 790.32609 154.64165 788.91342 157.53541 787.42936 C 173.8091 779.91282 189.97448 772.14724 206.48424 765.1561 C 213.78205 762.49748 221.09146 759.86562 228.44231 757.35837 C 232.79352 755.96199 237.22864 754.81932 241.60101 753.512 C 244.65772 752.10648 245.89017 748.12177 244.73891 745.07216 C 244.3179 743.39842 243.61801 741.58245 242.17471 740.5554 C 240.80904 739.97264 239.2635 740.02935 237.8125 740.125 z M 233.625 809.625 C 222.1825 812.9204 210.83266 816.61385 199.86538 821.27299 C 189.85562 825.43572 179.88163 829.72045 170.2646 834.73819 C 161.02261 839.43807 152.06062 844.70246 143.5046 850.56025 C 140.59478 852.45335 138.32842 855.95721 139 859.53125 C 139.66949 862.38537 142.78453 863.8761 145.51633 863.90542 C 148.72516 863.90527 151.8758 863.08124 154.78533 861.75272 C 159.0565 859.80215 162.87445 857.01772 167.06723 854.91338 C 173.45264 851.55431 179.64524 847.83079 186.18213 844.76313 C 198.67645 838.79661 211.48592 833.48369 224.58897 829.00272 C 228.72664 827.51635 233.02943 826.56409 237.28125 825.46875 C 238.5991 824.74484 238.58416 822.99511 239.46103 821.9012 C 240.83595 819.70703 240.29488 816.95051 239.52586 814.64277 C 238.67414 812.41463 236.99438 810.21497 234.59375 809.625 C 234.27177 809.56873 233.94864 809.61608 233.625 809.625 z M 218.875 871.3125 C 207.51407 875.15881 196.47673 879.87492 185.34415 884.3212 C 173.33131 889.34962 161.45966 894.89227 150.58151 902.10447 C 146.1452 905.0066 141.70278 908.0842 138.26196 912.16474 C 136.37836 914.45124 135.17117 917.6626 136.3125 920.5625 C 136.61632 921.71061 137.41001 922.825 138.67432 922.94436 C 142.31338 924.04818 146.42855 924.60869 149.97196 922.87569 C 155.02123 920.76705 159.34517 917.31287 164.19977 914.82892 C 171.50838 910.72648 178.78872 906.55984 186.203 902.65615 C 195.06257 899.43321 203.70669 895.65098 212.54459 892.36925 C 215.91193 890.97199 219.36239 889.72452 222.58375 888.01532 C 224.79592 886.2938 225.28759 883.3112 225.2796 880.67113 C 225.41253 877.7853 225.0666 874.40785 222.63249 872.4875 C 221.58428 871.63064 220.23525 871.15496 218.875 871.3125 z "
       id="path3047"
       inkscape:connector-curvature="0" />
  </g>
</svg>
