<?xml version="1.0" encoding="UTF-8" standalone="no"?>
<!-- Created with Inkscape (http://www.inkscape.org/) -->

<svg
   xmlns:dc="http://purl.org/dc/elements/1.1/"
   xmlns:cc="http://creativecommons.org/ns#"
   xmlns:rdf="http://www.w3.org/1999/02/22-rdf-syntax-ns#"
   xmlns:svg="http://www.w3.org/2000/svg"
   xmlns="http://www.w3.org/2000/svg"
   xmlns:sodipodi="http://sodipodi.sourceforge.net/DTD/sodipodi-0.dtd"
   xmlns:inkscape="http://www.inkscape.org/namespaces/inkscape"
   width="400"
   height="400"
   id="svg2"
   version="1.1"
   inkscape:version="0.48.0 r9654"
   sodipodi:docname="New document 1">
  <defs
     id="defs4" />
  <sodipodi:namedview
     id="base"
     pagecolor="#ffffff"
     bordercolor="#666666"
     borderopacity="1.0"
     inkscape:pageopacity="0.0"
     inkscape:pageshadow="2"
     inkscape:zoom="1.714557"
     inkscape:cx="201.42857"
     inkscape:cy="188.57143"
     inkscape:document-units="px"
     inkscape:current-layer="layer1"
     showgrid="false"
     inkscape:window-width="1680"
     inkscape:window-height="997"
     inkscape:window-x="0"
     inkscape:window-y="24"
     inkscape:window-maximized="1" />
  <metadata
     id="metadata7">
    <rdf:RDF>
      <cc:Work
         rdf:about="">
        <dc:format>image/svg+xml</dc:format>
        <dc:type
           rdf:resource="http://purl.org/dc/dcmitype/StillImage" />
        <dc:title></dc:title>
      </cc:Work>
    </rdf:RDF>
  </metadata>
  <g
     inkscape:label="Layer 1"
     inkscape:groupmode="layer"
     id="layer1"
     transform="translate(0,-652.36218)">
    <path
       style="fill:#000000"
       d="M 312.0625 685.6875 C 308.44687 686.09283 305.97777 689.04459 303.42022 691.31197 C 294.60723 699.41561 286.2943 708.03656 277.9616 716.62632 C 272.34521 721.98907 266.69455 727.44666 262.40625 733.96875 C 261.50108 735.60046 261.0852 738.00247 262.65625 739.375 C 264.94689 741.1316 267.96427 741.20684 270.61354 742.11179 C 272.64242 742.5935 274.43623 743.68634 276.17389 744.78636 C 278.99003 746.35536 282.06771 747.67523 284.3534 750.00425 C 286.00349 751.988 287.39821 754.69233 290.18078 755.18337 C 293.63794 755.79244 297.09412 753.04689 297.70284 749.67834 C 299.09588 746.68707 302.14241 745.06121 304.54559 742.98811 C 312.11757 737.04466 320.01337 731.52075 327.5 725.46875 C 329.41379 724.00809 330.69362 721.35094 329.77586 718.98652 C 328.89818 716.92211 327.12537 715.42004 325.71875 713.71875 C 322.05061 709.8452 318.7816 705.35383 317.40625 700.125 C 316.17835 695.63828 315.62224 690.97319 314 686.59375 C 313.55549 685.99761 312.82926 685.54665 312.0625 685.6875 z M 305.625 699.5 C 307.50261 700.18879 307.63041 702.47398 308.45169 704.01454 C 311.12482 709.72833 313.8898 715.49726 317.90625 720.40625 C 318.57974 721.48516 317.38692 722.28983 316.68875 722.93228 C 312.09228 726.95277 307.09957 730.50172 302.5625 734.59375 C 301.12398 735.5295 299.46003 736.22131 298.4213 737.64735 C 296.56666 739.17914 294.69523 740.73223 292.53125 741.8125 C 289.01974 741.41774 286.69237 738.37288 283.48352 737.21549 C 280.88263 735.94402 278.18378 734.89252 275.5 733.8125 C 274.2729 732.56864 275.20741 730.68253 276.3097 729.70779 C 283.4102 721.70427 290.77848 713.94378 297.97301 706.02699 C 299.51105 704.68172 301.12411 703.40393 302.47956 701.85775 C 303.30861 701.11957 303.91057 700.08387 304.875 699.53125 C 305.12047 699.4378 305.37361 699.41041 305.625 699.5 z M 256.3125 748.15625 C 252.95834 748.78362 249.95904 751.11057 248.59375 754.25 C 241.09672 763.34878 232.63686 771.58065 224.60639 780.19598 C 210.00627 795.3424 195.6539 810.73179 181.77337 826.54221 C 177.82047 831.06762 173.80492 835.54084 169.56888 839.80387 C 165.99292 843.76322 163.02026 848.2125 159.56365 852.27199 C 150.35091 863.74417 141.23103 875.30533 132.84134 887.39968 C 126.22702 896.88294 119.48966 906.3125 113.73851 916.35466 C 112.67105 918.92153 111.26319 921.44241 110.86642 924.21265 C 111.24305 927.05022 113.88625 928.67328 115.97149 930.26454 C 118.78986 932.3176 121.97876 933.81213 125.1152 935.29289 C 126.38252 935.54967 127.65607 935.89975 128.66635 936.73455 C 131.36124 938.16215 134.41044 938.68739 137.22545 939.82333 C 138.55655 940.27805 139.88765 940.73278 141.21875 941.1875 C 142.33745 942.36216 141.50495 944.29087 140.25 945 C 130.27666 955.09067 120.45771 965.33216 110.53125 975.46875 C 108.72568 972.53874 106.16275 970.21432 103.96875 967.59375 C 104.23961 961.74867 106.75373 956.314 107.38008 950.52306 C 108.3753 945.09988 109.67645 939.42859 108.10467 933.98087 C 107.82177 932.70822 106.65975 931.33608 105.22639 931.8452 C 103.31269 932.30913 101.91339 933.91906 100.78125 935.4375 C 98.720555 938.78984 98.653039 942.85835 97.411326 946.51095 C 97.005589 947.75881 96.465981 949.03039 96.759129 950.37008 C 96.887123 953.70072 95.671024 956.88655 95.367282 960.17861 C 94.453974 964.71618 93.144308 969.17173 91.492185 973.49108 C 90.453508 978.90564 88.079692 983.92417 86.471194 989.17266 C 83.789098 997.0451 80.400337 1004.6519 76.918587 1012.1956 C 75.877875 1014.7703 74.810223 1017.6509 75.553117 1020.4406 C 76.622264 1023.3826 80.515596 1024.7507 83.213393 1023.1741 C 86.983764 1021.6066 89.306374 1018.0576 91.723786 1014.9591 C 95.813184 1009.1935 99.682649 1003.2451 104.36304 997.92901 C 111.57 988.93384 119.48834 980.54607 127.31495 972.09517 C 132.75359 966.29723 138.28961 960.58226 144.07794 955.13297 C 146.38554 953.20432 149.05031 951.19107 149.70518 948.07386 C 150.42215 945.72949 150.11791 943.25858 149.75978 940.88502 C 149.71114 938.02766 151.59396 935.68023 153.34216 933.61212 C 160.34834 924.17876 166.94506 914.45137 173.72011 904.85332 C 175.25678 902.54855 176.94403 900.33889 178.88252 898.36009 C 192.42827 881.89213 206.81621 866.1475 220.88447 850.13061 C 225.48803 844.8498 230.07436 839.55433 234.765 834.35004 C 242.46395 825.81195 250.19634 817.30274 258.04284 808.90042 C 261.33669 805.17238 264.66115 801.46144 268.23638 798.00232 C 270.26941 795.50544 272.46635 793.15009 274.59792 790.74146 C 276.41558 788.43162 278.77048 786.57038 280.31734 784.04093 C 282.20306 781.28345 284.40549 778.73985 286.11279 775.86512 C 288.02974 772.59341 288.82256 768.8559 289.87507 765.2574 C 290.27417 763.75618 290.09616 762.07006 288.99938 760.89501 C 287.21203 758.67055 284.54386 757.42689 282.09588 756.0772 C 275.26951 752.52987 267.81335 750.42755 260.38117 748.57185 C 259.05356 748.2456 257.68059 748.06194 256.3125 748.15625 z M 259.8125 758.5625 C 263.66277 758.95802 267.27211 760.47664 270.75 762.09375 C 270.64306 763.6328 272.47472 764.00868 273.4275 764.79718 C 275.35579 766.2671 277.13573 767.9487 278.6875 769.8125 C 279.34942 771.922 277.69955 773.72817 276.84375 775.5 C 267.32941 787.99485 256.39025 799.29669 245.98675 811.0356 C 224.68864 834.77944 203.44319 858.57062 182.23655 882.39604 C 179.35623 885.47195 176.63836 888.69027 174.03173 891.99993 C 168.9748 898.19397 163.99501 904.45369 159.26842 910.90432 C 154.81653 916.71194 150.5766 922.69917 145.7987 928.24397 C 143.45892 930.29727 139.9633 929.95392 137.29718 928.78064 C 133.55263 927.43592 129.75727 926.04154 126.54018 923.63862 C 124.99629 922.65217 123.38493 921.07296 123.70769 919.06831 C 124.09888 915.90143 126.07512 913.26989 127.36345 910.42951 C 130.38522 905.0261 133.77821 899.83781 137.19416 894.67776 C 142.326 887.15507 147.58943 879.71801 153.07167 872.44658 C 162.09198 860.60581 171.21624 848.83646 180.84784 837.48352 C 184.7648 832.74075 188.61691 827.93546 192.89548 823.50822 C 196.64451 819.51847 200.12948 815.29037 203.85202 811.27839 C 208.76308 806.24614 213.5413 801.08871 218.24767 795.86512 C 221.43538 792.38574 224.65289 788.92557 227.99955 785.59984 C 229.62462 784.21721 231.28173 782.82023 232.3836 780.96166 C 233.96608 778.81283 236.28937 777.40391 238.13609 775.50693 C 243.92718 770.07449 249.33857 764.14395 255.9375 759.65625 C 257.11364 758.98478 258.42216 758.38932 259.8125 758.5625 z "
       id="path3047"
       inkscape:connector-curvature="0" />
  </g>
</svg>
