<?xml version="1.0" encoding="UTF-8" standalone="no"?>
<!-- Created with Inkscape (http://www.inkscape.org/) -->

<svg
   xmlns:dc="http://purl.org/dc/elements/1.1/"
   xmlns:cc="http://creativecommons.org/ns#"
   xmlns:rdf="http://www.w3.org/1999/02/22-rdf-syntax-ns#"
   xmlns:svg="http://www.w3.org/2000/svg"
   xmlns="http://www.w3.org/2000/svg"
   xmlns:sodipodi="http://sodipodi.sourceforge.net/DTD/sodipodi-0.dtd"
   xmlns:inkscape="http://www.inkscape.org/namespaces/inkscape"
   width="400"
   height="400"
   id="svg2"
   version="1.1"
   inkscape:version="0.48.0 r9654"
   sodipodi:docname="New document 1">
  <defs
     id="defs4" />
  <sodipodi:namedview
     id="base"
     pagecolor="#ffffff"
     bordercolor="#666666"
     borderopacity="1.0"
     inkscape:pageopacity="0.0"
     inkscape:pageshadow="2"
     inkscape:zoom="1.7590909"
     inkscape:cx="214.28571"
     inkscape:cy="200"
     inkscape:document-units="px"
     inkscape:current-layer="layer1"
     showgrid="false"
     inkscape:window-width="1680"
     inkscape:window-height="997"
     inkscape:window-x="0"
     inkscape:window-y="24"
     inkscape:window-maximized="1" />
  <metadata
     id="metadata7">
    <rdf:RDF>
      <cc:Work
         rdf:about="">
        <dc:format>image/svg+xml</dc:format>
        <dc:type
           rdf:resource="http://purl.org/dc/dcmitype/StillImage" />
        <dc:title></dc:title>
      </cc:Work>
    </rdf:RDF>
  </metadata>
  <g
     inkscape:label="Layer 1"
     inkscape:groupmode="layer"
     id="layer1"
     transform="translate(0,-652.36215)">
    <path
       style="fill:#000000"
       d="M 243.28125 700.40625 C 230.72145 700.85465 218.0836 702.67904 206.29377 707.17721 C 198.54319 709.89788 190.91034 712.967 183.45636 716.41769 C 179.35681 718.63766 175.38194 721.08257 171.27005 723.28296 C 168.6101 724.81044 165.82986 726.16908 163.33208 727.9528 C 158.0563 732.11903 152.83098 736.37652 147.99728 741.05385 C 145.08404 744.07407 142.86001 747.92698 142.47234 752.16596 C 142.25456 753.28179 142.09019 754.54472 142.82362 755.51108 C 143.81238 757.55336 144.35047 759.76234 145.0625 761.90625 C 146.00506 762.8828 146.08711 764.88434 147.71875 765.03125 C 150.05396 765.28549 152.8486 765.09665 154.40625 763.09375 C 155.7194 760.78291 154.53018 758.14232 154.39712 755.69912 C 153.98791 752.29125 155.75283 748.97986 158.25853 746.77272 C 161.14554 744.01187 164.67648 742.0264 167.54226 739.23785 C 170.82203 736.21928 174.70492 733.97411 178.71874 732.08369 C 180.52488 731.27129 182.19687 730.20643 183.86157 729.15323 C 186.95606 727.64281 189.93236 725.89331 193.13645 724.61473 C 197.03419 722.98627 200.977 721.46403 204.86301 719.80565 C 209.89598 717.78116 215.07809 716.12404 220.38674 714.99706 C 226.59811 713.37444 232.89055 711.98936 239.29758 711.43515 C 249.79385 710.47016 260.49765 711.01462 270.71875 713.6875 C 274.69707 714.78077 278.61496 716.23549 282.17355 718.33351 C 284.75174 720.35065 286.91333 722.97549 288.26309 725.9586 C 289.12324 728.93541 287.44166 731.86211 285.66595 734.13602 C 280.7734 740.48529 274.57172 745.6509 268.3125 750.59375 C 264.50434 753.73074 260.55367 756.76129 257.25742 760.45248 C 255.78852 762.21949 254.19688 764.27062 254.2488 766.68032 C 254.61821 768.71399 257.08525 769.79207 258.93127 769.07011 C 262.85347 768.49195 265.93111 765.77716 269.16879 763.71988 C 272.48299 761.21122 275.87664 758.80122 279.42361 756.63532 C 282.55339 754.19092 285.14127 751.14208 288.17885 748.59103 C 293.1778 743.93709 298.17257 738.88968 300.74995 732.43765 C 302.73743 727.09688 301.9498 720.58108 298.0625 716.28125 C 295.43181 713.55436 291.88831 711.99024 289.05268 709.51055 C 286.34211 707.49274 283.3617 705.78477 280.07347 704.92032 C 274.78345 703.11922 269.41535 701.29773 263.7921 700.96732 C 256.97902 700.26508 250.1205 700.34219 243.28125 700.40625 z M 145.6875 773.28125 C 139.03882 773.92419 132.27306 774.06167 125.798 775.84654 C 120.20291 778.11607 114.00682 778.35153 108.45343 780.75061 C 101.26379 783.39429 94.129319 786.47815 86.477401 787.50658 C 81.780653 788.36106 77.275628 790.12328 73.193363 792.58926 C 64.716024 797.28141 56.619987 802.6528 48.875 808.46875 C 42.35579 813.60264 36.397517 819.53042 31.742726 826.42605 C 26.077468 834.36929 21.388081 843.0913 18.621622 852.47792 C 16.870001 858.03798 15.547699 863.73972 14.65625 869.5 C 14.621996 873.89529 15.962474 878.16119 17.430839 882.25575 C 19.683261 887.69762 24.057359 892.16377 29.365523 894.68276 C 33.068858 896.57967 37.172705 897.42256 41.09375 898.71875 C 42.152623 899.32491 42.325423 900.69359 41.90625 901.75 C 41.263157 903.84014 40.101444 905.7328 39.212097 907.72671 C 37.010269 912.339 35.359505 917.18759 33.378526 921.89523 C 31.634971 926.9676 30.804262 932.30328 29.003928 937.36067 C 27.585793 940.76752 27.636885 944.53598 26.571883 948.03435 C 26.19612 949.31802 25.356768 950.45193 25.4375 951.84375 C 25.356663 953.59524 25.090579 955.3325 24.578195 957.00617 C 22.486725 967.01476 21.163466 977.16156 19.712326 987.27644 C 19.414672 989.78243 18.996043 992.32331 19.375 994.83906 C 19.45669 995.77827 18.716051 996.55266 18.975774 997.48861 C 19.106065 998.69372 19.339574 999.96739 18.84375 1001.125 C 19.100118 1003.134 19.247629 1005.1709 18.982771 1007.1823 C 19.291874 1012.006 20.980642 1016.5962 21.623292 1021.3713 C 21.965909 1023.2833 22.526882 1025.2384 22.459239 1027.168 C 21.993456 1028.248 20.827611 1028.8215 19.71875 1029 C 18.636342 1029.9213 19.9999 1031.4357 19.1875 1032.4688 C 18.758157 1034.0964 20.407428 1035.1606 21.546226 1035.9613 C 23.628215 1037.7604 25.905003 1039.4353 28.57146 1040.2345 C 30.175773 1040.9219 31.779023 1042.1949 33.608122 1041.8719 C 35.817075 1041.077 37.12357 1038.7563 39.467854 1038.2168 C 41.790136 1037.2453 44.332008 1037.3505 46.791284 1037.2528 C 56.754277 1036.4158 66.778622 1036.087 76.65625 1034.4375 C 79.560638 1034.1175 82.466911 1033.8156 85.375 1033.5312 C 88.661903 1031.72 92.566933 1032.2318 96.075583 1031.1703 C 111.80307 1027.6202 127.78633 1024.5212 142.66586 1018.1106 C 148.72341 1015.4337 154.66334 1011.8775 158.65625 1006.4688 C 160.18363 1004.5856 160.47286 1001.5902 158.71875 999.75 C 157.77232 998.5292 156.01377 997.95307 155.69219 996.29532 C 155.13116 994.10907 156.0768 991.91521 156.32313 989.74673 C 157.6136 983.21949 159.40181 976.8016 161.21875 970.40625 C 161.94809 968.58705 163.7177 967.35473 165.65625 967.1875 C 168.22627 966.82069 170.83356 966.94847 173.41263 966.66805 C 176.84607 966.39014 180.25952 965.8887 183.6861 965.55824 C 186.55813 965.25915 189.30611 964.32126 191.97773 963.2788 C 193.71531 962.74748 195.52969 962.56698 197.3125 962.25 C 198.84128 962.85806 198.69048 964.77252 198.59375 966.125 C 198.44447 975.75205 199.34641 985.60936 203.06929 994.57835 C 204.63635 998.51953 206.99791 1002.1529 210.0625 1005.0938 C 212.79495 1006.5674 216.05727 1007.4274 219.1179 1006.5329 C 224.80934 1005.5738 230.58827 1005.3347 236.31372 1004.6469 C 250.95134 1003.2127 265.56404 1001.5152 280.21399 1000.2139 C 287.54759 1000.0109 294.84655 999.18699 302.16822 998.76032 C 312.28144 998.07031 322.43972 997.63429 332.56507 998.34462 C 337.39882 998.50239 342.18224 999.31073 346.99481 999.674 C 351.68761 999.5188 356.32322 996.85505 358.51602 992.66062 C 359.97262 989.44899 360.70275 985.97068 362.06046 982.71835 C 364.62932 975.58778 367.0752 968.27124 367.46127 960.64185 C 368.03169 955.12735 368.7394 949.52517 367.77212 944.01162 C 367.1918 938.95789 366.96582 933.86412 366.067 928.84925 C 365.46814 924.84457 364.70645 920.86479 364.21875 916.84375 C 363.23232 914.61759 363.15505 912.11746 362.12664 909.90599 C 361.50207 908.1164 361.36099 906.19213 360.54777 904.45917 C 359.18265 901.12418 357.61732 897.87053 356.49304 894.44072 C 353.73053 887.01114 350.41019 879.74806 346.01358 873.13239 C 343.26971 868.70135 340.45487 864.29776 337.09844 860.29786 C 335.26841 858.10824 333.49429 855.64927 330.75485 854.54547 C 328.01297 853.22499 324.56909 852.78371 321.8125 854.28125 C 319.36862 855.81047 318.64123 859.53315 320.46531 861.81519 C 322.59198 865.65662 325.56611 868.93417 327.92151 872.62876 C 330.74976 876.63793 333.578 880.64709 336.40625 884.65625 C 336.95628 886.32352 336.8482 888.26975 338.0462 889.66559 C 340.63693 895.04046 342.68015 900.65763 344.43853 906.35374 C 346.94541 913.68599 349.05214 921.16831 350.35401 928.81411 C 351.54434 935.71921 352.26851 942.73267 352.14755 949.7451 C 351.90724 956.37859 350.48497 962.88738 349.43204 969.42174 C 349.10402 970.88655 349.06258 972.46956 348.41979 973.8324 C 346.64146 976.044 346.82509 979.15827 345.21875 981.46875 C 344.63643 983.00366 344.09361 985.13004 342.19453 985.43536 C 339.57844 985.94716 336.8948 985.56907 334.25973 985.92217 C 315.1005 986.74778 295.91879 987.54665 276.85501 989.72446 C 260.21513 991.50392 243.48676 992.52232 226.74851 992.46875 C 224.083 992.3905 221.08838 992.82567 218.78125 991.1875 C 216.59704 989.43971 215.6419 986.62094 215.40165 983.91449 C 213.59631 974.99739 213.06427 965.776 214.29597 956.74561 C 215.06155 951.13802 216.3551 945.62695 217.65625 940.125 C 217.49542 937.13096 218.5096 934.28323 219.34785 931.46022 C 220.89735 925.83615 222.28593 920.16078 224.22222 914.65241 C 225.65344 910.47179 226.50336 906.13084 227.64087 901.86996 C 228.16078 900.06369 228.88208 898.31675 229.70001 896.63501 C 230.44184 893.54523 231.23329 890.437 232.70075 887.59903 C 235.20203 881.38376 238.38681 875.36746 242.66521 870.18811 C 244.56116 868.03145 247.57463 867.63641 250.24591 867.16564 C 254.713 866.58421 259.09843 865.5288 263.53052 864.73667 C 274.08682 862.64793 284.64539 860.37588 294.8351 856.86563 C 306.56898 852.97685 318.52016 849.40405 329.40622 843.42307 C 335.23398 840.34902 341.03392 837.19392 346.57207 833.62217 C 351.75567 829.70283 356.84313 825.55869 361.07944 820.60452 C 361.75508 819.67924 362.51165 818.81312 363.125 817.84375 C 362.56236 814.7961 364.62788 811.93924 364.01564 808.88036 C 363.74186 802.98263 360.4976 797.50587 355.95596 793.84862 C 348.63917 787.47121 339.21952 783.89839 329.67872 782.59556 C 320.29801 781.30548 310.76514 781.68184 301.38712 782.78876 C 293.99468 783.73427 286.59565 785.04298 279.53661 787.48218 C 277.85148 788.20983 276.11725 789.31479 275.46875 791.125 C 275.5019 792.91992 277.47938 793.70492 279 793.875 C 283.03136 794.74107 287.18441 794.44672 291.27611 794.58103 C 298.38933 794.22212 305.48888 792.56316 312.625 793.5 C 320.93376 794.1943 329.42035 795.06608 337.13331 798.45462 C 342.2958 800.80995 346.39217 805.27108 348.59375 810.46875 C 349.45226 812.74958 348.88909 815.41973 347.25225 817.21258 C 345.57276 819.41254 343.73565 821.50551 341.77555 823.45577 C 338.76834 826.11872 335.32742 828.22813 331.96328 830.39922 C 324.55794 834.63118 316.53758 837.63187 308.56123 840.58745 C 296.13021 845.04482 283.44672 848.81688 270.58 851.79536 C 264.60498 853.08607 258.59092 854.22625 252.53613 855.06948 C 246.17389 855.85505 239.73418 855.91762 233.33804 855.59477 C 227.5707 855.20129 221.72162 854.48316 216.3125 852.34375 C 212.54643 850.78234 209.19643 847.64423 208.33734 843.53986 C 207.53251 839.59492 208.36637 835.51269 209.55136 831.73071 C 211.53195 825.36268 214.59148 819.34319 218.59001 814.00507 C 224.12369 806.53851 231.72845 800.81944 239.93191 796.57258 C 245.0743 793.83389 250.53532 791.62695 255.3125 788.25 C 257.07248 786.60644 256.89737 783.16172 254.5921 782.09539 C 252.43035 780.85245 249.81798 781.0795 247.41631 781.05337 C 241.93699 781.37855 237.12552 784.28161 232.17965 786.36181 C 227.24015 788.66649 222.86954 791.9576 218.55545 795.2457 C 214.73127 798.11884 211.00181 801.23331 208.25091 805.19204 C 204.82428 809.7842 201.64596 814.57067 198.7961 819.54103 C 196.53191 823.57082 194.77794 827.93785 194.14422 832.53812 C 193.08962 837.65245 192.04672 843.06142 193.58154 848.19153 C 194.58654 851.81999 196.97825 854.83213 199.5071 857.53261 C 203.24363 861.28734 208.00582 863.94742 213.10872 865.32937 C 216.20233 866.34381 219.30614 867.33026 222.50234 867.97529 C 223.84648 867.97828 224.8488 869.39148 224.4375 870.65625 C 223.58227 873.48404 222.01089 876.01248 220.89044 878.73253 C 217.97679 884.80902 215.42554 891.08922 213.78919 897.63768 C 209.00146 913.34211 205.49636 929.39611 201.22626 945.24109 C 200.81638 946.82749 200.09213 948.42521 198.60756 949.27334 C 195.45798 951.41241 191.58691 951.93353 187.99992 952.97068 C 181.49169 954.63511 174.66654 955.78824 167.96875 954.625 C 166.73398 954.60943 165.26307 954.33084 164.73685 953.05233 C 163.55262 950.67878 164.44764 947.99077 164.52139 945.48718 C 165.09972 938.61014 165.47601 931.64742 164.42413 924.79715 C 163.75226 916.72437 162.08812 908.6351 158.55108 901.30155 C 156.87365 897.42206 155.02065 893.60233 153.75 889.5625 C 153.78812 888.39552 154.6088 887.38944 155.65625 886.9375 C 159.46387 882.1818 160.80319 876.11192 162.96867 870.5471 C 164.24368 867.05757 165.54477 863.55763 166.28125 859.90625 C 166.18436 858.17386 165.35698 856.58967 165.15625 854.875 C 166.54188 852.83812 169.00435 851.90069 170.51295 849.9738 C 177.36121 844.045 184.28352 837.87793 188.93445 829.99753 C 192.39625 824.05614 193.73133 817.05569 193.57763 810.23307 C 193.52634 805.75743 192.33466 801.36553 190.40625 797.34375 C 190.09934 796.55052 189.52655 795.25606 190.5625 794.75 C 192.14012 794.28861 193.63522 795.32509 195.19285 795.45698 C 199.54276 796.38845 204.00029 797.3424 208.46875 796.8125 C 211.26538 795.84899 212.99589 793.24991 214.53835 790.89346 C 215.70527 788.05406 213.53874 784.71457 210.67195 784.03128 C 206.08457 782.30813 201.14122 780.89778 196.20278 781.59665 C 192.67722 782.26376 189.45696 784.76379 188.25 788.1875 C 188.51468 789.45454 186.49767 790.39969 185.78125 789.25 C 179.9417 784.39266 173.51523 780.11283 166.35558 777.47041 C 161.74896 775.581 156.87404 774.21699 151.88199 773.97112 C 149.82152 773.69035 147.78557 773.10726 145.6875 773.28125 z M 141.78125 783.53125 C 150.39268 783.97283 159.13646 785.95579 166.48958 790.61221 C 173.42016 795.03867 178.44533 802.51904 179.51367 810.71355 C 179.92077 814.44101 179.24344 818.21089 177.84378 821.6718 C 175.78594 827.02179 172.42511 831.78057 168.62092 836.02971 C 163.77633 841.21421 158.28479 845.73497 152.84316 850.26742 C 145.89236 855.67164 138.2795 860.14535 130.48889 864.21752 C 117.9561 870.98717 105.25347 877.57435 91.815606 882.38074 C 82.970919 885.57012 73.824305 888.04527 64.462307 889.0878 C 59.957263 889.71734 55.401355 890.09729 50.853767 889.75978 C 46.575545 889.39546 42.170694 888.79794 38.382954 886.63051 C 34.798265 884.56479 31.440462 881.56791 30.1875 877.5 C 29.091893 873.91337 28.763407 870.07387 29.215721 866.35063 C 30.316461 858.76952 33.361701 851.66461 36.290951 844.64456 C 37.498449 841.61603 38.93399 838.66712 40.894945 836.04758 C 42.682908 833.48182 44.442314 830.8962 46.15625 828.28125 C 46.900259 826.84516 48.12815 825.62932 48.46875 824 C 49.548911 822.31184 51.510184 821.51807 52.900482 820.13056 C 55.620882 817.98674 58.371216 815.87479 61.242946 813.94142 C 63.071898 812.43943 64.896437 810.89852 67.023404 809.83075 C 69.513018 807.99962 72.054771 806.2165 74.858496 804.89585 C 79.667744 802.23956 84.454604 799.34147 89.855413 798.0547 C 93.176479 797.04754 96.676387 796.69755 99.971221 795.62805 C 101.48883 794.83938 101.57861 793.008 101.69452 791.51139 C 101.79928 790.1188 102.58889 788.86912 103.76775 788.1358 C 105.34864 787.04284 107.34275 786.87903 109.2081 786.93839 C 119.80383 786.01233 130.27594 783.76333 140.93281 783.53125 C 141.21562 783.53125 141.49844 783.53125 141.78125 783.53125 z M 146.25 867.5 C 147.24123 867.76248 147.42212 869.03587 147.59375 869.90625 C 147.6494 872.16246 147.2075 874.59327 145.78125 876.40625 C 145.2181 877.30184 144.05822 877.50883 143.13437 877.08389 C 141.0841 876.54166 139.44861 875.10557 137.625 874.09375 C 136.53791 874.27742 136.17266 872.24367 137.375 872.21875 C 140.04444 871.09559 142.17341 868.95672 144.94221 868.03833 C 145.36704 867.84081 145.74631 867.44823 146.25 867.5 z M 127.125 877.65625 C 128.81217 877.8575 129.69575 879.58632 130.37026 880.95927 C 134.83146 889.42975 140.9674 896.97973 144.62195 905.88213 C 148.79539 915.79153 150.29326 926.64674 150.04862 937.34675 C 149.80366 953.93993 146.16756 970.2077 142.99238 986.42133 C 142.24394 990.12688 141.5881 993.85644 140.78227 997.54716 C 140.42011 998.47855 139.87735 999.57747 140.55389 1000.5055 C 141.49621 1002.169 142.40269 1004.4339 141.09375 1006.1562 C 139.02235 1008.7653 135.67953 1009.7869 132.67269 1010.906 C 126.32223 1013.2227 119.90888 1015.3765 113.36841 1017.0964 C 105.99665 1019.0935 98.472131 1020.4364 91.01601 1022.0693 C 79.037062 1024.4771 66.936433 1026.266 54.786747 1027.5484 C 49.822364 1027.9508 44.84294 1028.6262 39.856079 1028.3287 C 37.878639 1028.0575 35.501215 1027.9314 34.185441 1026.2193 C 32.758744 1024.0485 33.011288 1021.3271 32.368234 1018.8984 C 31.434973 1014.063 31.106205 1009.11 31.483363 1004.1972 C 31.812655 993.43819 32.871339 982.70514 34.628627 972.0858 C 35.621906 965.80496 36.964993 959.58693 38.46617 953.4101 C 39.485711 948.60572 40.487643 943.78532 42.063514 939.12613 C 43.406179 934.84188 44.647312 930.52201 45.621789 926.13957 C 47.239203 921.60974 48.568573 916.97237 50.38684 912.51758 C 52.271262 908.19753 54.648277 903.99309 57.992901 900.6331 C 60.238166 898.38357 63.592326 898.26815 66.551206 897.86895 C 69.395988 897.64973 72.134413 896.80806 74.909918 896.19987 C 80.089326 894.88702 85.232407 893.42432 90.355999 891.91211 C 98.876318 889.23447 107.2614 886.10328 115.39132 882.40266 C 118.32893 880.93473 121.31121 879.50708 124.47848 878.61089 C 125.3374 878.24068 126.14652 877.60385 127.125 877.65625 z "
       id="path3079"
       inkscape:connector-curvature="0" />
  </g>
</svg>
