<?xml version="1.0" encoding="UTF-8" standalone="no"?>
<!-- Created with Inkscape (http://www.inkscape.org/) -->

<svg
   xmlns:dc="http://purl.org/dc/elements/1.1/"
   xmlns:cc="http://creativecommons.org/ns#"
   xmlns:rdf="http://www.w3.org/1999/02/22-rdf-syntax-ns#"
   xmlns:svg="http://www.w3.org/2000/svg"
   xmlns="http://www.w3.org/2000/svg"
   xmlns:sodipodi="http://sodipodi.sourceforge.net/DTD/sodipodi-0.dtd"
   xmlns:inkscape="http://www.inkscape.org/namespaces/inkscape"
   width="400"
   height="400"
   id="svg2"
   version="1.1"
   inkscape:version="0.48.0 r9654"
   sodipodi:docname="New document 1">
  <defs
     id="defs4" />
  <sodipodi:namedview
     id="base"
     pagecolor="#ffffff"
     bordercolor="#666666"
     borderopacity="1.0"
     inkscape:pageopacity="0.0"
     inkscape:pageshadow="2"
     inkscape:zoom="1.7822368"
     inkscape:cx="200"
     inkscape:cy="200"
     inkscape:document-units="px"
     inkscape:current-layer="layer1"
     showgrid="false"
     inkscape:window-width="1680"
     inkscape:window-height="997"
     inkscape:window-x="0"
     inkscape:window-y="24"
     inkscape:window-maximized="1" />
  <metadata
     id="metadata7">
    <rdf:RDF>
      <cc:Work
         rdf:about="">
        <dc:format>image/svg+xml</dc:format>
        <dc:type
           rdf:resource="http://purl.org/dc/dcmitype/StillImage" />
        <dc:title></dc:title>
      </cc:Work>
    </rdf:RDF>
  </metadata>
  <g
     inkscape:label="Layer 1"
     inkscape:groupmode="layer"
     id="layer1"
     transform="translate(0,-652.36218)">
    <path
       style="fill:#000000"
       d="M 264.3125 688.0625 C 257.85093 688.51072 251.56588 690.1971 245.15625 691.03125 C 240.28054 692.73765 234.9226 693.2869 230.51238 696.15052 C 228.78869 697.35757 226.6913 698.82493 226.53125 701.12031 C 226.51971 703.02637 228.74149 704.10533 230.43206 703.8272 C 232.74178 703.67997 235.07918 703.75281 237.39617 703.57129 C 245.60445 703.05164 253.77417 701.72398 262.01691 701.89187 C 267.85346 702.08547 274.00472 702.00091 279.31754 704.78377 C 285.86942 708.23094 290.31951 714.95067 291.81978 722.10889 C 292.88981 727.39711 293.1246 732.82174 293.09761 738.20399 C 292.88022 744.69894 291.0791 751.21491 287.46845 756.65676 C 283.25949 763.79256 278.45342 770.63517 272.57831 776.50678 C 264.3541 785.17957 254.78003 792.4743 244.66816 798.80476 C 241.51758 800.88185 238.33469 802.94423 234.86048 804.44476 C 228.72216 807.48466 222.85613 811.03957 216.72976 814.10451 C 206.3491 819.37416 195.72807 824.2096 184.77876 828.1796 C 175.3323 831.48596 165.27344 833.70923 155.21875 832.8125 C 148.80883 832.09175 142.36891 829.27066 138.32906 824.10283 C 135.99765 821.06261 135.09407 817.14402 135.25 813.36252 C 135.30945 808.88142 135.81595 804.41475 136.4077 799.97639 C 137.22904 794.89327 138.61203 789.90723 140.58067 785.14788 C 144.0844 775.89216 148.32645 766.91445 153.34005 758.37976 C 156.56226 752.73694 160.38479 747.34593 165.34955 743.09749 C 171.89738 736.98304 179.06735 731.5133 186.7654 726.92688 C 192.31233 723.75636 198.24243 721.3423 204.22052 719.12147 C 206.90411 718.07619 209.58099 716.92995 211.9375 715.25 C 213.77838 712.73847 212.84337 709.05682 210.66958 707.06372 C 208.2424 704.70237 204.66208 704.46098 201.46875 704.1875 C 194.59698 703.79603 187.95382 706.24935 181.8977 709.26661 C 174.52196 712.73589 167.88253 717.58194 161.67948 722.82812 C 154.28051 729.13892 147.24257 736 141.74066 744.06426 C 138.76992 748.46304 136.2238 753.13289 133.6929 757.79364 C 129.67099 765.29423 126.29542 773.1513 123.84968 781.30873 C 121.04071 790.28032 119.00879 799.52206 118.15708 808.89133 C 117.71844 815.02035 117.88035 821.44567 120.57291 827.09497 C 123.26441 833.16734 127.97422 838.295 133.74545 841.57209 C 135.78653 842.89345 138.10032 843.85025 139.90625 845.5 C 140.97874 846.73905 140.98362 848.70862 139.82412 849.89503 C 137.85511 852.75432 135.15101 855.01022 133.17747 857.87129 C 125.95601 867.20136 120.78705 877.89111 115.89979 888.57046 C 111.02716 899.55091 107.43115 911.0532 104.5232 922.69622 C 100.689 938.0504 97.971496 953.69212 96.51499 969.45261 C 95.484655 981.43184 95.19222 993.51213 96.339784 1005.4933 C 96.846523 1009.869 98.284613 1014.0488 99.807923 1018.1577 C 100.92958 1021.463 102.5977 1024.9482 105.84602 1026.6235 C 107.6813 1027.5981 109.81644 1028.6074 111.92986 1027.9985 C 113.50243 1027.548 115.17469 1027.9184 116.70468 1027.2859 C 119.15952 1026.4232 121.48269 1025.1453 124.05616 1024.6536 C 136.52765 1020.9155 149.06494 1017.4 161.5625 1013.75 C 173.8748 1010.5121 186.43277 1008.3449 199.00124 1006.3806 C 210.46077 1004.5475 221.94111 1002.8029 233.49429 1001.6682 C 243.36789 1000.622 253.27804 999.95939 263.1552 998.9448 C 270.28867 998.24315 277.41765 997.45026 284.5 996.34375 C 287.93296 995.63356 291.31925 993.3303 292.21875 989.78125 C 293.02766 986.66966 292.0446 983.27926 289.95189 980.88571 C 288.38753 978.84404 286.77659 976.45873 287.09616 973.75471 C 287.36939 952.68792 287.74745 931.6126 287.15825 910.54793 C 286.85005 899.23018 286.28212 887.90459 284.78735 876.67384 C 283.96798 870.3002 283.02414 863.94137 282.00367 857.59707 C 280.70623 849.73191 278.99573 841.86864 275.93914 834.48119 C 273.87821 829.67687 270.66376 825.04548 265.85409 822.69371 C 263.49843 821.54198 260.52774 820.89502 258.09111 822.15412 C 255.31248 823.63131 253.81598 827.07018 254.66322 830.10895 C 255.53087 835.43382 258.90446 839.86379 260.39992 844.98638 C 263.9575 855.09278 265.08335 865.80936 266.68717 876.34299 C 268.23549 887.55067 269.35818 898.83592 269.5 910.15625 C 270.02684 928.87224 270.2917 947.60068 271.32716 966.29794 C 271.51749 969.07093 271.66128 971.84688 271.75 974.625 C 272.30249 975.90815 270.80996 976.63983 270.28125 977.59375 C 269.736 978.58874 269.68212 980.36276 268.24065 980.43605 C 264.49189 981.01836 260.68447 981.06153 256.9188 981.51011 C 249.30345 982.20611 241.69493 982.97599 234.09375 983.8125 C 233.10355 984.10536 232.03153 984.68675 231 984.21875 C 222.90395 984.46677 214.95338 986.15352 206.93312 987.13428 C 199.22987 988.17676 191.5414 989.34153 183.84856 990.44402 C 180.0415 990.47736 176.4011 991.71138 172.68602 992.38807 C 166.46846 993.64902 160.2564 994.95258 154.13388 996.62415 C 144.389 999.04611 134.66761 1001.5778 125.07299 1004.5457 C 122.21845 1005.3517 119.24098 1005.634 116.28635 1005.6441 C 114.57056 1005.6124 113.72554 1003.7284 113.53125 1002.25 C 112.9409 997.19421 112.9633 992.08505 112.9375 987 C 113.07803 977.4977 113.89299 968.02024 114.83805 958.56899 C 115.94129 950.35151 117.95951 942.29659 119.53854 934.16505 C 120.34273 930.20778 121.49374 926.33393 122.91016 922.5539 C 126.52993 912.19303 130.21594 901.82412 134.96124 891.91435 C 137.79808 886.1853 140.82045 880.52711 144.34375 875.1875 C 147.59245 870.31406 151.39399 865.84817 155.30721 861.50206 C 158.63443 857.71104 161.85947 853.82097 164.91601 849.81397 C 166.92952 848.05734 169.7442 848.0732 172.21875 847.5 C 174.85231 847.34388 177.64924 847.91067 180.11269 846.69778 C 189.01863 844.12316 197.83055 841.19426 206.38109 837.60099 C 212.4166 835.24628 218.47232 832.87716 224.13952 829.71149 C 230.79655 826.39511 237.46162 823.08255 243.88847 819.33255 C 250.19955 815.898 256.34074 812.12445 262.04204 807.7411 C 272.17164 800.29463 281.83331 792.13065 290.2717 782.78708 C 296.36707 776.00456 301.26191 768.09811 304.35706 759.50973 C 306.00915 754.63721 307.67984 749.62938 307.61624 744.42272 C 307.59161 740.77944 308.20859 737.14957 307.86133 733.5052 C 307.4561 728.58732 306.43344 723.72788 305.10158 718.98181 C 303.67418 714.06944 301.67368 709.20081 298.2395 705.33134 C 295.3832 701.97663 291.85348 699.2892 288.36081 696.63906 C 282.25605 692.04524 275.03366 688.48714 267.29123 688.10414 C 266.29927 688.03859 265.30581 688.01437 264.3125 688.0625 z "
       id="path3143"
       inkscape:connector-curvature="0" />
  </g>
</svg>
