<?xml version="1.0" encoding="UTF-8" standalone="no"?>
<!-- Created with Inkscape (http://www.inkscape.org/) -->

<svg
   xmlns:dc="http://purl.org/dc/elements/1.1/"
   xmlns:cc="http://creativecommons.org/ns#"
   xmlns:rdf="http://www.w3.org/1999/02/22-rdf-syntax-ns#"
   xmlns:svg="http://www.w3.org/2000/svg"
   xmlns="http://www.w3.org/2000/svg"
   xmlns:sodipodi="http://sodipodi.sourceforge.net/DTD/sodipodi-0.dtd"
   xmlns:inkscape="http://www.inkscape.org/namespaces/inkscape"
   width="400"
   height="400"
   id="svg2"
   version="1.1"
   inkscape:version="0.48.0 r9654"
   sodipodi:docname="New document 1">
  <defs
     id="defs4" />
  <sodipodi:namedview
     id="base"
     pagecolor="#ffffff"
     bordercolor="#666666"
     borderopacity="1.0"
     inkscape:pageopacity="0.0"
     inkscape:pageshadow="2"
     inkscape:zoom="1.565896"
     inkscape:cx="200"
     inkscape:cy="192.85714"
     inkscape:document-units="px"
     inkscape:current-layer="layer1"
     showgrid="false"
     inkscape:window-width="1680"
     inkscape:window-height="997"
     inkscape:window-x="0"
     inkscape:window-y="24"
     inkscape:window-maximized="1" />
  <metadata
     id="metadata7">
    <rdf:RDF>
      <cc:Work
         rdf:about="">
        <dc:format>image/svg+xml</dc:format>
        <dc:type
           rdf:resource="http://purl.org/dc/dcmitype/StillImage" />
        <dc:title></dc:title>
      </cc:Work>
    </rdf:RDF>
  </metadata>
  <g
     inkscape:label="Layer 1"
     inkscape:groupmode="layer"
     id="layer1"
     transform="translate(0,-652.36218)">
    <path
       style="fill:#000000"
       d="M 257.8125 702.4375 C 243.20002 703.07285 228.7592 705.63304 214.41771 708.36179 C 210.21757 709.55971 205.87054 710.33374 201.8719 712.14687 C 199.19275 713.11035 196.39549 713.72204 193.57697 714.05899 C 189.86622 715.26009 186.33505 716.97347 182.5837 718.04467 C 178.64859 719.84068 174.9398 722.12467 170.85674 723.59485 C 163.63237 726.81707 156.90242 731.00921 149.9504 734.75804 C 138.73847 741.05591 127.57471 747.55752 117.45456 755.5355 C 108.36055 762.45535 99.614601 769.85825 91.496949 777.90569 C 83.51361 786.28316 76.134746 795.21785 69.018254 804.3359 C 65.909826 808.5884 62.99134 812.98691 60.317239 817.52177 C 55.610138 827.39668 51.200894 837.49725 48.59375 848.15625 C 45.578092 859.32614 43.851774 870.87818 43.96875 882.46246 C 43.940428 894.34586 45.260615 906.19434 47.111085 917.9194 C 47.90346 923.00781 49.051668 928.06369 50.988024 932.84765 C 52.594934 937.4925 54.08971 942.28764 57.061225 946.27934 C 59.504872 949.94243 62.100331 953.51397 64.854816 956.94943 C 69.467107 962.49272 75.273666 967.03217 81.800544 970.10635 C 92.933139 975.8296 105.27307 978.74987 117.62266 980.34903 C 130.88304 981.90253 144.29094 981.36727 157.5564 980.16483 C 167.00999 979.08685 176.41181 977.38898 185.52213 974.60993 C 195.50118 971.57061 205.30608 967.98725 215.06186 964.30283 C 224.99672 960.44259 234.92806 956.32953 243.87591 950.46533 C 248.82701 947.31093 253.61818 943.82491 257.7618 939.65374 C 260.10225 936.92488 261.04289 932.77851 259.23075 929.52399 C 258.3953 927.6889 256.9373 925.51437 254.65625 925.65625 C 252.4955 925.86984 250.61515 927.11606 248.67356 927.98961 C 241.98129 931.62678 236.22676 936.72164 229.63988 940.52939 C 220.35983 946.4279 210.34106 951.11201 200.03023 954.90293 C 188.88439 958.89924 177.38827 961.81365 165.875 964.53125 C 157.44108 965.05809 149.00371 965.77496 140.54533 965.5625 C 132.4199 965.62192 124.26302 965.49712 116.21271 964.28413 C 107.93827 963.11154 99.825895 960.73202 92.237601 957.2313 C 86.667818 954.64025 81.410971 951.10998 77.539999 946.28032 C 73.522304 941.52339 70.658556 935.91214 68.401323 930.1396 C 65.288729 922.94676 62.915266 915.44256 61.268249 907.78173 C 59.153589 899.56215 58.052863 890.97996 59.060997 882.5106 C 59.463721 877.43392 59.043742 872.28704 60.079346 867.26802 C 60.985777 862.18846 61.993076 857.12075 63.207832 852.10587 C 65.446323 843.96058 68.668388 836.10901 72.491495 828.58671 C 74.349861 825.37069 76.192383 822.13351 77.932495 818.85962 C 80.113056 815.83357 82.334499 812.83541 84.346608 809.69439 C 90.268095 801.03506 97.104794 793.01195 104.6614 785.73814 C 111.36219 778.85098 118.23954 772.0863 125.93043 766.29591 C 136.47977 757.97417 147.56146 750.2675 159.4517 743.97576 C 176.80079 734.73264 195.21226 727.48684 214.20995 722.43362 C 230.10306 718.22285 246.51385 715.61211 262.98901 715.875 C 275.24128 716.00699 287.50713 717.57817 299.33404 720.80774 C 310.51129 723.93098 321.3274 728.78732 330.46733 736.01656 C 337.94407 742.0431 344.04389 750.1343 346.57432 759.49016 C 348.13387 765.89216 348.5344 772.58643 347.77961 779.13123 C 347.17722 784.3273 345.62023 789.36146 343.5625 794.15625 C 339.16444 805.02678 333.6204 815.41653 327.34615 825.31477 C 317.95158 839.80857 307.55639 853.61793 297.08394 867.34194 C 294.85718 870.36784 292.3098 873.2039 290.54935 876.54142 C 288.16702 881.39971 287.96745 886.93664 287.94196 892.24525 C 288.12574 900.16121 288.9261 908.05871 290.32495 915.85207 C 292.2051 926.43861 294.80333 936.89035 297.77685 947.21926 C 300.52621 956.2112 303.84658 965.01841 307.15625 973.8125 C 307.23096 974.82087 305.81542 975.5151 305.13149 974.67642 C 303.00384 973.16161 301.11042 971.34526 299.18176 969.59098 C 292.22931 962.87927 287.28321 954.24422 284.48056 945.02735 C 282.13913 937.87203 281.40319 930.33226 279.70043 923.02699 C 278.91236 920.66901 278.15383 918.18618 276.5792 916.22567 C 274.41484 914.44972 270.94563 913.50944 268.54475 915.3642 C 265.90137 917.44845 265.42515 921.02614 265.03173 924.14895 C 263.72586 931.14095 265.27784 938.26667 267.39848 944.93419 C 269.7884 953.52977 272.60618 962.05955 276.76205 969.98083 C 281.28325 979.00894 287.55365 987.43003 296.08009 993.02619 C 301.41457 996.54627 307.19829 999.314 312.96875 1002.0312 C 316.69058 1003.6492 320.93889 1005.1146 324.97655 1003.7746 C 328.64472 1002.5643 332.02135 1000.6004 335.26655 998.53617 C 336.54575 997.72537 337.91999 996.63782 337.92892 994.97485 C 338.12068 992.25209 336.75231 989.74279 335.79965 987.27094 C 332.82584 980.46144 327.61882 974.966 324.21874 968.40142 C 321.93565 963.63728 320.07048 958.68587 318.15644 953.76614 C 313.46809 940.94844 310.1157 927.63325 308.24135 914.11246 C 307.29472 906.90348 306.401 899.68308 305.74116 892.44241 C 305.38219 887.67382 305.69128 882.58756 308.31195 878.43648 C 310.96253 873.89752 314.49801 869.965 317.4373 865.61929 C 327.34077 851.93329 336.77939 837.88223 345.10594 823.17456 C 350.7681 812.87909 355.82912 802.18036 359.21875 790.90625 C 362.17057 780.86712 363.75762 770.19035 362.0225 759.78111 C 360.77188 752.40854 357.75389 745.47869 354.47255 738.80961 C 352.24428 734.93 349.32094 731.50007 346.30824 728.21449 C 342.17417 724.09794 337.27559 720.83722 332.30826 717.81871 C 326.41834 714.54598 320.09133 712.14352 313.7438 709.92502 C 308.42879 708.09548 302.99645 706.5996 297.44673 705.68033 C 288.85648 704.15923 280.15752 703.30296 271.45609 702.74072 C 266.91427 702.47153 262.36201 702.34399 257.8125 702.4375 z "
       id="path3095"
       inkscape:connector-curvature="0" />
  </g>
</svg>
