<?xml version="1.0" encoding="UTF-8" standalone="no"?>
<!-- Created with Inkscape (http://www.inkscape.org/) -->

<svg
   xmlns:dc="http://purl.org/dc/elements/1.1/"
   xmlns:cc="http://creativecommons.org/ns#"
   xmlns:rdf="http://www.w3.org/1999/02/22-rdf-syntax-ns#"
   xmlns:svg="http://www.w3.org/2000/svg"
   xmlns="http://www.w3.org/2000/svg"
   xmlns:sodipodi="http://sodipodi.sourceforge.net/DTD/sodipodi-0.dtd"
   xmlns:inkscape="http://www.inkscape.org/namespaces/inkscape"
   width="400"
   height="400"
   id="svg2"
   version="1.1"
   inkscape:version="0.48.0 r9654"
   sodipodi:docname="star.svg">
  <defs
     id="defs4" />
  <sodipodi:namedview
     id="base"
     pagecolor="#ffffff"
     bordercolor="#666666"
     borderopacity="1.0"
     inkscape:pageopacity="0.0"
     inkscape:pageshadow="2"
     inkscape:zoom="1.6029586"
     inkscape:cx="218.57143"
     inkscape:cy="242.94358"
     inkscape:document-units="px"
     inkscape:current-layer="layer1"
     showgrid="false"
     inkscape:window-width="1680"
     inkscape:window-height="997"
     inkscape:window-x="0"
     inkscape:window-y="24"
     inkscape:window-maximized="1" />
  <metadata
     id="metadata7">
    <rdf:RDF>
      <cc:Work
         rdf:about="">
        <dc:format>image/svg+xml</dc:format>
        <dc:type
           rdf:resource="http://purl.org/dc/dcmitype/StillImage" />
        <dc:title></dc:title>
      </cc:Work>
    </rdf:RDF>
  </metadata>
  <g
     inkscape:label="Layer 1"
     inkscape:groupmode="layer"
     id="layer1"
     transform="translate(0,-652.36218)">
    <g
       id="g3196">
      <path
         id="path3167"
         transform="translate(0,652.36218)"
         d="M 279.5 134.3125 C 274.26095 134.97027 269.24436 136.69058 264.09375 137.78125 C 255.56306 141.91293 246.48393 145.44302 239.34991 151.87509 C 236.97564 154.18741 235.3383 157.50573 235.56546 160.86708 C 235.79965 162.63156 236.90516 164.08267 237.9375 165.46875 C 238.74142 165.85057 240.15674 165.75295 240.3125 166.875 C 242.32465 167.89064 244.42564 166.50016 246.09375 165.4375 C 249.51279 163.38814 252.85331 161.10321 256.65625 159.8125 C 257.97902 159.89497 258.60197 161.71333 257.78125 162.6875 C 256.07411 167.7312 253.95083 172.89946 254.4375 178.33436 C 254.45431 181.01596 254.78407 184.13399 256.97406 185.96053 C 259.83259 187.56376 263.67203 185.31906 264.18281 182.20157 C 266.33114 175.49645 269.47615 168.92804 274.49624 163.88599 C 278.0853 159.9856 281.72606 156.09806 284.67094 151.67151 C 287.03458 148.45932 289.84677 145.18883 290.28125 141.0625 C 290.49612 138.53241 289.08727 135.8836 286.64447 134.99049 C 284.41037 134.05438 281.86828 134.15177 279.5 134.3125 z "
         style="fill:#000000" />
      <path
         transform="translate(0,652.36218)"
         id="path3095"
         d="M 146.65625 230.40625 C 143.58552 231.37799 140.43524 232.22611 137.64444 233.88443 C 127.0567 238.42572 116.3695 242.82317 106.32332 248.49992 C 99.89734 251.90478 93.526321 255.58272 86.495798 257.61216 C 80.836929 259.5489 75.006551 261.64069 70.44674 265.64148 C 68.93437 267.47395 68.750844 270.08335 69.503487 272.27323 C 69.973663 274.8575 70.694376 277.89933 73.289107 279.14495 C 76.740528 281.02525 80.906498 279.97814 84.2203 278.30941 C 88.590911 276.43745 92.833758 274.28268 97.066578 272.12772 C 100.86203 270.52989 105.06163 270.74262 109.08422 270.36485 C 112.35803 270.15848 115.66291 270.82451 118.90625 270.1875 C 120.03338 270.01406 121.11006 270.7428 122.22624 270.27238 C 124.10211 270.00951 125.98741 270.62793 127.86993 270.69927 C 130.1853 270.82477 132.50914 270.50654 134.82259 270.80909 C 137.45319 271.0179 140.03899 271.62975 142.68984 271.57185 C 145.96666 271.72103 149.30347 271.57757 152.51885 272.30253 C 156.411 273.41429 160.49352 273.51966 164.49274 273.99519 C 166.52967 274.368 168.59375 274.18012 170.60931 273.76797 C 172.62535 273.37018 175.1993 273.61813 176.28125 275.625 C 177.63623 278.08679 177.65768 281.00243 178.21105 283.70261 C 178.81419 287.45859 179.66454 291.18141 180.7999 294.80685 C 181.4304 301.78888 183.20547 308.59402 184.3404 315.49831 C 185.85584 323.37006 187.52653 331.21538 188.71542 339.14549 C 190.09733 347.05102 191.43284 354.96499 192.52122 362.91699 C 193.16042 366.88816 193.66474 370.91332 194.82661 374.77125 C 195.93788 377.87493 197.7244 380.85857 200.4375 382.8125 C 201.90368 382.90576 202.96907 381.66555 204.0902 380.92587 C 205.38371 379.49509 205.87703 377.5602 206.48501 375.78667 C 207.52753 366.22724 206.87509 356.56347 208.12786 347.0217 C 208.30969 345.59956 208.28218 344.09088 208.63608 342.72524 C 209.23559 341.98653 209.31655 340.83877 208.6875 340.09375 C 210.24821 335.40122 210.16926 330.38715 211.2207 325.58499 C 212.25466 320.06247 213.39623 314.55964 214.44563 309.04023 C 216.74927 298.36297 219.86695 287.88698 222.9421 277.41449 C 223.40223 275.41379 223.45565 273.30121 222.90625 271.3125 C 220.99484 269.93054 218.87987 267.97612 216.31943 268.59101 C 213.08602 269.13905 211.01292 272.09714 209.75669 274.89613 C 207.59029 279.74451 206.42188 284.95329 204.66209 289.94955 C 202.96373 295.56194 201.71402 301.30445 200.14214 306.94723 C 199.76925 308.01921 198.64893 309.3708 197.40201 308.69371 C 195.48718 307.56803 195.46898 305.08621 194.86572 303.18702 C 193.83286 299.0652 192.91003 294.91493 191.82911 290.80615 C 189.56558 280.0833 188.33359 268.97832 183.75 258.90625 C 182.36772 256.13883 179.97088 253.73833 176.87977 253.03394 C 175.2867 252.49756 173.35355 252.59353 172.1156 253.84681 C 170.46721 255.21469 168.47698 256.30999 166.27662 256.26341 C 160.37971 256.71829 154.60764 255.04067 148.74067 254.80727 C 145.43482 254.58259 142.13589 254.09552 138.9375 253.21875 C 138.11665 252.58475 138.82655 251.17603 139.78125 251.21875 C 144.61024 248.54991 149.65944 245.66576 152.71875 240.90625 C 154.14688 237.87642 153.97195 233.67824 151.1875 231.46875 C 149.98426 230.60948 148.49864 230.20073 147.03125 230.15625 C 146.90625 230.23958 146.78125 230.32292 146.65625 230.40625 z "
         style="fill:#000000" />
      <path
         id="path3097"
         transform="translate(0,652.36218)"
         d="M 235.875 197.8125 C 233.31444 197.90487 230.62994 197.68612 228.21875 198.71875 C 225.99355 202.38219 227.15996 207.19689 229.75819 210.34916 C 232.81732 214.31815 237.81758 216.24545 242.65625 216.875 C 246.20019 217.91125 249.72795 219.23095 253.45591 219.36265 C 259.06715 220.11043 264.58197 221.56058 270.25361 221.83731 C 274.07142 222.20561 277.89671 222.52741 281.6875 223.125 C 282.25287 224.49036 280.7266 225.50674 279.65094 225.96053 C 273.74708 229.15167 267.18352 230.90538 261.33936 234.22478 C 257.41149 236.2804 253.32369 238.31219 250.21162 241.53749 C 248.37587 243.79201 248.38632 247.52589 250.72963 249.43479 C 252.53034 251.05331 255.15648 251.00143 257.38958 250.57175 C 263.8956 249.93832 269.98885 247.38995 276.25 245.6875 C 280.64408 244.0133 285.02608 242.28457 289.58105 241.08847 C 297.104 238.75583 304.72164 236.68263 312.09573 233.90413 C 316.26489 232.08302 320.4157 230.17235 324.3285 227.84787 C 328.43039 225.13034 331.49593 220.28664 330.88293 215.23555 C 330.73486 213.64499 330.12967 211.71205 328.34294 211.34649 C 321.40732 208.76602 314.01786 207.768 306.67836 207.18026 C 293.78855 205.93753 280.89238 204.74505 268.02099 203.32378 C 264.53411 202.87698 261.01813 202.57056 257.5547 201.99331 C 253.29161 200.76951 248.89978 200.08225 244.59375 199.03125 C 241.71653 198.49124 238.8126 197.81094 235.875 197.8125 z "
         style="fill:#000000" />
      <path
         id="path3099"
         transform="translate(0,652.36218)"
         d="M 256.5 267.53125 C 253.19185 268.18219 251.48964 272.45866 253.08036 275.33946 C 254.6744 279.34528 257.0536 282.95833 259.58467 286.42452 C 260.76742 287.71987 261.29634 290.04551 259.885 291.35968 C 257.1384 293.08051 253.7024 292.93531 250.75 294.15625 C 247.22133 295.07342 243.64358 295.96629 240.375 297.625 C 237.43744 300.45655 238.19044 305.72025 241.32778 308.1108 C 244.27293 310.66092 248.4636 310.83848 252.11964 310.14064 C 254.93934 309.94772 257.82421 309.50712 260.60578 310.19993 C 263.362 310.55741 266.16631 310.40063 268.9217 310.15055 C 272.60686 309.40207 276.43262 308.96817 279.87444 307.37294 C 284.25434 304.96141 286.38078 299.53404 285.62151 294.70556 C 285.23698 291.76364 283.63909 289.09239 281.41192 287.16192 C 278.05412 283.72817 274.35824 280.60057 271.44098 276.76125 C 268.08746 273.02046 264.28423 269.31532 259.375 267.78125 C 258.42644 267.60738 257.46856 267.4142 256.5 267.53125 z "
         style="fill:#000000" />
      <path
         id="path3101"
         transform="translate(0,652.36218)"
         d="M 135.875 290.3125 C 131.98818 291.87175 129.69664 295.89038 128.97138 299.85408 C 128.27258 302.56938 127.57379 305.28469 126.875 308 C 125.20316 309.57833 125.79522 312.09323 125.47722 314.1395 C 125.06959 318.4234 124.2547 323.0493 126.34401 327.04917 C 127.84344 330.26522 131.10222 333.0608 134.83407 332.70414 C 139.16921 332.51165 142.76347 329.76837 146.33148 327.60094 C 154.33042 322.34403 162.58395 317.32844 169.65296 310.82392 C 172.26939 307.99095 174.70551 304.50194 174.76306 300.5056 C 174.09109 297.03902 169.53352 295.29069 166.61042 297.15883 C 159.31617 299.86294 152.90227 304.39236 145.84375 307.59375 C 144.67528 307.95842 143.36743 308.65457 142.14899 308.23075 C 140.72503 307.57877 141.21086 305.82314 141.38091 304.60959 C 142.02194 301.31691 143.97134 298.00409 142.84375 294.59375 C 141.98363 291.9666 139.30895 289.71333 136.45157 290.12031 C 136.25938 290.18437 136.06719 290.24844 135.875 290.3125 z "
         style="fill:#000000" />
      <path
         id="path3103"
         transform="translate(0,652.36218)"
         d="M 100.125 143.25 C 98.373009 143.2953 96.562101 143.1899 94.90625 143.875 C 92.13867 148.45278 92.864789 154.57686 96.070153 158.74585 C 98.162046 161.96886 100.76222 164.84408 102.625 168.21875 C 105.63785 170.44103 107.5782 173.73752 110.24125 176.32288 C 111.73912 178.06145 113.51396 179.62139 114.70652 181.58605 C 115.51123 183.08101 117.21651 183.75026 118.1875 185.125 C 119.725 186.80804 121.38531 188.36589 123.19399 189.7511 C 127.25357 193.23993 131.27409 196.81269 135.81256 199.67862 C 137.88491 201.22495 140.2014 202.48762 142.68724 203.18907 C 144.74621 204.54722 147.51448 204.38307 149.53835 203.04119 C 153.54978 200.48234 155.20202 195.31481 154.59375 190.75 C 154.25883 188.3141 153.46665 185.58645 151.21875 184.25 C 149.62296 183.04848 147.57003 183.41065 145.72593 183.1262 C 143.89408 182.89399 142.00587 182.3305 140.73054 180.91922 C 136.72619 177.79016 132.38138 174.90067 129.375 170.71875 C 129.09318 169.48224 130.72809 168.8398 131.6875 169.28125 C 136.41488 169.61909 141.14522 171.60862 145.89218 170.37969 C 149.38256 169.28369 151.18217 165.4582 151.1875 162.00469 C 151.33221 159.43934 150.20652 156.59735 147.69855 155.56214 C 144.77192 154.16848 141.56165 153.5136 138.45625 152.63654 C 130.223 150.69834 121.78087 149.44665 113.8524 146.39622 C 112.13093 145.81667 110.3003 145.47696 108.60725 144.8858 C 106.90237 143.50651 104.56659 143.85818 102.56766 143.33073 C 101.75445 143.28125 100.93998 143.1773 100.125 143.25 z "
         style="fill:#000000" />
      <path
         id="path3105"
         transform="translate(0,652.36218)"
         d="M 208.28125 34.5 C 203.93411 36.309196 201.28114 40.630513 199.89963 44.950484 C 194.78646 57.333963 191.97313 70.484828 188.96619 83.493386 C 185.05931 100.80949 181.37074 118.18997 176.55751 135.284 C 172.79071 148.56673 168.38259 161.65365 164.32471 174.84778 C 163.65656 176.67761 163.08432 178.65592 163.6794 180.59106 C 164.62694 184.59393 168.13346 188.18852 172.37008 188.39712 C 175.67915 188.28708 178.25135 185.20801 178.54602 182.04183 C 182.86182 165.5757 187.04083 149.05372 190.04201 132.28885 C 191.70802 123.08524 193.22734 113.85557 194.74561 104.62648 C 196.90998 92.138703 199.02426 79.590207 202.74337 67.45094 C 204.01223 63.30415 205.48394 59.225591 207.0625 55.1875 C 208.09221 53.983865 210.34106 55.302986 209.875 56.78125 C 210.81743 69.864323 211.05992 82.989028 210.80486 96.101503 C 210.68359 110.97106 210.43892 125.88571 212.00457 140.6969 C 212.65594 146.98336 212.98179 153.36442 214.67774 159.48198 C 216.03461 164.01862 217.95092 168.40234 220.39545 172.45525 C 221.32053 173.79536 223.01891 174.98711 224.6875 174.25 C 226.57685 173.6548 227.69427 171.67787 227.64546 169.76306 C 228.56352 163.69987 227.25959 157.61759 226.98263 151.55821 C 226.01029 141.22722 225.3961 130.86705 224.99853 120.499 C 224.53472 109.71875 224.41506 98.924977 223.85219 88.148754 C 223.5764 84.010309 223.29821 79.872458 223.24391 75.723544 C 223.03189 69.184445 222.18546 62.685038 221.41062 56.19418 C 220.63066 50.719679 219.73992 45.06116 216.90235 40.21904 C 215.15376 37.14955 211.92843 35.031147 208.46875 34.4375 L 208.29532 34.495309 L 208.28125 34.5 z "
         style="fill:#000000" />
    </g>
  </g>
</svg>
