<?xml version="1.0" encoding="UTF-8" standalone="no"?>
<!-- Created with Inkscape (http://www.inkscape.org/) -->

<svg
   xmlns:dc="http://purl.org/dc/elements/1.1/"
   xmlns:cc="http://creativecommons.org/ns#"
   xmlns:rdf="http://www.w3.org/1999/02/22-rdf-syntax-ns#"
   xmlns:svg="http://www.w3.org/2000/svg"
   xmlns="http://www.w3.org/2000/svg"
   xmlns:sodipodi="http://sodipodi.sourceforge.net/DTD/sodipodi-0.dtd"
   xmlns:inkscape="http://www.inkscape.org/namespaces/inkscape"
   width="400"
   height="400"
   id="svg2"
   version="1.1"
   inkscape:version="0.48.0 r9654"
   sodipodi:docname="New document 1">
  <defs
     id="defs4" />
  <sodipodi:namedview
     id="base"
     pagecolor="#ffffff"
     bordercolor="#666666"
     borderopacity="1.0"
     inkscape:pageopacity="0.0"
     inkscape:pageshadow="2"
     inkscape:zoom="1.7254777"
     inkscape:cx="205.71429"
     inkscape:cy="201.42857"
     inkscape:document-units="px"
     inkscape:current-layer="layer1"
     showgrid="false"
     inkscape:window-width="1680"
     inkscape:window-height="997"
     inkscape:window-x="0"
     inkscape:window-y="24"
     inkscape:window-maximized="1" />
  <metadata
     id="metadata7">
    <rdf:RDF>
      <cc:Work
         rdf:about="">
        <dc:format>image/svg+xml</dc:format>
        <dc:type
           rdf:resource="http://purl.org/dc/dcmitype/StillImage" />
        <dc:title></dc:title>
      </cc:Work>
    </rdf:RDF>
  </metadata>
  <g
     inkscape:label="Layer 1"
     inkscape:groupmode="layer"
     id="layer1"
     transform="translate(0,-652.36218)">
    <path
       style="fill:#000000"
       d="M 183.84375 710.75 C 177.2524 711.18928 170.75993 712.58206 164.35523 714.15441 C 155.17351 716.50782 146.22255 719.68049 137.39942 723.12396 C 126.48849 727.36484 115.91626 732.48346 105.87226 738.50001 C 100.17533 741.9146 94.50609 745.45203 89.524763 749.8761 C 82.555639 756.00301 76.626946 763.60262 73.629858 772.47 C 72.334359 776.12669 71.477994 780.13725 72.53125 783.96875 C 73.930047 788.87961 77.737315 792.68557 81.817197 795.54519 C 89.07667 800.79536 97.870549 803.22849 106.49196 805.17697 C 116.60325 807.48365 127.01933 808.13916 137.36703 807.94798 C 149.42485 807.83164 161.47252 807.18941 173.4996 806.35003 C 187.92672 805.24793 202.2396 802.95197 216.41051 800.06919 C 224.13595 798.41148 231.7879 796.42888 239.41354 794.36655 C 246.26114 792.5004 252.91559 790.01269 259.53752 787.47645 C 268.71043 783.98547 277.26345 779.0795 285.58492 773.92314 C 290.35968 770.66646 294.168 765.61927 294.95232 759.79158 C 295.88827 753.32662 292.62493 746.6602 287.31286 742.98133 C 281.73082 738.81558 275.13579 736.36454 268.71736 733.8173 C 258.73017 730.21851 248.12449 728.51875 237.52889 728.30365 C 231.03958 728.03791 224.38519 727.97267 218.125 729.9375 C 216.49554 730.61576 215.92864 732.87075 217.09375 734.21875 C 218.49736 735.84576 220.81698 735.97721 222.77513 736.4401 C 228.42006 737.41334 234.03243 738.56501 239.68444 739.50471 C 247.15213 740.86491 254.67602 742.32705 261.74274 745.17426 C 268.28455 748.02812 274.62672 751.93597 278.96875 757.71875 C 281.4741 761.71958 279.44374 767.51774 275.24413 769.46228 C 271.88865 771.45756 268.24067 772.87982 264.73816 774.58507 C 251.66205 780.46677 237.84303 784.57876 223.79872 787.39218 C 212.4576 789.75284 201.06609 791.89388 189.61334 793.64006 C 177.50059 795.37624 165.28239 796.3471 153.05007 796.62908 C 142.94586 796.94632 132.81394 796.85323 122.73739 795.99777 C 112.6503 794.96314 102.52903 792.49852 93.684971 787.40473 C 89.958276 785.19091 86.391414 782.18256 84.759383 778.0594 C 83.784378 775.38488 84.497496 772.35536 86.130995 770.09323 C 88.369502 766.65377 91.049525 763.51501 93.823802 760.50006 C 99.234514 754.69123 105.58092 749.79397 112.44055 745.81416 C 120.60844 741.0204 129.35696 737.33793 138.03851 733.59629 C 150.49103 728.39173 163.17766 723.66701 176.23705 720.2151 C 180.04819 719.14445 183.92242 718.27329 187.72601 717.1995 C 189.35448 716.23421 188.98996 713.88964 188.09375 712.53125 C 187.17637 711.14326 185.4455 710.59274 183.84375 710.75 z M 298.1875 787.25 C 294.30015 788.45399 291.88614 792.04177 290.10982 795.47918 C 279.8176 814.71649 269.79095 834.14445 261.60282 854.38813 C 254.83635 870.85734 249.04989 887.75016 244.70435 905.02354 C 241.58127 917.76255 239.50637 930.74607 238.18132 943.7905 C 237.36682 952.58171 236.80022 961.41816 237.09375 970.25 C 237.25507 971.74538 237.26679 973.50926 238.65587 974.45281 C 240.25255 975.73271 242.75623 975.5717 244.13364 974.03152 C 246.83927 971.56035 247.44181 967.75476 247.91559 964.30544 C 250.16623 949.51859 251.30796 934.5858 253.60545 919.80582 C 255.6228 906.81012 258.67061 893.96109 262.9515 881.52051 C 265.32359 874.77283 267.70992 868.02933 270.12748 861.29788 C 273.30353 852.69372 277.49753 844.52419 281.20865 836.14899 C 285.32011 827.06553 289.93125 818.2237 294.47191 809.35089 C 297.3069 803.73079 299.92321 797.99313 302.125 792.09375 C 302.58334 789.77473 300.73099 786.95757 298.1875 787.25 z M 81.59375 804.40625 C 77.132188 805.52844 74.8578 811.27207 76.980495 815.2608 C 78.588525 818.57932 81.461974 821.02552 83.549276 824.02136 C 87.864729 829.4763 91.792605 835.24217 95.197982 841.30814 C 101.98693 852.16621 107.56581 863.7687 112.02669 875.76701 C 114.55524 882.65669 116.54444 889.73414 118.04075 896.91776 C 119.94527 905.78957 121.58539 914.77301 121.76089 923.86998 C 122.87103 940.80885 123.06689 957.7962 124.29631 974.7271 C 124.63987 977.71478 124.79023 980.90591 126.37313 983.54434 C 128.62742 986.79824 132.35436 988.55075 135.87229 990.10052 C 143.4157 993.04949 151.56027 993.72154 159.41983 995.43113 C 172.38088 997.96166 185.50367 1000.2977 198.76081 1000.0457 C 208.16897 999.96971 217.56631 999.22957 226.89873 998.06175 C 230.58989 997.51712 234.50991 996.07798 236.625 992.8125 C 238.05629 990.23837 236.33716 986.40165 233.28818 986.19024 C 229.88255 985.72515 226.4705 986.49087 223.06203 986.57584 C 212.84146 987.2765 202.51531 987.7798 192.3438 986.23027 C 181.81321 984.67408 171.26188 983.15915 160.85471 980.89663 C 154.50738 979.46956 148.09924 977.83513 142.34128 974.7218 C 139.44187 973.17887 137.77503 969.86299 137.80676 966.63626 C 137.23397 961.27989 137.41034 955.88099 137.0238 950.51247 C 136.37745 935.68953 135.94553 920.83012 134.07878 906.0965 C 132.8337 896.5874 130.50481 887.24538 127.53173 878.13562 C 123.562 865.65138 118.78997 853.38925 112.71017 841.77177 C 108.7171 834.06613 104.12554 826.66556 99.028776 819.64254 C 95.300324 814.69889 91.274889 809.88534 86.381749 806.05105 C 85.016221 804.99705 83.353095 804.23617 81.59375 804.40625 z M 173.625 830.59375 C 170.10954 832.52113 168.85823 837.11071 169.98248 840.80219 C 172.34586 850.57986 175.30317 860.2237 179.12307 869.53521 C 180.17558 872.19109 181.32177 874.80837 182.4722 877.42035 C 183.31284 879.41206 183.54896 881.74571 182.54641 883.72755 C 179.14557 890.77326 175.40834 897.65205 172.02112 904.70553 C 167.76727 913.36067 163.71471 922.11263 159.6433 930.85401 C 158.08058 934.42184 156.23338 937.98173 155.73752 941.89042 C 155.43958 942.85126 155.99176 943.84896 157 944.03125 C 158.02215 944.32256 159.20335 943.7875 159.5414 942.75584 C 164.03854 936.34369 168.35632 929.80785 172.4453 923.12769 C 177.78014 914.55052 183.01003 905.87492 189.0625 897.78125 C 189.98368 896.99433 191.14663 897.82745 191.7 898.64876 C 192.84926 900.18347 193.46239 902.03796 194.61412 903.57012 C 197.2317 908.29732 199.96345 912.98186 202 918 C 205.05365 919.60724 206.54141 923.26952 209.90625 924.40625 C 212.16989 924.87206 214.26362 921.99046 213 920 C 209.30856 910.43406 204.81381 901.20434 201.05916 891.66363 C 199.96431 888.91556 198.7986 886.16672 197.92837 883.34867 C 197.724 879.74985 200.15009 876.82441 201.75224 873.8237 C 203.47982 870.71069 205.05252 867.36755 207.8408 865.04299 C 209.81673 862.97923 211.63762 860.64417 212.40625 857.84375 C 213.75298 854.66883 216.02067 851.9955 217.57114 848.92179 C 219.29812 845.70943 221.0715 842.37877 221.5625 838.71875 C 221.96044 836.282 219.74973 833.86798 217.28594 834.0625 C 214.81894 834.33498 212.9667 836.31704 211.55236 838.2032 C 207.104 844.4953 203.20919 851.1573 199.06758 857.65182 C 197.39208 860.29423 195.77425 862.97622 194.0625 865.59375 C 192.76967 866.91012 190.39911 865.94226 190 864.25 C 188.8747 861.54054 188.54533 858.5825 187.55473 855.82658 C 185.6877 849.13311 184.32813 842.25996 181.69247 835.80895 C 180.10499 832.93055 177.08248 830.81154 173.78125 830.53125 L 173.625 830.59375 z "
       id="path3079"
       inkscape:connector-curvature="0" />
  </g>
</svg>
