<?xml version="1.0" encoding="UTF-8" standalone="no"?>
<!-- Created with Inkscape (http://www.inkscape.org/) -->

<svg
   xmlns:dc="http://purl.org/dc/elements/1.1/"
   xmlns:cc="http://creativecommons.org/ns#"
   xmlns:rdf="http://www.w3.org/1999/02/22-rdf-syntax-ns#"
   xmlns:svg="http://www.w3.org/2000/svg"
   xmlns="http://www.w3.org/2000/svg"
   xmlns:sodipodi="http://sodipodi.sourceforge.net/DTD/sodipodi-0.dtd"
   xmlns:inkscape="http://www.inkscape.org/namespaces/inkscape"
   width="400"
   height="400"
   id="svg2"
   version="1.1"
   inkscape:version="0.48.0 r9654"
   sodipodi:docname="New document 1">
  <defs
     id="defs4" />
  <sodipodi:namedview
     id="base"
     pagecolor="#ffffff"
     bordercolor="#666666"
     borderopacity="1.0"
     inkscape:pageopacity="0.0"
     inkscape:pageshadow="2"
     inkscape:zoom="1.6418182"
     inkscape:cx="197.14286"
     inkscape:cy="201.42857"
     inkscape:document-units="px"
     inkscape:current-layer="layer1"
     showgrid="false"
     inkscape:window-width="1680"
     inkscape:window-height="997"
     inkscape:window-x="0"
     inkscape:window-y="24"
     inkscape:window-maximized="1" />
  <metadata
     id="metadata7">
    <rdf:RDF>
      <cc:Work
         rdf:about="">
        <dc:format>image/svg+xml</dc:format>
        <dc:type
           rdf:resource="http://purl.org/dc/dcmitype/StillImage" />
        <dc:title></dc:title>
      </cc:Work>
    </rdf:RDF>
  </metadata>
  <g
     inkscape:label="Layer 1"
     inkscape:groupmode="layer"
     id="layer1"
     transform="translate(0,-652.36218)">
    <path
       style="fill:#000000"
       d="M 160.875 698.6875 C 150.90149 699.66751 141.43237 703.25123 132.26017 707.10355 C 123.0126 710.89406 114.03597 715.37855 105.63361 720.80321 C 96.330362 726.75192 87.617904 733.58064 79.26082 740.78595 C 73.238713 746.11133 67.716889 751.96564 62.359951 757.95108 C 54.296445 766.7254 47.062707 776.25291 40.761419 786.36699 C 35.328418 795.12046 30.512894 804.29252 26.896358 813.95231 C 23.834503 821.85362 21.342154 829.98205 19.432544 838.23729 C 17.209137 847.99694 15.997659 857.99294 15.944481 868.00548 C 15.758865 882.64605 17.957418 897.42851 23.384511 911.07428 C 27.847614 921.97452 34.20941 932.03279 41.625 941.15625 C 50.435815 951.93071 61.047287 961.17895 72.736342 968.71369 C 81.067423 974.25118 89.786088 979.24558 98.983108 983.20439 C 107.1853 986.83303 115.69192 989.72726 124.24443 992.40628 C 132.29038 994.8139 140.37362 997.15525 148.64537 998.66233 C 159.14301 1000.5982 169.76103 1001.8259 180.39088 1002.7563 C 190.08633 1003.5064 199.8349 1003.6551 209.53772 1002.951 C 222.18422 1002.279 234.8911 1001.174 247.19223 998.0167 C 259.4347 995.11725 271.41192 991.0778 282.9053 985.96009 C 295.96544 980.11608 308.32198 972.7127 319.65647 963.98224 C 325.37339 959.68265 331.02533 955.27174 336.15926 950.27705 C 340.82254 945.76751 345.18391 940.92812 348.96191 935.64732 C 352.51414 930.68349 356.09081 925.72168 359.07993 920.38912 C 362.39337 914.57033 365.15342 908.44311 367.53072 902.18748 C 370.25958 894.75541 372.36239 887.06493 373.46875 879.21875 C 374.46795 871.83773 374.62264 864.37518 374.6875 856.9375 C 374.58632 840.99657 372.10887 825.06054 367.17478 809.89526 C 362.57524 795.43635 355.95502 781.61384 347.43941 769.04974 C 340.19035 758.05956 331.4336 748.12757 321.89787 739.07379 C 318.17172 735.41614 314.52152 731.55129 309.90827 728.99213 C 301.52303 723.73077 292.84145 718.90329 283.71148 715.05257 C 272.70434 710.35797 261.03522 707.39705 249.28125 705.28125 C 242.00384 704.07212 234.65308 703.28165 227.27869 703.02824 C 223.24926 702.94291 219.20565 702.91743 215.18457 703.1878 C 211.67675 703.66988 208.12041 703.70455 204.625 704.28125 C 203.76429 704.89521 204.52457 706.53768 205.5625 706.25 C 207.97726 706.50961 210.12932 708.03372 212.59375 707.96875 C 215.6207 707.01241 218.80245 707.93286 221.87166 708.17623 C 225.44757 708.7576 228.98196 709.60819 232.56864 710.15044 C 238.17804 711.09653 243.63895 712.72954 249.19022 713.94896 C 254.41668 715.19249 259.61996 716.60272 264.59515 718.65185 C 267.38009 719.69459 270.26841 720.48295 272.98667 721.68776 C 274.94994 722.63937 276.67774 724.0271 278.76873 724.71874 C 282.28062 726.12362 285.80813 727.54183 289.01131 729.5803 C 303.93813 738.15099 316.98957 749.79498 327.77522 763.17086 C 336.1169 773.49367 343.20667 784.8444 348.64643 796.95663 C 352.59484 805.86874 355.90227 815.08269 358.30086 824.53474 C 361.97426 838.81364 363.55698 853.63549 362.92787 868.36693 C 362.46016 878.55223 361.06129 888.74905 357.97472 898.49109 C 354.46934 910.06932 348.47183 920.78121 341.09642 930.32804 C 335.6455 937.47587 329.29787 943.89793 322.5982 949.87245 C 320.43601 951.70068 318.19154 953.50284 315.7289 954.88809 C 314.4442 955.15594 313.53035 953.48308 314.0625 952.40625 C 315.28879 944.64704 319.18369 937.71155 322.16033 930.54257 C 325.05435 923.79192 327.61731 916.71623 327.96875 909.3125 C 328.11909 905.40059 326.89509 901.41361 324.26594 898.46913 C 318.89048 891.89179 309.97427 888.81916 301.63609 889.75397 C 296.15212 890.16775 291.09497 892.6221 285.66787 893.32163 C 281.82393 893.85251 277.98824 892.57359 274.66545 890.72017 C 269.4951 887.86534 265.49607 882.6789 264.71875 876.75 C 263.86538 870.0869 265.64863 862.88116 270.34375 857.9375 C 273.60995 854.44806 278.34222 853.12928 282.73903 851.70157 C 290.76188 848.93568 298.55687 845.53593 306.65458 842.97972 C 311.62213 841.27406 316.6938 839.7975 321.47071 837.59591 C 324.50333 835.97928 327.12457 833.12765 327.47486 829.58575 C 328.26801 825.01575 327.50826 820.34795 326.62019 815.84923 C 325.42616 810.81171 322.88985 805.77796 318.39183 802.9393 C 312.72348 799.03598 305.3055 797.6484 298.67933 799.67301 C 292.00416 801.45027 286.085 805.45989 281.42561 810.49937 C 276.82507 815.24067 272.64778 820.67182 266.71875 823.84375 C 264.35034 825.01859 261.53069 825.94524 258.90625 825.125 C 256.93484 824.38582 256.10976 822.2159 256.08361 820.25497 C 256.00537 817.65349 256.69165 815.0873 257.37001 812.59746 C 259.41873 805.96126 262.91867 799.8918 265.13921 793.31817 C 267.51284 787.53107 269.61922 781.60237 270.83565 775.45432 C 273.37463 764.71412 275.77058 753.86016 276.31072 742.80519 C 276.43393 739.10154 276.19501 735.2502 274.70767 731.81899 C 273.74693 730.19303 271.30154 730.61802 270.25027 731.91489 C 268.21301 734.41379 267.675 737.74388 267.16809 740.84006 C 265.46128 753.22037 263.98593 765.63824 261.96682 777.97356 C 261.30335 781.97464 260.48383 785.99675 258.69208 789.66695 C 255.06429 797.50491 249.46165 804.50018 247.48411 813.04461 C 245.92977 819.39529 245.8684 826.21336 247.83603 832.4738 C 249.20092 835.01049 252.30304 835.56914 254.89097 836.03415 C 262.48047 837.25896 270.41867 834.6302 276.22373 829.69965 C 282.75951 823.93192 287.94979 816.66842 295.23756 811.75829 C 297.20883 810.39538 299.40577 809.26146 301.83272 809.05909 C 305.85013 808.67771 309.81928 810.55835 312.65625 813.3125 C 314.37141 815.03349 315.39695 817.27971 315.94923 819.6202 C 316.63591 822.00281 317.49412 824.42878 317.40625 826.9375 C 317.26789 828.17439 315.95434 828.72724 314.93593 829.12011 C 309.09552 830.8115 303.29458 832.65258 297.49277 834.47812 C 289.25299 837.14521 281.06952 840.02528 273.11833 843.46485 C 267.92684 845.66954 263.25169 849.32653 260.40564 854.25101 C 258.22824 857.84071 257.19865 861.9521 256.125 865.96875 C 254.5376 872.91801 254.31132 880.48146 257.14578 887.14779 C 260.3197 894.56958 266.96325 900.28279 274.56739 902.82885 C 280.29329 904.71806 286.55682 904.63763 292.32581 902.97215 C 297.65795 901.67866 303.17283 899.95612 308.7 901.01971 C 312.85762 901.95604 317.00334 904.63153 318.375 908.84375 C 319.27902 912.45494 317.38743 915.90667 316.34206 919.26492 C 312.99489 928.31488 307.9158 936.79076 306.17171 946.38297 C 305.49025 950.2275 305.4635 954.23357 306.4375 958.03125 C 307.11785 958.76419 308.59247 958.87685 308.625 960.09375 C 306.98467 963.23637 303.45668 964.46182 300.71875 966.40625 C 291.61987 972.04086 282.0291 976.87373 272.0896 980.84136 C 257.32477 986.81412 241.70194 990.38042 225.98575 992.74403 C 215.60174 994.12661 205.09172 994.43791 194.62975 994.06696 C 191.01214 994.14787 187.35447 994.63387 183.77394 993.88199 C 170.12914 992.26456 156.39675 990.76 143.11558 987.09061 C 136.35152 985.35659 129.6207 983.47372 123 981.25 C 121.71868 979.49078 122.71412 977.27838 123.40625 975.5 C 125.69938 968.8952 128.51986 962.47997 131.6875 956.25 C 138.05183 950.87367 145.98096 947.86531 152.58854 942.83452 C 158.09881 939.02125 163.83942 935.25612 168.06195 929.96773 C 170.94414 925.18078 170.37279 918.79501 167.32604 914.2301 C 165.74018 912.29957 163.25803 911.48081 161.39269 909.87555 C 152.36275 903.58412 143.0501 897.67757 134.43687 890.80819 C 129.83291 887.27844 124.91582 883.99491 119.34437 882.21798 C 109.52454 878.57784 99.16192 876.08996 90.096086 870.67797 C 87.009864 869.02684 84.499122 866.30203 81.0625 865.34375 C 78.692722 864.77226 76.060259 865.9133 74.943712 868.09799 C 74.001442 869.64184 74.223085 871.669 75.34375 873.0625 C 77.426008 876.22844 80.932067 877.96154 84.00668 879.99212 C 92.487637 884.92049 102.00314 887.5644 111.20391 890.77881 C 115.42529 892.30241 119.75036 893.78215 123.50353 896.29473 C 125.70257 897.84932 127.4452 899.93843 129.67795 901.45283 C 134.68115 905.07324 139.68243 908.7038 144.87841 912.04628 C 148.19997 914.29338 151.64835 916.38347 154.75913 918.92059 C 156.76095 920.66641 158.74129 922.83543 159.14781 925.5524 C 159.16421 928.26113 156.89617 930.25364 154.69399 931.44858 C 145.79028 937.58852 136.05633 942.52928 127.6875 949.4375 C 123.70592 952.82316 120.32345 957.01069 118.43751 961.92498 C 116.42874 966.63571 115.06492 971.61878 112.65625 976.15625 C 110.9058 977.42993 108.69224 976.46614 107 975.59375 C 97.746615 971.25971 88.231347 967.26592 79.84375 961.34375 C 76.89285 958.71975 76.549761 954.33623 77.3125 950.6875 C 78.537491 944.1208 82.3134 938.16899 82.477445 931.3799 C 82.593161 927.13957 80.295088 923.26751 77.53125 920.21875 C 72.888932 915.12491 66.90812 911.10212 63.613353 904.89302 C 61.830391 901.59854 60.754965 897.97638 59.90625 894.34375 C 58.853013 892.66175 55.790913 893.68787 55.9375 895.65625 C 54.724229 900.50135 54.629072 905.99683 57.34375 910.375 C 61.927189 917.59018 69.142634 922.73383 73.413508 930.17077 C 75.51954 934.45356 75.070115 940.0351 71.809672 943.63457 C 70.391655 945.42855 69.615219 947.6064 68.90625 949.75 C 68.487984 950.75821 67.170105 951.45023 66.246088 950.62931 C 64.685548 949.67922 63.620749 948.12272 62.201423 946.9918 C 54.872812 939.97946 48.009665 932.43633 42.251834 924.0674 C 36.989148 916.61135 33.453761 908.10636 30.652347 899.465 C 29.92925 897.1194 28.983184 894.84776 28.28125 892.5 C 27.49541 889.17831 27.30836 885.75571 26.837075 882.38339 C 25.959593 874.08292 26.085782 865.71143 26.465541 857.38546 C 26.776306 852.17403 27.596144 847.00704 28.853786 841.94144 C 30.203922 836.31266 31.744753 830.72022 33.590391 825.23375 C 37.230413 815.32948 41.902567 805.82658 47.15457 796.68375 C 54.552063 784.44107 63.134903 772.87136 73.097094 762.58857 C 79.618071 755.86265 86.732453 749.75137 93.925058 743.76214 C 98.121942 740.36993 102.49636 737.19403 107.15329 734.45935 C 114.84391 729.61532 122.90608 725.33525 131.37827 722.02366 C 139.87723 718.48439 148.54445 714.88591 157.78835 713.94853 C 160.83679 713.56546 164.02203 713.45391 166.86552 712.19224 C 169.70011 710.55728 170.35961 706.63282 169.13438 703.77815 C 167.94429 700.46935 164.35799 698.30639 160.875 698.6875 z M 155.5625 735.96875 C 153.32729 736.03846 151.34376 738.28965 151.78125 740.53125 C 154.72057 745.482 159.5307 749.28319 161.3125 754.90625 C 162.48404 759.31372 160.10401 764.13963 156.28125 766.4375 C 146.34712 774.36044 135.66563 781.39584 126.49459 790.23879 C 121.39767 795.40622 118.17578 802.13869 116.125 809.03125 C 114.39444 815.06512 113.93635 821.35253 113.28076 827.56756 C 113.09706 828.9121 113.12003 830.31608 112.8125 831.625 C 112.3096 832.51621 110.59276 832.0678 110.71875 831 C 108.39882 823.55713 109.39322 815.66675 108.4375 808.03125 C 108.66262 806.96285 107.57198 806.10383 106.59375 806.03125 C 102.37763 801.98642 95.86666 801.11895 90.417316 802.79785 C 80.170911 805.51791 71.009661 811.47239 63.47868 818.83382 C 58.123781 824.2336 54.550075 831.54339 54.28815 839.20413 C 53.844616 846.32316 56.034484 853.4286 59.779963 859.44102 C 61.556516 862.35415 63.471155 865.28656 66.007258 867.58175 C 68.487138 868.82957 71.519793 867.02806 72.413508 864.57923 C 73.738553 861.91962 72.855804 858.7076 71.171045 856.42887 C 68.376306 850.6273 65.586593 844.43763 65.917309 837.84878 C 66.187493 832.48452 68.1953 827.16026 71.8125 823.15625 C 77.811777 819.11919 84.214928 815.22745 91.457616 814.0144 C 93.274297 813.38706 95.643006 814.45971 95.969447 816.45279 C 97.105443 819.87539 97.023413 823.53741 97.637169 827.06413 C 98.208131 831.80619 99.129699 836.85002 102.40098 840.5444 C 104.53621 843.1239 107.15494 845.6764 110.55004 846.35979 C 114.38996 846.97058 118.19751 844.50726 119.89031 841.13329 C 123.80212 835.3296 124.79305 828.21513 125.59334 821.41738 C 126.43944 814.89254 126.9621 808.10701 129.9804 802.14302 C 133.21119 796.15685 138.75261 791.97265 144.01285 787.87418 C 150.35073 782.99401 157.17252 778.72409 163.13875 773.3718 C 167.31338 769.37939 171.10757 764.55938 172.33977 758.79535 C 173.40948 752.56893 170.83134 746.22946 166.81118 741.54249 C 164.01196 738.32183 160.00622 735.63685 155.5625 735.96875 z M 35.3125 837.4375 C 32.67441 837.9546 30.328225 839.9673 29.625 842.59375 C 33.369714 850.03125 37.030265 857.73532 42.939526 863.74434 C 45.33934 866.27305 48.100408 868.52813 51.3125 869.9375 C 55.190285 870.25111 58.336637 865.27336 56.15625 861.96875 C 51.857262 855.35394 46.255088 849.64435 42.412643 842.72527 C 41.144558 840.65194 39.658479 838.33862 37.21875 837.5625 C 36.601442 837.41744 35.938238 837.23537 35.3125 837.4375 z "
       id="path3239"
       inkscape:connector-curvature="0" />
  </g>
</svg>
